<svg width="141" height="26" viewBox="0 0 141 26" fill="none" xmlns="http://www.w3.org/2000/svg">
<path fill-rule="evenodd" clip-rule="evenodd" d="M139.221 21.4367H140.385V25.264H133.299C134.715 23.4193 135.441 21.4367 139.221 21.4367Z" fill="#6B6B6B"/>
<path fill-rule="evenodd" clip-rule="evenodd" d="M141 9.37027L132.216 21.1224L129.041 25.2624H124.133L133.183 13.2293H125.528V9.37027H141Z" fill="#6B6B6B"/>
<path fill-rule="evenodd" clip-rule="evenodd" d="M116.741 2.66106C116.741 1.9472 117.006 1.32523 117.536 0.795137C118.066 0.265046 118.688 0 119.402 0C120.116 0 120.738 0.265046 121.268 0.795137C121.798 1.32523 122.063 1.9472 122.063 2.66106C122.063 3.37491 121.798 3.99689 121.268 4.52698C120.738 5.05707 120.116 5.32035 119.402 5.32035C118.688 5.32035 118.066 5.0553 117.536 4.52698C117.006 3.99689 116.741 3.37491 116.741 2.66106Z" fill="#6B6B6B"/>
<path fill-rule="evenodd" clip-rule="evenodd" d="M121.354 9.37027H121.623V25.2624H117.147V14.0916L121.354 9.37027Z" fill="#6B6B6B"/>
<path fill-rule="evenodd" clip-rule="evenodd" d="M112.467 11.8632C112.803 12.7202 112.97 13.7627 112.97 14.9907V25.2727H108.495V18.6731C108.495 16.1128 109.133 15.5367 110.937 13.5082C111.914 12.4092 112.147 12.2219 112.467 11.8632Z" fill="#6B6B6B"/>
<path fill-rule="evenodd" clip-rule="evenodd" d="M88.2194 25.2676V9.37542H92.6951V11.1919C94.0574 9.63516 95.6689 8.85593 97.5278 8.85593C99.6464 8.85593 101.29 9.81716 102.458 11.7414C103.689 9.81716 105.43 8.85593 107.679 8.85593C108.624 8.85593 109.453 9.02379 110.165 9.35951L107.009 12.9023C106.674 12.7344 106.281 12.6514 105.831 12.6514C104.857 12.6514 104.117 13.0295 103.61 13.7875C103.101 14.5438 102.848 15.6588 102.848 17.1289V25.2693H98.3724V16.544C98.3724 13.9483 97.4748 12.6514 95.6795 12.6514C94.7059 12.6514 93.9656 13.0295 93.4584 13.7875C92.9513 14.5438 92.6969 15.6588 92.6969 17.1289V25.2693H88.2211L88.2194 25.2676Z" fill="#6B6B6B"/>
<path fill-rule="evenodd" clip-rule="evenodd" d="M71.2562 17.2561C71.2562 18.4983 71.6803 19.5549 72.5284 20.4261L70.1572 24.165C69.7967 23.9211 69.4592 23.6508 69.1464 23.3539C68.346 22.5977 67.7293 21.6877 67.2982 20.6293C66.8671 19.5691 66.6497 18.4241 66.6497 17.1907C66.6497 16.0228 66.8759 14.9272 67.33 13.8989C67.7841 12.8723 68.422 11.9799 69.2436 11.2237C70.0653 10.4674 71.0389 9.88254 72.1627 9.4726C73.2882 9.06089 74.488 8.85593 75.7638 8.85593C77.0395 8.85593 78.234 9.06089 79.3472 9.4726C80.4604 9.88254 81.4287 10.4674 82.2503 11.2237C83.072 11.9799 83.7046 12.8829 84.1481 13.9324C84.5916 14.9803 84.8125 16.1005 84.8125 17.2897C84.8125 18.5213 84.5863 19.668 84.1322 20.7282C83.6781 21.7884 83.0402 22.6913 82.2185 23.437C81.3969 24.1826 80.4233 24.7551 79.2995 25.1563C78.1757 25.5556 76.9635 25.757 75.6666 25.757C74.8396 25.757 74.0533 25.674 73.3059 25.5079L74.465 23.6791C76.566 20.3678 76.7091 22.5924 78.8931 20.4367C79.7907 19.5496 80.2395 18.5124 80.2395 17.3233C80.2395 16.1341 79.7907 15.0951 78.8931 14.2099C77.9955 13.3228 76.9423 12.8793 75.7302 12.8793C75.1241 12.8793 74.4809 13.0366 73.8007 13.3493C73.1204 13.6639 72.5249 14.1816 72.0178 14.906C71.5089 15.6305 71.2562 16.415 71.2562 17.2579V17.2561Z" fill="#6B6B6B"/>
<path fill-rule="evenodd" clip-rule="evenodd" d="M57.077 13.2062H55.3259V9.3789H57.077L60.565 3.96136H61.5527V9.3789H64.6661V13.2062H61.5527V17.9416C61.5527 19.2828 61.687 20.2652 61.9591 20.8925C62.2295 21.5198 62.7419 21.8325 63.4999 21.8325L64.311 21.7671V25.6598C63.8357 25.7252 63.2084 25.757 62.4292 25.757C60.7417 25.757 59.4288 25.1898 58.4888 24.0536C57.547 22.9174 57.077 21.4102 57.077 19.5284V13.2026V13.2062Z" fill="#6B6B6B"/>
<path fill-rule="evenodd" clip-rule="evenodd" d="M51.5147 16.1646C52.119 16.488 52.5854 16.8184 52.9141 17.1524C53.5944 17.845 53.9354 18.8169 53.9354 20.0714C53.9354 20.6775 53.8276 21.3048 53.6121 21.9532C53.3965 22.6017 53.0219 23.2078 52.4936 23.7697C51.9635 24.3316 51.2602 24.8069 50.3856 25.1956C49.5091 25.5844 48.4772 25.7787 47.2881 25.7787C44.8673 25.7787 42.8547 24.9023 41.2556 23.1513L43.558 20.4266C44.8125 21.6811 46.0671 22.3084 47.3216 22.3084C47.8835 22.3084 48.3588 22.1423 48.7493 21.8066C49.1381 21.4709 49.3324 21.0556 49.3324 20.5573C49.3324 20.1032 49.1752 19.7463 48.8624 19.4866C48.8094 19.4424 48.7476 19.3982 48.6751 19.3523L51.5164 16.1646H51.5147Z" fill="#6B6B6B"/>
<path fill-rule="evenodd" clip-rule="evenodd" d="M53.1166 10.4752L50.9114 13.0709C49.982 12.38 49.1056 12.0337 48.2839 12.0337C47.8086 12.0337 47.4022 12.1644 47.0682 12.4224C46.7325 12.6804 46.5647 12.9949 46.5647 13.3625C46.5647 13.6434 46.6671 13.8978 46.8739 14.124C47.0241 14.2901 47.4658 14.5198 48.1956 14.8096L46.7696 16.4105C46.5116 16.702 45.3048 18.4637 43.3223 16.7515C42.6084 16.1348 42.2515 15.1683 42.2515 13.8484C42.2515 12.9189 42.4935 12.0478 42.9812 11.2368C43.4671 10.4257 44.1704 9.81436 45.0892 9.40442C46.0081 8.99449 46.9552 8.78952 47.927 8.78952C49.8742 8.78952 51.6023 9.35141 53.1166 10.4752Z" fill="#6B6B6B"/>
<path fill-rule="evenodd" clip-rule="evenodd" d="M31.8729 21.6984C32.9826 21.2107 33.5392 20.1081 33.5392 18.3871V9.37027H37.9831V19.1328C37.9831 21.2514 37.3188 22.8841 35.9882 24.0308C34.9581 24.9196 33.5851 25.4638 31.8729 25.6635V21.6984Z" fill="#6B6B6B"/>
<path fill-rule="evenodd" clip-rule="evenodd" d="M22.598 9.37027H27.0738V18.3871C27.0738 19.5763 27.3441 20.4739 27.8848 21.08C28.058 21.2744 28.2594 21.4369 28.4856 21.5694V25.6352C26.8759 25.4161 25.5789 24.8807 24.5929 24.0308C23.2624 22.8858 22.598 21.2531 22.598 19.1328V9.37027Z" fill="#6B6B6B"/>
<path fill-rule="evenodd" clip-rule="evenodd" d="M18.9066 1.73073V7.37444C17.0478 5.51382 15.0458 4.58439 12.906 4.58439C11.8034 4.58439 10.7591 4.79996 9.77667 5.23287C8.79246 5.66578 7.93901 6.27008 7.21455 7.04932C6.4901 7.82855 5.9229 8.74031 5.51296 9.78989C5.10125 10.8395 4.89628 11.9474 4.89628 13.1153C4.89628 14.2603 5.10125 15.347 5.51296 16.3736C5.9229 17.4002 6.49716 18.2926 7.23222 19.0506C7.96728 19.8069 8.8331 20.397 9.82791 20.8176C10.8227 21.2399 11.8829 21.4501 13.0067 21.4501C15.1483 21.4501 17.1149 20.5525 18.9102 18.7573V24.3692C16.8128 25.3216 14.8125 25.7969 12.9095 25.7969C11.1355 25.7969 9.45508 25.4735 7.86657 24.8233C6.27629 24.1748 4.89805 23.2666 3.73008 22.0986C2.56211 20.9307 1.64858 19.5736 0.989504 18.0275C0.330422 16.4814 0 14.854 0 13.1454C0 11.4155 0.330422 9.76162 0.989504 8.18372C1.65035 6.60404 2.57271 5.2205 3.76365 4.03133C4.95283 2.84216 6.34167 1.91273 7.93195 1.24305C9.52222 0.571599 11.192 0.23764 12.9431 0.23764C14.9539 0.23764 16.9435 0.73416 18.9119 1.72897L18.9066 1.73073Z" fill="#6B6B6B"/>
</svg>
