<svg width="1424" height="1058" viewBox="0 0 1424 1058" fill="none" xmlns="http://www.w3.org/2000/svg">
<mask id="mask0" mask-type="alpha" maskUnits="userSpaceOnUse" x="0" y="0" width="1440" height="1058">
<rect width="1440" height="1058" fill="#C4C4C4"/>
</mask>
<g mask="url(#mask0)">
<path d="M705.85 218.828L704.999 217.448L704.147 218.828L613.732 365.443L669.25 218.639L670.255 215.98L667.807 217.424L442.684 350.157L633.821 215.945L632.934 214.177L294.539 325.293L601.648 210.951L601.061 209.042L164.723 316.095L574.159 204.141L573.733 202.189L63.9054 286.101L552.395 195.888L552.099 193.911L-10.9846 258.799L537.341 186.559L537.159 184.569L-53.1865 215.119L529.613 176.567L529.554 174.569L-67.2258 170.456L529.554 166.346L529.613 164.348L-53.186 125.794L537.159 156.346L537.341 154.356L446.946 142.446L552.171 147.007L552.328 145.014L467.917 135.287L573.817 138.736L573.863 138.738L573.973 136.742L573.928 136.74L284.162 114.112L204.243 104.902L601.197 131.893L601.231 131.896L601.401 129.904L601.367 129.901L-69.8241 60.8769L633.13 126.781L633.153 126.784L633.362 124.795L633.34 124.792L-27.5233 47.704L668.206 123.624L668.26 123.63L668.314 123.63L686.272 123.63L686.3 123.63L686.328 123.628L705.027 122.562L721.799 122.562L741.619 123.628L741.72 123.634L741.82 123.619L1451.75 18.1766L776.617 124.797L776.595 124.8L776.885 126.779L776.907 126.776L1475.7 32.3967L808.578 129.905L808.543 129.909L808.799 131.892L808.833 131.888L1479.84 57.3564L835.98 136.746L836.178 138.736L1060.18 121.676L857.684 145.012L857.659 145.014L857.862 147.004L857.888 147.001L1075.73 127.599L872.646 154.356L872.828 156.346L1463.18 125.794L880.374 164.348L880.433 166.345L1477.22 170.456L880.433 174.569L880.374 176.567L1463.18 215.118L872.828 184.569L872.646 186.559L1420.97 258.799L857.888 193.911L857.592 195.888L1346.08 286.099L836.264 202.189L835.838 204.14L1245.29 316.099L808.926 209.042L808.339 210.951L1115.45 325.289L777.063 214.177L776.176 215.945L967.318 350.161L742.181 217.424L739.732 215.98L740.737 218.639L796.254 365.44L705.85 218.828ZM934.597 138.161L1111.7 117.753L1203.57 110.756L1122.77 121.401L934.597 138.161ZM1163.02 111.838L1421 82.1094L1239.66 106.002L1163.02 111.838ZM1239.86 107.992L1470.8 90.4038L1170.03 117.192L1239.86 107.992ZM524.29 143.796L424.302 139.463L367.87 132.028L443.562 134.494L524.29 143.796ZM161.625 102.004L229.969 109.88L155.814 104.089L116.907 98.9635L161.625 102.004ZM401.483 138.474L-95.5232 116.932L347.529 131.365L401.483 138.474ZM419.353 131.704L347.693 129.369L193.197 109.015L283.969 116.103L419.353 131.704ZM118.223 101.154L-90.0353 84.8918L85.265 96.8119L118.223 101.154ZM85.4632 94.8207L-11.0154 82.1097L119.189 97.114L85.4632 94.8207Z" stroke="#5E4C0C" stroke-width="2"/>
<path d="M705.919 326.078L704.999 323.904L704.078 326.078L613.499 539.871L669.282 325.165L670.085 322.077L667.663 324.155L438.286 521.009L633.961 321.016L632.815 319.415L281.42 487.364L601.775 313.753L600.963 311.932L143.456 475.314L574.265 303.851L573.662 301.949L33.4178 431.375L552.473 291.848L552.048 289.896L-48.4855 390.626L537.399 278.274L537.136 276.295L-96.5431 324.025L529.643 263.734L529.557 261.739L-112.647 255.296L529.557 248.857L529.643 246.862L-96.544 186.567L537.136 234.301L537.399 232.322L439.914 213.627L552.151 220.708L552.379 218.724L460.384 203.293L573.848 208.673L574.008 206.681L284.205 173.742L191.078 158.121L601.151 198.707L601.2 198.713L601.447 196.729L601.397 196.723L-138.255 86.0062L633.079 191.265L633.111 191.27L633.414 189.293L633.382 189.288L-109.948 63.0798L668.158 186.67L668.235 186.682L668.314 186.682L686.272 186.682L686.313 186.682L686.354 186.679L705.04 185.128L721.787 185.128L741.595 186.679L741.741 186.691L741.884 186.66L1517.23 19.0401L776.558 189.298L776.527 189.305L776.944 191.26L776.975 191.254L1531.29 42.9639L808.48 196.74L808.848 198.705L1530.52 82.0269L835.925 206.69L836.212 208.668L1076.09 182.077L857.645 218.718L857.608 218.724L857.902 220.702L857.939 220.696L1090.26 190.578L872.588 232.322L872.851 234.301L1506.54 186.567L880.344 246.862L880.43 248.857L1522.64 255.296L880.43 261.739L880.344 263.734L1506.54 324.025L872.851 276.295L872.588 278.274L1458.47 390.625L857.939 289.896L857.514 291.848L1376.57 431.372L836.335 301.949L835.732 303.851L1266.55 475.317L809.024 311.932L808.212 313.753L1128.57 487.36L777.182 319.415L776.036 321.016L971.715 521.012L742.324 324.155L739.902 322.077L740.705 325.165L796.487 539.868L705.919 326.078ZM910.862 211.819L1111.74 178.125L1214.74 166.707L1122.72 184.354L910.862 211.819ZM1147.12 172.191L1458.49 119.963L1239.61 161.938L1147.12 172.191ZM1239.91 163.917L1519.06 132.972L1155.5 180.104L1239.91 163.917ZM532.949 217.493L424.341 210.641L361.6 198.609L443.528 202.494L532.949 217.493ZM161.584 155.202L246.702 169.479L155.861 159.154L107.167 149.816L161.584 155.202ZM408.515 209.642L-153.604 174.179L347.492 197.94L408.515 209.642ZM426.887 199.702L347.729 195.949L181.631 164.096L283.926 175.723L426.887 199.702ZM129.789 156.191L-151.841 124.181L85.2206 147.644L129.789 156.191ZM85.508 145.663L-48.5058 119.963L132.355 150.299L85.508 145.663Z" stroke="#771255" stroke-width="2"/>
<path d="M705.946 410.705L704.999 407.915L704.052 410.705L613.421 677.692L669.293 409.29L670.022 405.792L667.583 408.404L436.608 655.807L634.033 403.966L632.734 402.49L276.02 615.279L601.859 394.888L600.892 393.146L134.498 601.023L574.34 382.534L573.609 380.68L20.3392 546.11L552.532 367.56L552.009 365.633L-64.7045 494.74L537.444 350.623L537.117 348.655L-115.422 409.999L529.666 332.479L529.559 330.486L-132.466 322.197L529.559 313.913L529.666 311.92L-115.422 234.396L537.117 295.745L537.444 293.776L436.863 269.703L552.135 278.779L552.419 276.804L457.11 256.851L573.836 263.759L574.036 261.771L284.238 220.661L185.362 199.962L601.176 251.327L601.483 249.351L-167.95 105.605L633.039 242.028L633.078 242.036L633.454 240.072L633.414 240.064L-145.649 74.972L668.12 236.294L668.216 236.313L668.314 236.313L686.272 236.313L686.323 236.313L686.375 236.308L705.05 234.373L721.777 234.373L741.575 236.308L741.757 236.326L741.933 236.278L1545.42 19.4791L776.513 240.079L776.475 240.089L776.989 242.021L777.027 242.011L1555.28 51.0604L808.431 249.368L808.886 251.315L1552.47 101.27L835.883 261.785L836.239 263.752L1082.99 229.612L857.568 276.804L857.933 278.77L1096.56 240.16L872.543 293.776L872.87 295.744L1525.42 234.395L880.321 311.92L880.428 313.913L1542.46 322.197L880.428 330.486L880.321 332.479L1525.42 409.999L872.87 348.655L872.543 350.623L1474.69 494.74L857.978 365.633L857.455 367.56L1389.65 546.107L836.389 380.68L835.657 382.534L1275.51 601.026L809.095 393.146L808.128 394.888L1133.97 615.275L777.263 402.49L775.964 403.966L973.392 655.811L742.404 408.404L739.966 405.793L740.694 409.29L796.565 677.687L705.946 410.705ZM900.568 269.845L1111.77 225.63L1219.58 210.714L1122.68 233.906L900.568 269.845ZM1140.21 219.676L1474.71 149.65L1239.57 205.929L1140.21 219.676ZM1239.94 207.897L1540.03 166.378L1149.2 229.615L1239.94 207.897ZM536.711 275.559L424.371 266.713L358.878 251.038L443.502 256.046L536.711 275.559ZM161.552 197.02L253.961 216.366L155.897 202.455L102.942 189.78L161.552 197.02ZM411.567 265.705L-178.923 219.209L347.464 250.362L411.567 265.705ZM430.16 253.253L347.758 248.376L176.618 207.414L283.892 222.632L430.16 253.253ZM134.802 199.462L-178.723 154.986L85.1856 187.587L134.802 199.462ZM85.5425 185.616L-64.7222 149.651L138.07 192.104L85.5425 185.616Z" stroke="#22264A" stroke-width="2"/>
<path d="M705.965 531.1L704.999 527.446L704.032 531.1L613.365 873.747L669.301 529.027L667.506 528.279L435.305 847.35L634.1 522.028L632.639 520.713L271.536 797.053L601.954 510.345L600.803 508.722L126.872 779.711L574.432 494.498L573.537 492.721L8.96777 709.281L552.609 475.296L551.954 473.412L-78.9556 642.853L537.504 453.574L537.091 451.625L-132.155 532.338L529.699 430.304L529.563 428.316L-150.078 417.399L529.563 406.489L529.699 404.5L-132.154 302.461L537.091 383.179L537.504 381.231L434.17 349.502L552.113 361.416L552.473 359.455L454.216 333.067L573.819 342.147L574.074 340.166L284.285 287.429L180.317 259.507L601.142 326.196L601.532 324.236L-194.141 133.538L632.984 314.263L633.033 314.275L633.509 312.333L633.46 312.321L-177.07 91.9735L668.068 306.907L668.189 306.937L668.314 306.937L686.272 306.937L686.338 306.937L686.403 306.929L705.065 304.449L721.763 304.449L741.548 306.93L741.78 306.959L742 306.882L1570.05 20.2542L776.405 312.359L777.051 314.252L1576.28 62.6804L808.366 324.262L808.939 326.176L1571.76 128.706L835.826 340.189L836.277 342.135L1089.08 297.264L857.514 359.455L857.976 361.4L1102.1 310.727L872.483 381.231L872.896 383.179L1542.15 302.461L880.288 404.5L880.424 406.489L1560.07 417.399L880.424 428.316L880.288 430.304L1542.15 532.337L872.896 451.625L872.483 453.574L1488.94 642.852L858.033 473.412L857.378 475.296L1401.02 709.278L836.46 492.721L835.565 494.498L1283.13 779.714L809.184 508.722L808.033 510.345L1138.46 797.049L777.359 520.713L775.898 522.028L974.696 847.355L742.481 528.279L740.686 529.027L796.621 873.741L705.965 531.1ZM891.494 352.4L1111.82 293.228L1223.85 273.344L1122.63 304.422L891.494 352.4ZM1134.12 287.238L1488.96 191.942L1239.52 268.53L1134.12 287.238ZM1239.99 270.478L1558.57 213.933L1143.66 300.057L1239.99 270.478ZM540.035 358.186L424.414 346.506L356.476 325.646L443.466 332.25L540.035 358.186ZM161.508 256.526L260.367 283.076L155.947 264.073L99.2191 246.655L161.508 256.526ZM414.259 345.48L-201.402 283.29L347.424 324.958L414.259 345.48ZM433.054 329.454L347.798 322.981L172.201 269.064L283.846 289.382L433.054 329.454ZM139.218 261.029L-202.517 198.838L85.1378 244.423L139.218 261.029ZM85.5903 242.47L-78.9693 191.942L143.115 251.586L85.5903 242.47Z" stroke="#771255" stroke-width="2"/>
<path d="M1331.23 889.478L1330.97 889.407L1330.71 889.478L1212.37 921.481L1281.23 891.115L1280.73 889.204L1050.61 911.832L1233 890.473L1232.83 888.481L977.259 902.477L1189.26 889.313L1189.28 889.312L1189.18 887.315L1189.15 887.316L919.173 898.362L1151.78 887.755L1151.8 887.754L1151.73 885.755L1151.71 885.756L913.671 892.29L1122.14 885.869L1122.15 885.869L1122.1 883.87L1122.09 883.87L911.947 887.908L1101.62 883.741L1101.63 883.741L1101.6 881.741L1101.59 881.741L937.187 883.16L1091.13 881.462L1091.14 881.462L1091.13 879.462L947.204 879.296L1091.13 879.131L1091.14 877.131L1091.13 877.131L937.185 875.432L1101.59 876.851L1101.6 876.851L1101.63 874.852L1101.62 874.851L1082.82 874.438L1122.1 874.722L1122.11 874.722L1122.14 872.722L1122.13 872.722L1118.79 872.658L1151.74 872.837L1151.75 872.837L1151.77 870.853L1189.2 871.278L1189.2 871.278L1189.23 869.43L1232.87 870.113L1232.87 870.113L1232.9 868.521L1280.81 869.393L1280.82 869.393L1280.82 869.393L1305.37 869.393L1305.38 869.393L1330.97 869.149L1330.98 869.149L1353.97 869.149L1353.97 869.149L1381.09 869.393L1381.11 869.393L1381.13 869.392L1429.03 868.206L1429.08 870.112L1429.08 870.112L1552.59 867.33L1472.69 869.278L1472.69 869.278L1472.73 871.278L1472.74 871.277L1634.35 868.284L1510.17 870.837L1510.16 870.837L1510.2 872.837L1510.21 872.837L1579.86 871.952L1539.79 872.722L1539.79 872.722L1539.82 874.722L1539.83 874.722L1621.2 873.513L1560.31 874.851L1560.3 874.852L1560.33 876.851L1560.34 876.851L1724.74 875.432L1570.8 877.131L1570.78 877.131L1570.79 879.131L1714.73 879.296L1570.79 879.462L1570.78 881.461L1570.8 881.462L1724.74 883.16L1560.34 881.741L1560.33 881.741L1560.3 883.741L1560.31 883.741L1749.98 887.908L1539.84 883.87L1539.83 883.87L1539.78 885.869L1539.79 885.869L1748.18 892.287L1510.23 885.756L1510.21 885.755L1510.14 887.754L1510.16 887.755L1742.84 898.366L1472.77 887.316L1472.75 887.315L1472.65 889.312L1472.67 889.313L1684.62 902.473L1429.11 888.481L1428.94 890.473L1611.35 911.834L1381.2 889.204L1380.7 891.115L1449.56 921.48L1331.23 889.478Z" stroke="#2FD78C" stroke-width="2"/>
<mask id="mask1" mask-type="alpha" maskUnits="userSpaceOnUse" x="0" y="-125" width="1440" height="1030">
<rect y="-124.136" width="1440" height="1028.39" fill="#C4C4C4"/>
</mask>
<g mask="url(#mask1)">
<path d="M721.082 695.073L723.077 695.165L750.205 407.571L724.231 695.358L726.21 695.633L779.921 411.067L727.338 696.015L729.282 696.473L809.631 417.031L730.367 697.037L732.26 697.676L839.256 425.671L733.287 698.413L735.11 699.229L868.648 437.208L736.066 700.126L737.8 701.116L897.563 451.891L738.673 702.157L740.301 703.315L925.643 469.968L741.082 704.485L742.582 705.804L952.458 491.581L743.267 707.084L744.62 708.553L977.475 516.81L745.204 709.926L746.391 711.532L1000.08 545.609L746.874 712.981L747.875 714.708L1019.68 577.74L748.257 716.215L749.057 718.044L1035.69 612.807L749.34 719.595L749.922 721.504L1047.53 650.275L750.109 723.084L750.463 725.049L1054.82 689.421L750.556 726.645L750.675 728.638L1057.28 729.439L750.675 730.24L750.556 732.233L1054.82 769.457L750.463 733.83L750.109 735.794L1047.53 808.603L749.922 737.374L749.34 739.283L1035.68 846.069L749.057 740.834L748.257 742.663L1019.68 881.138L747.875 744.17L746.874 745.897L1000.08 913.268L746.391 747.346L745.204 748.952L977.477 942.07L744.62 750.325L743.267 751.794L952.458 967.297L742.582 753.074L741.082 754.393L925.644 988.912L740.301 755.563L738.673 756.721L897.563 1006.99L737.8 757.762L736.066 758.752L868.646 1021.67L735.11 759.649L733.287 760.465L839.255 1033.21L732.26 761.202L730.367 761.841L809.631 1041.85L729.282 762.405L727.338 762.863L779.921 1047.81L726.21 763.245L724.231 763.52L750.205 1051.31L723.077 763.713L721.082 763.805L720.5 1052.47L719.918 763.805L717.923 763.713L690.795 1051.31L716.769 763.52L714.79 763.245L661.079 1047.81L713.662 762.863L711.718 762.405L631.368 1041.85L710.633 761.841L708.74 761.202L601.745 1033.21L707.713 760.465L705.89 759.649L572.35 1021.67L704.934 758.752L703.2 757.762L543.436 1006.99L702.327 756.721L700.699 755.563L515.352 988.917L699.918 754.393L698.418 753.074L488.541 967.298L697.733 751.794L696.38 750.325L463.526 942.067L695.796 748.952L694.609 747.346L440.923 913.267L694.126 745.897L693.125 744.17L421.32 881.139L692.743 742.663L691.943 740.834L405.319 846.068L691.66 739.283L691.078 737.374L393.472 808.603L690.891 735.794L690.537 733.83L386.178 769.457L690.444 732.233L690.325 730.24L383.716 729.439L690.325 728.638L690.444 726.645L386.178 689.421L690.537 725.049L690.891 723.084L393.472 650.275L691.078 721.504L691.66 719.595L405.314 612.808L691.943 718.044L692.743 716.215L421.32 577.739L693.125 714.708L694.126 712.981L440.921 545.61L694.609 711.532L695.796 709.926L463.528 516.812L696.38 708.553L697.733 707.084L488.541 491.58L698.418 705.804L699.918 704.485L515.353 469.963L700.699 703.315L702.327 702.157L543.435 451.889L703.2 701.116L704.934 700.126L572.349 437.201L705.89 699.229L707.713 698.413L601.744 425.671L708.74 697.676L710.633 697.037L631.368 417.028L711.718 696.473L713.662 696.015L661.079 411.067L714.79 695.633L716.769 695.358L690.795 407.571L717.923 695.165L719.918 695.073L720.5 406.409L721.082 695.073Z" stroke="#CC339D" stroke-width="2"/>
</g>
<path d="M739.528 717.363L738.999 717.033L738.469 717.363L649.724 772.759L703.028 718.501L705.415 716.071L702.093 716.825L503.086 761.993L667.507 717.55L667.121 715.593L399.59 749.409L635.393 715.612L635.441 715.606L635.205 713.621L635.157 713.627L311.035 744.237L607.958 712.982L608 712.979L607.832 710.986L607.79 710.99L256.049 733.275L586.258 709.799L586.285 709.798L586.17 707.801L586.143 707.803L216.012 724.221L571.231 706.206L571.261 706.205L571.191 704.206L571.16 704.207L202.57 711.549L563.544 702.357L563.572 702.357L563.549 700.357L198.662 699.389L563.549 698.422L563.572 696.422L563.544 696.422L202.57 687.229L571.16 694.572L571.191 694.573L571.261 692.574L571.231 692.573L517.025 689.823L586.17 690.977L586.197 690.978L586.258 688.979L586.231 688.978L540.524 686.95L607.865 687.794L607.883 687.795L607.925 685.795L607.908 685.795L318.103 677.083L305.773 676.536L635.259 685.161L635.273 685.161L635.338 683.162L635.325 683.162L315.319 670.494L667.202 683.193L667.21 683.194L667.291 681.195L667.282 681.195L430.105 670.545L702.272 681.978L702.293 681.978L702.314 681.978L720.272 681.978L720.283 681.978L720.294 681.978L738.999 681.567L739.009 681.567L755.816 681.567L755.826 681.567L775.652 681.978L775.691 681.979L775.73 681.977L1147.31 660.732L810.699 681.196L810.69 681.196L810.803 683.193L810.812 683.192L1222.92 661.766L842.645 683.162L842.632 683.163L842.731 685.161L842.744 685.16L1253.2 667.61L870.073 685.795L870.055 685.796L870.131 687.794L870.149 687.794L1012.55 683.619L891.739 688.978L891.729 688.979L891.807 690.977L891.817 690.977L1035.05 686.066L906.756 692.573L906.726 692.574L906.796 694.573L906.827 694.571L1275.42 687.229L914.443 696.422L914.415 696.422L914.438 698.422L1279.33 699.389L914.438 700.357L914.415 702.357L914.443 702.357L1275.42 711.549L906.827 704.207L906.796 704.206L906.726 706.205L906.756 706.206L1261.98 724.221L891.844 707.803L891.817 707.801L891.702 709.798L891.729 709.799L1221.91 733.272L870.207 710.99L870.165 710.986L869.997 712.979L870.039 712.982L1167 744.24L842.782 713.621L842.546 715.606L1078.38 749.405L810.876 715.593L810.49 717.55L974.922 761.996L775.894 716.825L772.572 716.071L774.959 718.501L828.262 772.758L739.528 717.363ZM458.248 686.842L434.036 685.614L477.607 686.161L513.906 687.771L458.248 686.842ZM1090.45 682.165L1145.64 679.717L1180.22 678.703L1156.84 679.889L1090.45 682.165ZM318.029 679.082L414.747 683.372L381.642 682.957L286.612 678.138L318.029 679.082ZM235.211 683.121L381.579 684.957L399.404 685.861L235.211 683.121Z" stroke="#EED26E" stroke-width="2"/>
<path d="M739.671 758.705L738.999 758.094L738.326 758.705L648.583 840.244L703.143 759.406L704.782 756.978L702.001 757.897L489.251 828.182L667.612 758.008L667.065 756.094L363.079 812.022L635.503 755.191L635.163 753.221L253.568 805.679L607.987 751.377L608.047 751.369L607.803 749.385L607.744 749.392L175.37 789.265L586.278 746.744L586.317 746.741L586.149 744.748L586.111 744.752L117.677 774.997L571.24 741.514L571.284 741.512L571.182 739.515L571.137 739.518L89.6926 753.476L563.543 735.913L563.584 735.912L563.551 733.913L80.6622 732.048L563.551 730.184L563.584 728.185L563.543 728.184L89.6916 710.62L571.137 724.579L571.182 724.581L571.284 722.585L571.24 722.582L498.651 717.223L586.149 719.347L586.19 719.349L586.278 717.351L586.238 717.349L520.867 713.127L607.851 714.715L607.877 714.716L607.939 712.717L607.913 712.716L318.12 700.036L271.384 697.019L635.241 710.881L635.261 710.882L635.356 708.885L635.337 708.884L136.49 680.14L667.181 708.017L667.194 708.018L667.312 706.022L667.299 706.021L214.303 676.414L702.253 706.248L702.284 706.25L702.314 706.25L720.272 706.25L720.288 706.25L720.303 706.25L738.999 705.652L739.015 705.652L755.811 705.652L755.826 705.652L775.643 706.25L775.699 706.251L775.756 706.247L1319.87 660.965L810.675 706.022L810.663 706.023L810.826 708.017L810.839 708.016L1369.09 665.769L842.626 708.885L842.606 708.886L842.75 710.881L842.77 710.88L1385.98 677.072L870.059 712.717L870.033 712.718L870.145 714.715L870.171 714.713L1054.12 706.864L891.723 717.35L891.709 717.351L891.823 719.348L891.838 719.347L1073.09 710.302L906.703 722.584L906.805 724.581L1388.3 710.62L914.444 728.184L914.403 728.185L914.436 730.184L1397.33 732.048L914.436 733.913L914.403 735.912L914.444 735.913L1388.3 753.476L906.805 739.515L906.703 741.512L1360.31 774.997L891.876 744.751L891.838 744.748L891.67 746.741L891.709 746.744L1302.6 789.262L870.194 749.385L869.951 751.369L1224.45 805.682L842.824 753.221L842.484 755.191L1114.9 812.019L810.932 756.094L810.385 758.008L988.753 828.185L775.986 757.897L773.205 756.978L774.844 759.406L829.404 840.243L739.671 758.705ZM458.264 714.241L417.655 711.243L477.594 712.338L536.505 716.141L458.264 714.241ZM221.838 695.824L189.769 694.421L175.45 693.364L195.664 694.134L221.838 695.824ZM84.1952 705.157L381.565 710.585L417.778 713.258L84.1952 705.157ZM381.657 708.586L256.348 699.336L318.011 702.034L434.404 709.549L381.657 708.586ZM123.072 691.503L99.2881 690.462L119.308 691.225L123.072 691.503ZM119.42 689.228L117.622 689.095L120.049 689.251L119.42 689.228ZM1145.66 702.958L1209.43 700.237L1156.82 704.121L1028.39 710.53L1145.66 702.958ZM1360.36 689.095L1273.7 695.492L1237.08 697.055L1360.36 689.095ZM1273.82 697.489L1383.44 692.811L1240.67 699.936L1273.82 697.489Z" stroke="#8800FF" stroke-width="2"/>
<path d="M739.749 791.333L738.999 790.483L738.249 791.333L648.159 893.495L703.194 791.724L704.53 789.253L701.933 790.323L483.409 880.426L667.687 789.937L667.023 788.065L347.313 861.48L635.551 786.431L635.13 784.478L228.637 854.221L608.083 781.664L607.781 779.688L140.261 833.5L586.294 775.894L586.342 775.889L586.134 773.901L586.086 773.906L74.8275 815.105L571.247 769.368L571.303 769.364L571.175 767.369L571.119 767.372L40.4562 786.575L563.542 762.376L563.593 762.375L563.551 760.376L29.1743 757.801L563.551 755.226L563.593 753.227L563.542 753.226L40.4557 729.026L571.119 748.23L571.175 748.234L571.303 746.238L571.247 746.235L490.641 738.807L586.134 741.7L586.184 741.703L586.294 739.706L586.244 739.704L512.295 733.743L607.841 735.919L607.872 735.92L607.95 733.922L607.918 733.921L318.132 718.096L256.39 713.12L635.227 731.134L635.251 731.136L635.371 729.14L635.346 729.138L58.5273 687.655L667.165 727.56L667.181 727.561L667.328 725.566L667.312 725.565L120.248 680.939L702.238 725.352L702.276 725.355L702.314 725.355L720.272 725.355L720.291 725.355L720.311 725.354L738.999 724.608L739.019 724.608L755.807 724.608L755.826 724.608L775.635 725.354L775.706 725.356L775.776 725.349L1395 661.032L810.657 725.568L810.641 725.569L810.845 727.559L810.861 727.557L1432.76 668.818L842.611 729.14L842.586 729.142L842.766 731.134L842.79 731.132L1443.85 684.443L870.049 733.922L870.016 733.924L870.155 735.919L870.188 735.917L1072.25 725.156L891.711 739.705L891.693 739.706L891.835 741.701L891.853 741.7L1089.67 729.379L906.684 746.238L906.812 748.234L1437.54 729.026L914.394 753.227L914.435 755.226L1448.82 757.8L914.435 760.376L914.394 762.375L1437.54 786.575L906.812 767.369L906.684 769.364L1403.16 815.105L891.853 773.901L891.645 775.889L1337.71 833.497L870.216 779.688L869.914 781.664L1249.38 854.225L842.857 784.478L842.436 786.431L1130.67 861.476L810.975 788.065L810.31 789.937L994.594 880.429L776.054 790.323L773.457 789.253L774.793 791.724L829.827 893.493L739.749 791.333ZM458.276 735.825L410.514 731.424L477.584 732.952L546.36 738.495L458.276 735.825ZM240.9 713.878L189.783 711.087L164.345 708.743L195.652 710.232L240.9 713.878ZM18.3098 722.489L381.553 730.764L425.789 734.84L18.3098 722.489ZM381.668 728.766L243.157 716.005L317.999 720.092L442.976 730.163L381.668 728.766ZM136.263 708.164L29.0384 702.309L119.294 706.601L136.263 708.164ZM119.434 704.605L74.7839 700.492L135.042 705.348L119.434 704.605ZM1145.67 721.246L1222.17 717.171L1156.8 723.194L1001.33 732.877L1145.67 721.246ZM1403.2 700.492L1273.69 712.425L1218.96 715.339L1403.2 700.492ZM1273.83 714.42L1438.34 705.658L1224.09 719.003L1273.83 714.42Z" stroke="#6372FF" stroke-width="2"/>
<path d="M739.823 837.749L738.999 836.55L738.174 837.749L647.835 969.172L703.236 837.746L704.325 835.163L701.847 836.473L478.421 954.657L667.779 835.37L666.964 833.565L333.49 931.801L635.616 830.885L635.084 828.96L206.65 923.262L608.133 824.773L607.749 822.813L109.167 896.433L586.317 817.376L586.377 817.368L586.111 815.387L586.05 815.395L36.8113 872.175L571.328 808.999L571.164 807.007L-3.28761 833.676L563.606 800.034L563.553 798.035L-16.5844 794.448L563.553 790.863L563.606 788.865L-3.28811 755.221L571.164 781.892L571.328 779.9L483.529 769.522L586.175 773.514L586.317 771.52L504.683 763.08L607.825 766.094L607.866 766.096L607.965 764.099L607.924 764.097L318.152 743.796L243.078 736.035L635.207 759.955L635.238 759.958L635.391 757.964L635.36 757.961L-10.6878 698.357L667.142 755.369L667.162 755.371L667.35 753.38L667.33 753.378L36.7774 687.391L702.217 752.537L702.266 752.541L702.314 752.541L720.272 752.541L720.297 752.541L720.323 752.54L739.024 751.583L755.802 751.583L775.624 752.54L775.715 752.545L775.805 752.533L1461.6 661.151L810.631 753.382L810.611 753.385L810.871 755.367L810.891 755.365L1489.22 673.173L842.589 757.965L842.558 757.968L842.787 759.955L842.818 759.951L1495.2 694.942L870.034 764.099L869.992 764.102L870.17 766.094L870.212 766.09L1088.34 751.188L891.693 771.518L891.67 771.52L891.853 773.511L891.876 773.509L1104.39 756.529L906.659 779.9L906.823 781.892L1481.28 755.221L914.381 788.865L914.434 790.863L1494.58 794.448L914.434 798.035L914.381 800.034L1481.28 833.676L906.823 807.007L906.659 808.999L1441.18 872.175L891.876 815.387L891.61 817.368L1368.81 896.431L870.248 822.813L869.864 824.773L1271.36 923.265L842.903 828.96L842.371 830.885L1144.49 931.797L811.033 833.565L810.218 835.37L999.581 954.659L776.14 836.473L773.662 835.163L774.751 837.746L830.151 969.17L739.823 837.749ZM977.318 764.676L1145.69 747.269L1233.47 741.272L1156.78 750.336L977.318 764.676ZM1202.87 741.358L1441.21 716.717L1273.67 736.52L1202.87 741.358ZM1273.85 738.513L1487.09 723.943L1209.37 746.134L1273.85 738.513ZM555.111 770.304L458.293 766.54L404.173 760.143L477.569 762.288L555.111 770.304ZM195.634 733.14L257.824 739.57L189.804 734.805L154.487 730.63L195.634 733.14ZM432.901 765.552L-40.2376 747.154L381.537 759.481L432.901 765.552ZM450.588 759.498L381.684 757.485L231.448 739.727L317.979 745.789L450.588 759.498ZM147.972 731.874L-33.3639 719.171L119.275 728.482L147.972 731.874ZM119.453 726.489L36.7756 716.717L148.355 728.253L119.453 726.489Z" stroke="#8800FF" stroke-width="2"/>
<path d="M744.086 677.143L738.53 667.992L732.974 677.142L727.603 685.988L728.928 682.434L735.483 664.857L719.459 674.61L709.65 680.579L705.684 672.984L694.529 676.902L692.735 671.084L682.432 673.42L681.499 668.728L673.108 669.969L672.598 665.945L666.756 666.466L666.604 664.322L666.756 662.177L672.598 662.699L673.108 658.675L681.499 659.916L682.432 655.223L692.735 657.56L694.529 651.743L705.684 655.661L709.65 648.065L719.459 654.034L721.189 655.087L723.211 654.971L729.179 654.628L737.529 654.628L746.386 657.42L748.795 658.179L751.085 657.112L756.962 654.374L757.289 654.222L757.596 654.034L767.409 648.063L771.376 655.661L782.527 651.744L784.32 657.56L794.627 655.222L795.56 659.916L803.947 658.675L804.457 662.699L810.299 662.177L810.451 664.322L810.299 666.466L804.457 665.945L803.947 669.969L795.56 668.728L794.628 673.421L784.32 671.084L782.526 676.9L771.376 672.984L767.409 680.581L757.596 674.61L741.572 664.858L748.127 682.434L749.446 685.972L744.086 677.143Z" stroke="#CC339D" stroke-width="13"/>
</g>
</svg>
