<svg width="1440" height="582" viewBox="0 0 1440 582" fill="none" xmlns="http://www.w3.org/2000/svg">
<path d="M732 231.118L797.751 142.078L757.153 232.419L926.373 155.54L781.198 236.266L1046.5 181.874L803.103 242.494L1152.88 60.5259L821.893 250.822L1240.87 108.64L836.759 260.897L1306.62 164.711L847.046 272.269L1347.26 226.287L852.301 284.448L1361 290.676L852.301 296.901L1347.26 355.066L847.046 309.08L1306.62 416.641L836.759 320.455L1240.87 472.709L821.893 330.527L1152.88 520.823L803.103 338.859L1046.5 355.761L781.198 345.083L926.373 382.094L757.153 348.93L797.751 395.556L732 350.231L666.256 395.556L706.854 348.93L537.627 382.094L682.802 345.083L417.5 355.761L660.904 338.859L311.117 520.823L642.107 330.527L223.127 472.709L627.248 320.455L157.383 416.641L616.961 309.08L116.744 355.066L611.706 296.901L103 290.676L611.706 284.448L116.744 226.287L616.961 272.269L157.383 164.711L627.248 260.897L223.127 108.64L642.107 250.822L311.117 60.5259L660.904 242.494L417.5 181.874L682.802 236.266L537.627 155.54L706.854 232.419L666.256 142.078L732 231.118Z" stroke="#CBA64D" stroke-miterlimit="10"/>
<path d="M731.507 216.326L732 216.605L732.493 216.326L826.39 163.151L769.983 216.371L767.618 218.603L770.828 218.086L923.888 193.443L909.46 199.61L807.43 220.978L807.668 222.956L858.788 221.267L840.918 228.904L841.368 230.822L894.421 227.795L869.771 239.438L870.466 241.305L925.234 226.037L988.695 222.416L892.757 252.111L893.218 254.053L1128.91 214.416L1200.56 210.327L908.678 266.447L908.943 268.426L1582.35 217.571L916.85 281.815L916.936 283.811L1599.55 290.677L916.936 297.539L916.85 299.534L1144.12 321.475L1090.41 326.628L908.943 312.923L908.678 314.902L1009.86 334.356L962.299 338.919L893.218 327.301L892.757 329.243L933.076 341.722L890.974 345.762L870.466 340.044L869.771 341.912L880.125 346.802L841.216 350.535L840.918 352.45L845.343 354.341L807.588 358.394L807.528 358.398L807.682 360.391L807.742 360.387L854.361 358.195L854.593 358.294L770.61 363.253L770.637 364.893H732H693.374L693.4 363.253L609.418 358.294L609.649 358.196L656.318 360.391L656.472 358.398L618.666 354.342L623.093 352.45L622.795 350.535L583.877 346.802L594.229 341.912L593.534 340.044L573.029 345.761L530.933 341.722L571.254 329.243L570.792 327.301L501.711 338.919L454.152 334.357L555.332 314.902L555.068 312.923L373.597 326.629L319.884 321.476L547.161 299.534L547.075 297.539L-135.548 290.677L547.075 283.811L547.161 281.815L-118.346 217.571L555.068 268.426L555.332 266.447L263.453 210.328L335.109 214.416L570.792 254.053L571.254 252.111L475.314 222.416L538.764 226.036L593.534 241.305L594.229 239.438L569.577 227.794L622.643 230.822L623.093 228.904L605.224 221.267L656.332 222.956L656.57 220.978L554.559 199.614L540.124 193.445L693.182 218.086L696.393 218.603L694.028 216.371L637.621 163.152L731.507 216.326ZM969.906 340.198L1016.83 335.697L1017.65 335.854L972.731 340.673L969.906 340.198ZM896.335 347.256L938.032 343.256L940.767 344.103L900.515 348.422L896.335 347.256ZM845.309 352.152L883.661 348.472L886.693 349.904L849.411 353.905L845.309 352.152ZM859.064 358.03L858.945 357.979L863.772 357.752L859.064 358.03ZM1023.89 335.019L1038.45 333.622L1024.45 335.125L1023.89 335.019ZM1582.35 363.783L1109.17 328.046L1157.96 322.811L1582.35 363.783ZM1024.36 337.145L1531.07 434.572L1028.4 350.036L1030.87 349.89L1030.88 349.889L1030.77 347.892L1030.76 347.893L1018.96 348.448L980.033 341.901L1024.36 337.145ZM962.227 340.935L965.369 341.463L945.79 343.564L943.195 342.761L962.227 340.935ZM905.725 349.874L945.593 345.596L963.272 351.068L917.7 353.213L905.725 349.874ZM890.795 347.788L895.137 348.999L890.509 349.495L887.553 348.099L890.795 347.788ZM853.173 355.512L890.163 351.544L895.871 354.24L854.725 356.176L853.173 355.512ZM902.686 357.458L1330.24 559.403L863.183 359.79L902.686 357.458ZM1446.48 500.63L927.644 355.985L970.904 353.431L1446.48 500.63ZM919.439 197.52L932.052 192.129L988.815 182.99L919.439 197.52ZM846.953 228.5L864.303 221.084L911.965 219.509L899.245 225.516L846.953 228.5ZM996.63 219.96L934.269 223.518L953.585 218.133L1008.39 216.321L996.63 219.96ZM910.063 201.527L981.88 186.486L916.52 217.357L869.378 218.915L910.063 201.527ZM904.572 225.212L917 219.342L945.135 218.412L924.905 224.052L904.572 225.212ZM1015.62 214.081L961.728 215.862L1446.49 80.7156L1015.62 214.081ZM1004.92 219.487L1015.96 216.071L1129.28 212.324L1128.68 212.425L1004.92 219.487ZM1215.39 207.476L1159.1 209.337L1531.05 146.785L1215.39 207.476ZM939.657 188.879L1330.23 21.9505L996.029 179.803L939.657 188.879ZM529.729 223.517L467.38 219.96L455.624 216.321L510.415 218.133L529.729 223.517ZM617.058 228.5L564.753 225.515L552.035 219.509L599.708 221.085L617.058 228.5ZM531.96 192.13L544.579 197.524L475.179 182.989L531.96 192.13ZM248.624 207.477L-67.0387 146.785L304.91 209.338L248.624 207.477ZM459.087 219.487L335.333 212.426L334.73 212.325L448.051 216.071L459.087 219.487ZM448.386 214.081L17.5209 80.7189L502.272 215.862L448.386 214.081ZM539.093 224.051L518.865 218.412L547 219.342L559.427 225.212L539.093 224.051ZM594.633 218.916L547.48 217.357L482.12 186.486L553.955 201.531L594.633 218.916ZM467.97 179.803L133.757 21.9462L524.355 188.88L467.97 179.803ZM605.064 357.98L604.946 358.03L600.262 357.754L605.064 357.98ZM618.702 352.152L614.598 353.905L577.307 349.904L580.341 348.471L618.702 352.152ZM525.978 343.256L567.667 347.256L563.485 348.422L523.24 344.104L525.978 343.256ZM447.181 335.697L494.104 340.198L491.275 340.674L446.359 335.855L447.181 335.697ZM600.827 359.791L133.749 559.407L561.315 357.458L600.827 359.791ZM609.285 356.176L568.129 354.24L573.837 351.544L610.836 355.513L609.285 356.176ZM576.449 348.098L573.491 349.495L568.863 348.999L573.208 347.787L576.449 348.098ZM518.414 345.597L558.275 349.874L546.3 353.213L500.736 351.069L518.414 345.597ZM520.814 342.761L518.217 343.565L498.638 341.464L501.782 340.935L520.814 342.761ZM439.644 337.146L483.973 341.902L445.047 348.449L433.237 347.893L433.225 347.892L433.119 349.889L433.131 349.89L435.606 350.036L-67.0594 434.572L439.644 337.146ZM17.535 500.627L493.105 353.431L536.357 355.984L17.535 500.627ZM440.114 335.019L439.56 335.125L425.506 333.618L440.114 335.019ZM-118.347 363.783L306.044 322.812L354.829 328.046L-118.347 363.783Z" stroke="#E86987" stroke-width="2"/>
<path d="M1237.81 97.2413C1238.29 98.4405 1238.14 100.027 1237.09 102.11C1236.05 104.188 1234.17 106.621 1231.44 109.395C1225.99 114.935 1217.31 121.657 1205.69 129.401C1182.45 144.879 1147.62 164.324 1103.77 186.429C1016.07 230.634 892.421 285.422 753.597 340.312C614.773 395.202 487.087 439.791 392.876 467.51C345.765 481.371 307.053 491.005 279.514 495.604C265.736 497.904 254.807 498.935 247.04 498.621C243.152 498.464 240.119 497.972 237.937 497.17C235.748 496.366 234.558 495.308 234.084 494.108C233.61 492.909 233.754 491.323 234.801 489.24C235.845 487.162 237.721 484.728 240.45 481.955C245.903 476.414 254.582 469.692 266.207 461.949C289.444 446.471 324.277 427.025 368.129 404.92C455.822 360.716 579.474 305.927 718.298 251.037C857.122 196.147 984.807 151.558 1079.02 123.839C1126.13 109.978 1164.84 100.344 1192.38 95.7458C1206.16 93.4453 1217.09 92.4143 1224.85 92.7283C1228.74 92.8854 1231.78 93.3777 1233.96 94.1796C1236.15 94.9836 1237.34 96.042 1237.81 97.2413Z" stroke="#476CF5" stroke-width="2"/>
<path d="M1262.08 87.6452C1262.55 88.8266 1262.38 90.4185 1261.25 92.5427C1260.12 94.6566 1258.13 97.1417 1255.23 99.9813C1249.46 105.654 1240.3 112.567 1228.06 120.554C1203.59 136.519 1166.98 156.668 1120.93 179.642C1028.85 225.584 899.124 282.772 753.597 340.312C608.07 397.853 474.316 444.841 375.711 474.297C326.404 489.026 285.912 499.364 257.143 504.448C242.75 506.991 231.341 508.21 223.247 508.022C219.195 507.928 216.037 507.482 213.77 506.709C211.493 505.932 210.281 504.886 209.814 503.705C209.347 502.523 209.516 500.931 210.646 498.807C211.771 496.693 213.77 494.208 216.662 491.368C222.439 485.696 231.596 478.783 243.837 470.796C268.304 454.83 304.916 434.681 350.964 411.708C443.05 365.766 572.772 308.578 718.298 251.037C863.825 193.497 997.579 146.509 1096.18 117.053C1145.49 102.323 1185.98 91.9861 1214.75 86.9023C1229.15 84.3589 1240.55 83.1398 1248.65 83.3277C1252.7 83.4218 1255.86 83.8678 1258.12 84.6409C1260.4 85.4177 1261.61 86.4638 1262.08 87.6452Z" stroke="#47D596" stroke-width="2"/>
<path d="M1277.73 81.4586C1278.19 82.6187 1277.99 84.2183 1276.76 86.3927C1275.54 88.5504 1273.39 91.0978 1270.3 94.0171C1264.13 99.8483 1254.39 106.991 1241.41 115.273C1215.46 131.828 1176.7 152.827 1127.99 176.85C1030.6 224.892 893.541 284.98 739.913 345.723C586.286 406.467 445.197 456.355 341.282 487.91C289.32 503.689 246.679 514.876 216.422 520.547C201.285 523.384 189.297 524.83 180.808 524.795C176.558 524.777 173.249 524.388 170.881 523.65C168.495 522.906 167.257 521.873 166.799 520.713C166.34 519.553 166.537 517.954 167.769 515.779C168.992 513.622 171.14 511.074 174.228 508.155C180.398 502.324 190.134 495.181 203.118 486.899C229.071 470.344 267.833 449.345 316.535 425.322C413.931 377.28 550.987 317.192 704.615 256.449C858.242 195.705 999.331 145.817 1103.25 114.262C1155.21 98.4828 1197.85 87.2959 1228.11 81.6252C1243.24 78.7884 1255.23 77.3416 1263.72 77.377C1267.97 77.3947 1271.28 77.7845 1273.65 78.5225C1276.03 79.2661 1277.27 80.2985 1277.73 81.4586Z" stroke="#47D596" stroke-width="2"/>
<path d="M1257.23 435.351C1256.9 436.597 1255.84 437.785 1253.75 438.834C1251.68 439.88 1248.72 440.717 1244.88 441.318C1237.2 442.519 1226.22 442.746 1212.27 442.038C1184.39 440.622 1144.83 435.483 1096.44 427.106C999.673 410.355 867.723 380.676 723.528 342.039C579.333 303.402 450.221 263.129 358.044 229.254C311.951 212.315 275.121 196.985 250.264 184.269C237.829 177.907 228.437 172.223 222.387 167.342C219.358 164.9 217.216 162.697 215.94 160.752C214.662 158.803 214.337 157.244 214.671 155.998C215.004 154.752 216.065 153.565 218.148 152.515C220.224 151.469 223.181 150.632 227.025 150.031C234.705 148.83 245.681 148.603 259.631 149.311C287.515 150.727 327.076 155.866 375.464 164.243C472.229 180.995 604.18 210.673 748.374 249.31C892.569 287.947 1021.68 328.22 1113.86 362.095C1159.95 379.034 1196.78 394.364 1221.64 407.08C1234.07 413.442 1243.46 419.127 1249.52 424.007C1252.54 426.449 1254.69 428.652 1255.96 430.597C1257.24 432.547 1257.57 434.106 1257.23 435.351Z" stroke="#CBA64D" stroke-width="2"/>
<path d="M1273.77 439.782C1273.44 441.016 1272.36 442.197 1270.22 443.235C1268.08 444.269 1265.04 445.085 1261.09 445.657C1253.18 446.801 1241.88 446.941 1227.51 446.121C1198.79 444.481 1158.02 439.018 1108.13 430.24C1008.37 412.686 872.287 381.9 723.526 342.039C574.764 302.178 441.517 260.797 346.346 226.12C298.756 208.779 260.714 193.125 235.019 180.183C222.165 173.708 212.447 167.936 206.175 162.994C203.035 160.521 200.809 158.293 199.478 156.331C198.142 154.361 197.801 152.8 198.131 151.567C198.462 150.333 199.538 149.152 201.68 148.114C203.813 147.08 206.855 146.264 210.811 145.692C218.713 144.548 230.016 144.408 244.385 145.228C273.108 146.868 313.881 152.331 363.766 161.109C463.525 178.663 599.61 209.449 748.372 249.31C897.134 289.171 1030.38 330.551 1125.55 365.229C1173.14 382.57 1211.18 398.224 1236.88 411.166C1249.73 417.64 1259.45 423.413 1265.72 428.355C1268.86 430.828 1271.09 433.056 1272.42 435.018C1273.76 436.988 1274.1 438.549 1273.77 439.782Z" stroke="#CBA64D" stroke-width="2"/>
<path d="M1352.31 460.829C1351.99 462.028 1350.87 463.193 1348.55 464.199C1346.26 465.196 1342.97 465.952 1338.69 466.441C1330.15 467.419 1317.91 467.31 1302.34 466.168C1271.2 463.884 1226.95 457.487 1172.76 447.557C1064.39 427.698 916.42 393.726 754.528 350.347C592.636 306.968 447.502 262.402 343.725 225.418C291.832 206.924 250.306 190.335 222.202 176.746C208.142 169.948 197.487 163.922 190.578 158.804C187.119 156.242 184.651 153.945 183.161 151.933C181.658 149.903 181.271 148.335 181.592 147.136C181.914 145.937 183.032 144.773 185.349 143.766C187.645 142.769 190.932 142.013 195.208 141.524C203.75 140.546 215.992 140.655 231.566 141.798C262.699 144.081 306.957 150.478 361.144 160.408C469.51 180.267 617.483 214.239 779.375 257.618C941.266 300.997 1086.4 345.563 1190.18 382.547C1242.07 401.041 1283.6 417.63 1311.7 431.219C1325.76 438.017 1336.42 444.043 1343.32 449.161C1346.78 451.723 1349.25 454.02 1350.74 456.033C1352.25 458.062 1352.63 459.63 1352.31 460.829Z" stroke="#CBA64D" stroke-width="2"/>
<path d="M1359.82 405.579C1359.01 410.304 1355.27 415.319 1346.81 420.218C1338.41 425.082 1326.19 429.32 1310.26 432.771C1278.46 439.662 1233.22 443.139 1177.65 443.09C1066.62 442.992 915.411 428.818 750.407 400.542C585.403 372.266 438.105 335.287 333.371 298.409C280.961 279.956 239.462 261.614 211.769 244.529C197.899 235.971 187.785 227.905 181.484 220.522C175.136 213.085 173.279 207.11 174.088 202.386C174.898 197.662 178.638 192.646 187.1 187.747C195.5 182.884 207.723 178.645 223.651 175.194C255.452 168.303 300.691 164.826 356.254 164.875C467.291 164.973 618.497 179.147 783.501 207.423C948.505 235.699 1095.8 272.679 1200.54 309.556C1252.95 328.009 1294.45 346.351 1322.14 363.437C1336.01 371.994 1346.12 380.06 1352.43 387.443C1358.77 394.88 1360.63 400.855 1359.82 405.579Z" stroke="#E86987" stroke-width="11"/>
</svg>
