<svg width="153" height="164" viewBox="0 0 153 164" fill="none" xmlns="http://www.w3.org/2000/svg">
<rect x="0.197998" y="0.162476" width="239.642" height="163.756" rx="11.9821" fill="white"/>
<path d="M92.5321 50.9698C92.4977 50.056 93.211 49.2834 94.1254 49.29C102.09 49.3475 109.84 51.9789 116.206 56.8147C123.012 61.9851 127.815 69.3554 129.797 77.67C131.778 85.9846 130.815 94.729 127.072 102.413C123.329 110.097 117.037 116.246 109.269 119.811C101.5 123.377 92.7361 124.138 84.4693 121.966C76.2025 119.794 68.9446 114.822 63.9323 107.899C58.9199 100.976 56.4633 92.5283 56.9809 83.9966C57.465 76.0169 60.523 68.4251 65.6724 62.3488C66.2636 61.6511 67.3144 61.6141 67.9849 62.2359C68.6554 62.8578 68.6913 63.903 68.1031 64.6033C63.4731 70.1159 60.7242 76.9824 60.2865 84.1972C59.8153 91.9641 62.0517 99.6542 66.6147 105.957C71.1778 112.26 77.7851 116.786 85.3109 118.763C92.8366 120.74 100.815 120.047 107.887 116.801C114.959 113.556 120.687 107.958 124.095 100.963C127.502 93.9675 128.379 86.007 126.575 78.4377C124.771 70.8684 120.399 64.1587 114.203 59.4518C108.447 55.0795 101.448 52.6867 94.25 52.603C93.3355 52.5923 92.5664 51.8837 92.5321 50.9698Z" fill="#EF2A82"/>
<path d="M91.8777 35.3419C91.8263 34.023 92.8543 32.9067 94.1741 32.9145C104.512 32.9756 114.63 36.0422 123.28 41.7659C132.597 47.93 139.742 56.8643 143.707 67.3078C147.672 77.7512 148.257 89.1763 145.379 99.9701C142.501 110.764 136.306 120.381 127.668 127.465C119.03 134.548 108.386 138.739 97.2372 139.447C86.0888 140.155 74.9997 137.344 65.5351 131.41C56.0706 125.476 48.7087 116.72 44.4888 106.376C40.5703 96.7722 39.5447 86.2504 41.5096 76.1004C41.7605 74.8046 43.0565 74.0152 44.3398 74.3238C45.623 74.6325 46.4069 75.9223 46.1618 77.2192C44.4275 86.3943 45.374 95.894 48.9141 104.571C52.7558 113.987 59.4578 121.959 68.0739 127.36C76.6901 132.762 86.7853 135.322 96.9343 134.677C107.083 134.033 116.774 130.217 124.637 123.769C132.501 117.32 138.141 108.565 140.761 98.7388C143.381 88.9125 142.848 78.5116 139.238 69.0043C135.629 59.4969 129.124 51.3634 120.643 45.7519C112.827 40.5808 103.697 37.7921 94.3601 37.6957C93.0403 37.682 91.929 36.6607 91.8777 35.3419Z" fill="#0088F0"/>
<path d="M88.2952 85.7312L88.4684 84.0322H90.2142V84.4323H88.8358L88.7328 85.3614C88.8998 85.2631 89.0893 85.214 89.3015 85.214C89.612 85.214 89.8585 85.317 90.041 85.5229C90.2236 85.7273 90.3148 86.0042 90.3148 86.3537C90.3148 86.7047 90.2197 86.9817 90.0293 87.1845C89.8406 87.3857 89.5761 87.4864 89.236 87.4864C88.9349 87.4864 88.6891 87.4029 88.4988 87.236C88.3085 87.069 88.2 86.8381 88.1735 86.5433H88.5831C88.6096 86.7383 88.679 86.8857 88.7913 86.9856C88.9037 87.0839 89.0519 87.133 89.236 87.133C89.4373 87.133 89.5948 87.0644 89.7087 86.9271C89.8242 86.7898 89.8819 86.6002 89.8819 86.3584C89.8819 86.1306 89.8195 85.9481 89.6947 85.8108C89.5714 85.6719 89.4068 85.6025 89.2009 85.6025C89.0121 85.6025 88.8639 85.6438 88.7562 85.7265L88.6416 85.8201L88.2952 85.7312ZM90.9865 85.7312L91.1597 84.0322H92.9055V84.4323H91.5271L91.4241 85.3614C91.5911 85.2631 91.7806 85.214 91.9928 85.214C92.3033 85.214 92.5498 85.317 92.7323 85.5229C92.9149 85.7273 93.0061 86.0042 93.0061 86.3537C93.0061 86.7047 92.911 86.9817 92.7206 87.1845C92.5319 87.3857 92.2674 87.4864 91.9273 87.4864C91.6262 87.4864 91.3804 87.4029 91.1901 87.236C90.9998 87.069 90.8913 86.8381 90.8648 86.5433H91.2744C91.3009 86.7383 91.3703 86.8857 91.4826 86.9856C91.595 87.0839 91.7432 87.133 91.9273 87.133C92.1285 87.133 92.2861 87.0644 92.4 86.9271C92.5155 86.7898 92.5732 86.6002 92.5732 86.3584C92.5732 86.1306 92.5108 85.9481 92.386 85.8108C92.2627 85.6719 92.0981 85.6025 91.8922 85.6025C91.7034 85.6025 91.5552 85.6438 91.4475 85.7265L91.3329 85.8201L90.9865 85.7312ZM94.4243 86.1688H93.2823V85.8154H94.4243V86.1688ZM96.5025 84.0298V84.3972H96.4229C96.0859 84.4035 95.8176 84.5033 95.6179 84.6968C95.4182 84.8903 95.3027 85.1625 95.2715 85.5135C95.4509 85.3076 95.6959 85.2046 96.0064 85.2046C96.3028 85.2046 96.5392 85.3092 96.7155 85.5182C96.8933 85.7273 96.9822 85.9972 96.9822 86.328C96.9822 86.679 96.8863 86.9598 96.6944 87.1704C96.504 87.3811 96.2482 87.4864 95.9268 87.4864C95.6007 87.4864 95.3363 87.3616 95.1334 87.1119C94.9306 86.8608 94.8292 86.5378 94.8292 86.1431V85.9769C94.8292 85.3497 94.9626 84.8708 95.2294 84.54C95.4977 84.2077 95.8964 84.0376 96.4253 84.0298H96.5025ZM95.9338 85.565C95.7856 85.565 95.6491 85.6095 95.5243 85.6984C95.3994 85.7874 95.3129 85.8989 95.2645 86.0331V86.1922C95.2645 86.473 95.3277 86.6993 95.4541 86.8709C95.5804 87.0425 95.738 87.1283 95.9268 87.1283C96.1218 87.1283 96.2747 87.0566 96.3855 86.913C96.4978 86.7695 96.554 86.5815 96.554 86.349C96.554 86.115 96.497 85.9262 96.3831 85.7827C96.2708 85.6376 96.121 85.565 95.9338 85.565ZM99.3225 86.2952H99.7952V86.6486H99.3225V87.4396H98.8872V86.6486H97.3356V86.3935L98.8615 84.0322H99.3225V86.2952ZM97.8271 86.2952H98.8872V84.6242L98.8357 84.7179L97.8271 86.2952Z" fill="#8794BA"/>
<path d="M26.1685 23.1511H24.265L23.8376 24.3368H23.2197L24.9546 19.7936H25.4789L27.2169 24.3368H26.6022L26.1685 23.1511ZM24.446 22.658H25.9906L25.2168 20.5331L24.446 22.658ZM27.6007 22.6206C27.6007 22.0943 27.7224 21.6762 27.9658 21.3662C28.2092 21.0542 28.5316 20.8982 28.9331 20.8982C29.345 20.8982 29.6664 21.0438 29.8973 21.335L29.9254 20.9606H30.4527V24.2557C30.4527 24.6925 30.3227 25.0368 30.0626 25.2885C29.8047 25.5402 29.4573 25.6661 29.0205 25.6661C28.7771 25.6661 28.5389 25.6141 28.3059 25.51C28.0729 25.406 27.895 25.2635 27.7723 25.0826L28.0719 24.7362C28.3194 25.042 28.6221 25.1949 28.9799 25.1949C29.2607 25.1949 29.4791 25.1158 29.6352 24.9577C29.7933 24.7996 29.8723 24.5771 29.8723 24.29V23.9998C29.6414 24.2661 29.3262 24.3992 28.9268 24.3992C28.5316 24.3992 28.2112 24.2401 27.9658 23.9218C27.7224 23.6035 27.6007 23.1698 27.6007 22.6206ZM28.1811 22.6861C28.1811 23.0668 28.2591 23.3664 28.4151 23.5848C28.5711 23.8011 28.7895 23.9093 29.0704 23.9093C29.4344 23.9093 29.7017 23.7439 29.8723 23.4132V21.8717C29.6955 21.5493 29.4303 21.3881 29.0766 21.3881C28.7958 21.3881 28.5763 21.4973 28.4182 21.7157C28.2601 21.9341 28.1811 22.2576 28.1811 22.6861ZM32.7274 24.3992C32.2698 24.3992 31.8974 24.2494 31.6103 23.9499C31.3233 23.6482 31.1797 23.2457 31.1797 22.7423V22.6362C31.1797 22.3013 31.2432 22.0028 31.3701 21.7407C31.499 21.4765 31.6779 21.2705 31.9068 21.1228C32.1377 20.9731 32.3873 20.8982 32.6557 20.8982C33.0946 20.8982 33.4357 21.0428 33.6791 21.3319C33.9225 21.6211 34.0442 22.035 34.0442 22.5738V22.8141H31.757C31.7653 23.1469 31.862 23.4163 32.0472 23.6222C32.2344 23.8261 32.4716 23.928 32.7586 23.928C32.9625 23.928 33.1351 23.8864 33.2766 23.8032C33.4181 23.72 33.5418 23.6098 33.6479 23.4725L34.0005 23.747C33.7176 24.1818 33.2932 24.3992 32.7274 24.3992ZM32.6557 21.3725C32.4227 21.3725 32.2271 21.4578 32.069 21.6283C31.9109 21.7968 31.8132 22.034 31.7757 22.3398H33.4669V22.2961C33.4503 22.0028 33.3712 21.776 33.2298 21.6159C33.0883 21.4536 32.897 21.3725 32.6557 21.3725ZM36.6809 23.4413C36.6809 23.2852 36.6216 23.1646 36.503 23.0793C36.3865 22.9919 36.1816 22.917 35.8883 22.8546C35.5971 22.7922 35.3651 22.7173 35.1925 22.63C35.0219 22.5426 34.895 22.4386 34.8118 22.3179C34.7307 22.1973 34.6901 22.0537 34.6901 21.8873C34.6901 21.6107 34.8066 21.3766 35.0396 21.1852C35.2747 20.9939 35.5742 20.8982 35.9383 20.8982C36.321 20.8982 36.631 20.997 36.8681 21.1946C37.1073 21.3922 37.227 21.645 37.227 21.9529H36.6466C36.6466 21.7948 36.579 21.6585 36.4437 21.5441C36.3106 21.4297 36.1421 21.3725 35.9383 21.3725C35.7281 21.3725 35.5638 21.4182 35.4452 21.5098C35.3267 21.6013 35.2674 21.7209 35.2674 21.8686C35.2674 22.008 35.3225 22.113 35.4328 22.1838C35.543 22.2545 35.7417 22.3221 36.0287 22.3866C36.3179 22.4511 36.5519 22.528 36.7308 22.6175C36.9097 22.7069 37.0418 22.8151 37.1271 22.942C37.2145 23.0668 37.2582 23.2197 37.2582 23.4007C37.2582 23.7023 37.1375 23.9447 36.8962 24.1277C36.6549 24.3087 36.3418 24.3992 35.957 24.3992C35.6865 24.3992 35.4473 24.3514 35.2393 24.2557C35.0313 24.16 34.868 24.0268 34.7494 23.8563C34.6329 23.6836 34.5747 23.4974 34.5747 23.2977H35.1519C35.1623 23.4912 35.2393 23.6451 35.3828 23.7595C35.5284 23.8719 35.7198 23.928 35.957 23.928C36.1754 23.928 36.3501 23.8843 36.4812 23.797C36.6143 23.7075 36.6809 23.5889 36.6809 23.4413Z" fill="#8794BA"/>
</svg>
