<svg width="153" height="165" viewBox="0 0 153 165" fill="none" xmlns="http://www.w3.org/2000/svg">
<rect x="0.197998" y="0.64978" width="239.642" height="163.756" rx="11.9821" fill="white"/>
<rect x="24.5618" y="139.243" width="0.399405" height="190.915" transform="rotate(-90 24.5618 139.243)" fill="#EEEEF7"/>
<rect x="24.5618" y="122.867" width="0.399405" height="190.915" transform="rotate(-90 24.5618 122.867)" fill="#EEEEF7"/>
<rect x="24.5618" y="106.492" width="0.399405" height="190.915" transform="rotate(-90 24.5618 106.492)" fill="#EEEEF7"/>
<rect x="24.5618" y="90.1163" width="0.399405" height="190.915" transform="rotate(-90 24.5618 90.1163)" fill="#EEEEF7"/>
<rect x="24.5618" y="73.7407" width="0.399405" height="190.915" transform="rotate(-90 24.5618 73.7407)" fill="#EEEEF7"/>
<rect x="24.5618" y="57.3651" width="0.399405" height="190.915" transform="rotate(-90 24.5618 57.3651)" fill="#EEEEF7"/>
<rect x="24.5618" y="40.9896" width="0.399405" height="190.915" transform="rotate(-90 24.5618 40.9896)" fill="#EEEEF7"/>
<rect x="24.5618" y="24.614" width="0.399405" height="190.915" transform="rotate(-90 24.5618 24.614)" fill="#EEEEF7"/>
<path d="M69.2957 147.039H68.8604V144.153L67.9874 144.474V144.081L69.2278 143.615H69.2957V147.039ZM72.6305 144.521C72.6305 144.691 72.5853 144.842 72.4948 144.975C72.4059 145.107 72.2849 145.211 72.132 145.286C72.3099 145.362 72.4503 145.474 72.5533 145.621C72.6578 145.767 72.7101 145.933 72.7101 146.119C72.7101 146.414 72.6102 146.649 72.4105 146.823C72.2124 146.998 71.9511 147.086 71.6265 147.086C71.2989 147.086 71.036 146.998 70.8379 146.823C70.6413 146.647 70.543 146.412 70.543 146.119C70.543 145.935 70.5929 145.769 70.6928 145.621C70.7942 145.472 70.9338 145.36 71.1117 145.284C70.9604 145.209 70.841 145.105 70.7536 144.972C70.6663 144.84 70.6226 144.689 70.6226 144.521C70.6226 144.234 70.7146 144.006 70.8987 143.837C71.0828 143.669 71.3254 143.585 71.6265 143.585C71.9261 143.585 72.1679 143.669 72.352 143.837C72.5377 144.006 72.6305 144.234 72.6305 144.521ZM72.2771 146.11C72.2771 145.919 72.2163 145.764 72.0946 145.644C71.9745 145.524 71.8169 145.464 71.6219 145.464C71.4268 145.464 71.27 145.523 71.1515 145.642C71.0345 145.76 70.976 145.916 70.976 146.11C70.976 146.303 71.0329 146.455 71.1468 146.566C71.2622 146.677 71.4222 146.732 71.6265 146.732C71.8294 146.732 71.9885 146.677 72.104 146.566C72.2194 146.454 72.2771 146.302 72.2771 146.11ZM71.6265 143.94C71.4565 143.94 71.3184 143.993 71.2123 144.099C71.1078 144.204 71.0555 144.347 71.0555 144.528C71.0555 144.701 71.107 144.841 71.21 144.949C71.3145 145.055 71.4534 145.108 71.6265 145.108C71.7997 145.108 71.9378 145.055 72.0408 144.949C72.1453 144.841 72.1976 144.701 72.1976 144.528C72.1976 144.354 72.1437 144.213 72.0361 144.104C71.9284 143.995 71.7919 143.94 71.6265 143.94ZM74.2008 145.768H73.0588V145.415H74.2008V145.768ZM76.8126 147.039H74.58V146.728L75.7594 145.417C75.9342 145.219 76.0543 145.058 76.1198 144.935C76.1869 144.81 76.2205 144.681 76.2205 144.549C76.2205 144.371 76.1666 144.225 76.059 144.111C75.9513 143.997 75.8078 143.94 75.6284 143.94C75.4131 143.94 75.2454 144.002 75.1252 144.125C75.0067 144.247 74.9474 144.417 74.9474 144.635H74.5144C74.5144 144.322 74.6151 144.068 74.8163 143.875C75.0191 143.681 75.2898 143.585 75.6284 143.585C75.9451 143.585 76.1955 143.668 76.3796 143.835C76.5637 144 76.6558 144.221 76.6558 144.497C76.6558 144.833 76.442 145.232 76.0145 145.695L75.1018 146.685H76.8126V147.039ZM79.099 145.894H79.5717V146.248H79.099V147.039H78.6637V146.248H77.1121V145.993L78.638 143.631H79.099V145.894ZM77.6036 145.894H78.6637V144.223L78.6122 144.317L77.6036 145.894Z" fill="#8794BA"/>
<path d="M119.227 145.124H119.552C119.756 145.121 119.917 145.067 120.034 144.963C120.151 144.858 120.21 144.717 120.21 144.539C120.21 144.14 120.011 143.94 119.613 143.94C119.426 143.94 119.276 143.994 119.163 144.102C119.053 144.208 118.997 144.349 118.997 144.525H118.564C118.564 144.255 118.663 144.032 118.859 143.854C119.057 143.674 119.309 143.585 119.613 143.585C119.934 143.585 120.186 143.67 120.369 143.84C120.551 144.01 120.643 144.246 120.643 144.549C120.643 144.697 120.594 144.84 120.497 144.979C120.402 145.118 120.272 145.222 120.107 145.291C120.294 145.35 120.438 145.448 120.54 145.585C120.643 145.723 120.694 145.89 120.694 146.089C120.694 146.394 120.594 146.637 120.394 146.816C120.195 146.996 119.935 147.086 119.615 147.086C119.295 147.086 119.035 146.999 118.834 146.826C118.634 146.653 118.534 146.424 118.534 146.14H118.969C118.969 146.32 119.028 146.463 119.145 146.571C119.262 146.678 119.419 146.732 119.615 146.732C119.824 146.732 119.984 146.678 120.095 146.568C120.206 146.459 120.261 146.302 120.261 146.098C120.261 145.9 120.2 145.748 120.079 145.642C119.957 145.536 119.781 145.481 119.552 145.478H119.227V145.124ZM121.487 145.33L121.661 143.631H123.406V144.032H122.028L121.925 144.961C122.092 144.862 122.281 144.813 122.494 144.813C122.804 144.813 123.051 144.916 123.233 145.122C123.416 145.326 123.507 145.603 123.507 145.953C123.507 146.304 123.412 146.581 123.221 146.784C123.033 146.985 122.768 147.086 122.428 147.086C122.127 147.086 121.881 147.002 121.691 146.835C121.501 146.668 121.392 146.437 121.366 146.142H121.775C121.802 146.337 121.871 146.485 121.983 146.585C122.096 146.683 122.244 146.732 122.428 146.732C122.629 146.732 122.787 146.664 122.901 146.526C123.016 146.389 123.074 146.199 123.074 145.958C123.074 145.73 123.012 145.547 122.887 145.41C122.764 145.271 122.599 145.202 122.393 145.202C122.204 145.202 122.056 145.243 121.948 145.326L121.834 145.419L121.487 145.33ZM124.925 145.768H123.783V145.415H124.925V145.768ZM127.132 145.894H127.605V146.248H127.132V147.039H126.697V146.248H125.145V145.993L126.671 143.631H127.132V145.894ZM125.637 145.894H126.697V144.223L126.645 144.317L125.637 145.894ZM129.823 145.894H130.296V146.248H129.823V147.039H129.388V146.248H127.836V145.993L129.362 143.631H129.823V145.894ZM128.328 145.894H129.388V144.223L129.337 144.317L128.328 145.894Z" fill="#8794BA"/>
<g style="mix-blend-mode:multiply" opacity="0.45">
<circle cx="62.1054" cy="60.1609" r="19.9702" fill="#0088F0"/>
</g>
<g style="mix-blend-mode:multiply">
<circle cx="75.8852" cy="79.9315" r="13.38" fill="#EF2A82"/>
</g>
<g style="mix-blend-mode:multiply">
<circle cx="168.547" cy="76.7362" r="29.3562" fill="#EF2A82"/>
</g>
<g style="mix-blend-mode:multiply" opacity="0.6">
<circle cx="139.789" cy="97.9046" r="15.377" fill="#0088F0"/>
</g>
<g style="mix-blend-mode:multiply">
<circle cx="119.819" cy="42.3875" r="6.98957" fill="#0088F0"/>
</g>
<g style="mix-blend-mode:multiply">
<circle cx="57.1132" cy="122.668" r="2.99553" fill="#EF2A82"/>
</g>
</svg>
