<svg width="279" height="185" viewBox="0 0 279 185" fill="none" xmlns="http://www.w3.org/2000/svg">
<path d="M246.032 51.7343L239.047 67.3951H236.8L243.762 52.2904H234.634V50.5297H246.032V51.7343ZM256.677 59.9817C256.229 60.5146 255.693 60.9432 255.067 61.2675C254.449 61.5918 253.77 61.754 253.028 61.754C252.055 61.754 251.206 61.5146 250.48 61.0358C249.762 60.5571 249.206 59.8852 248.812 59.0203C248.418 58.1477 248.221 57.1863 248.221 56.136C248.221 55.0086 248.434 53.9931 248.858 53.0896C249.291 52.1861 249.901 51.495 250.688 51.0162C251.476 50.5374 252.395 50.298 253.445 50.298C255.113 50.298 256.426 50.9235 257.384 52.1745C258.349 53.4178 258.832 55.1167 258.832 57.2712V57.8967C258.832 61.1787 258.183 63.5765 256.886 65.09C255.588 66.5959 253.631 67.3681 251.013 67.4067H250.596V65.5997H251.048C252.816 65.5688 254.175 65.1093 255.125 64.2213C256.075 63.3255 256.592 61.9123 256.677 59.9817ZM253.376 59.9817C254.094 59.9817 254.754 59.7617 255.357 59.3215C255.967 58.8813 256.411 58.3369 256.689 57.6882V56.8311C256.689 55.4256 256.384 54.2827 255.774 53.4024C255.164 52.522 254.391 52.0818 253.457 52.0818C252.515 52.0818 251.758 52.4448 251.187 53.1707C250.615 53.8889 250.329 54.8387 250.329 56.0202C250.329 57.1708 250.604 58.1207 251.152 58.8697C251.708 59.6111 252.449 59.9817 253.376 59.9817ZM261.6 53.773C261.6 52.7614 261.921 51.9274 262.562 51.271C263.21 50.6146 264.04 50.2864 265.052 50.2864C266.079 50.2864 266.909 50.6185 267.542 51.2826C268.183 51.939 268.504 52.7923 268.504 53.8425V54.665C268.504 55.6843 268.179 56.5183 267.531 57.167C266.89 57.8079 266.071 58.1284 265.075 58.1284C264.071 58.1284 263.241 57.8079 262.585 57.167C261.928 56.5183 261.6 55.6573 261.6 54.5839V53.773ZM263.199 54.665C263.199 55.2673 263.368 55.7654 263.708 56.1592C264.048 56.5453 264.504 56.7384 265.075 56.7384C265.623 56.7384 266.064 56.5492 266.396 56.1708C266.735 55.7924 266.905 55.275 266.905 54.6186V53.773C266.905 53.1707 266.739 52.6726 266.407 52.2788C266.075 51.8849 265.623 51.688 265.052 51.688C264.48 51.688 264.029 51.8849 263.697 52.2788C263.365 52.6726 263.199 53.1861 263.199 53.8194V54.665ZM269.813 63.2599C269.813 62.2482 270.133 61.4181 270.774 60.7694C271.423 60.113 272.253 59.7848 273.265 59.7848C274.276 59.7848 275.106 60.1092 275.755 60.7578C276.404 61.4065 276.728 62.2675 276.728 63.3409V64.1634C276.728 65.175 276.404 66.009 275.755 66.6654C275.114 67.3141 274.292 67.6384 273.288 67.6384C272.284 67.6384 271.454 67.3179 270.797 66.677C270.141 66.0283 269.813 65.1673 269.813 64.0939V63.2599ZM271.411 64.1634C271.411 64.7734 271.581 65.2754 271.921 65.6692C272.261 66.0553 272.716 66.2484 273.288 66.2484C273.844 66.2484 274.288 66.0592 274.62 65.6808C274.952 65.2947 275.118 64.7734 275.118 64.117V63.2599C275.118 62.6498 274.948 62.1517 274.608 61.7656C274.276 61.3795 273.828 61.1864 273.265 61.1864C272.716 61.1864 272.268 61.3795 271.921 61.7656C271.581 62.144 271.411 62.6575 271.411 63.3062V64.1634ZM265.562 66.121L264.345 65.3565L272.581 52.1745L273.797 52.939L265.562 66.121Z" fill="#0088F0"/>
<path d="M236.905 82.7597C236.905 82.1992 237.014 81.6951 237.233 81.2473C237.455 80.7996 237.761 80.4541 238.153 80.2109C238.548 79.9676 238.997 79.846 239.501 79.846C240.28 79.846 240.91 80.1157 241.389 80.6551C241.872 81.1945 242.114 81.9119 242.114 82.8073V82.8761C242.114 83.4331 242.006 83.9337 241.791 84.3779C241.579 84.8186 241.275 85.1623 240.876 85.4091C240.481 85.6558 240.027 85.7792 239.512 85.7792C238.736 85.7792 238.107 85.5095 237.624 84.9701C237.145 84.4308 236.905 83.7169 236.905 82.8285V82.7597ZM237.888 82.8761C237.888 83.5106 238.035 84.0201 238.327 84.4043C238.623 84.7886 239.018 84.9807 239.512 84.9807C240.009 84.9807 240.404 84.7868 240.696 84.399C240.989 84.0077 241.135 83.4613 241.135 82.7597C241.135 82.1322 240.985 81.6246 240.686 81.2368C240.39 80.8454 239.995 80.6498 239.501 80.6498C239.018 80.6498 238.629 80.8419 238.333 81.2262C238.036 81.6104 237.888 82.1604 237.888 82.8761ZM248.174 82.8761C248.174 83.7468 247.975 84.4484 247.576 84.9807C247.178 85.5131 246.638 85.7792 245.958 85.7792C245.264 85.7792 244.717 85.5589 244.319 85.1182V87.8733H243.34V79.9518H244.234L244.282 80.5863C244.68 80.0928 245.234 79.846 245.942 79.846C246.63 79.846 247.173 80.1051 247.571 80.6233C247.973 81.1416 248.174 81.8625 248.174 82.7862V82.8761ZM247.195 82.765C247.195 82.1199 247.058 81.6104 246.783 81.2368C246.508 80.8631 246.131 80.6762 245.651 80.6762C245.059 80.6762 244.615 80.9389 244.319 81.4641V84.1981C244.611 84.7198 245.059 84.9807 245.662 84.9807C246.131 84.9807 246.503 84.7956 246.778 84.4255C247.056 84.0518 247.195 83.4983 247.195 82.765ZM250.749 78.5663V79.9518H251.817V80.7079H250.749V84.2563C250.749 84.4854 250.797 84.6581 250.892 84.7745C250.987 84.8873 251.149 84.9437 251.378 84.9437C251.491 84.9437 251.646 84.9226 251.844 84.8802V85.6735C251.586 85.744 251.336 85.7792 251.093 85.7792C250.656 85.7792 250.326 85.647 250.104 85.3826C249.882 85.1182 249.771 84.7428 249.771 84.2563V80.7079H248.729V79.9518H249.771V78.5663H250.749ZM254.028 85.6735H253.049V79.9518H254.028V85.6735ZM252.97 78.4341C252.97 78.2754 253.018 78.1415 253.113 78.0322C253.211 77.9229 253.356 77.8682 253.546 77.8682C253.737 77.8682 253.881 77.9229 253.98 78.0322C254.079 78.1415 254.128 78.2754 254.128 78.4341C254.128 78.5927 254.079 78.7249 253.98 78.8307C253.881 78.9364 253.737 78.9893 253.546 78.9893C253.356 78.9893 253.211 78.9364 253.113 78.8307C253.018 78.7249 252.97 78.5927 252.97 78.4341ZM255.339 82.7597C255.339 82.1992 255.448 81.6951 255.667 81.2473C255.889 80.7996 256.196 80.4541 256.587 80.2109C256.982 79.9676 257.431 79.846 257.936 79.846C258.715 79.846 259.344 80.1157 259.823 80.6551C260.306 81.1945 260.548 81.9119 260.548 82.8073V82.8761C260.548 83.4331 260.44 83.9337 260.225 84.3779C260.014 84.8186 259.709 85.1623 259.31 85.4091C258.916 85.6558 258.461 85.7792 257.946 85.7792C257.171 85.7792 256.541 85.5095 256.058 84.9701C255.579 84.4308 255.339 83.7169 255.339 82.8285V82.7597ZM256.323 82.8761C256.323 83.5106 256.469 84.0201 256.762 84.4043C257.058 84.7886 257.453 84.9807 257.946 84.9807C258.443 84.9807 258.838 84.7868 259.131 84.399C259.423 84.0077 259.57 83.4613 259.57 82.7597C259.57 82.1322 259.42 81.6246 259.12 81.2368C258.824 80.8454 258.429 80.6498 257.936 80.6498C257.453 80.6498 257.063 80.8419 256.767 81.2262C256.471 81.6104 256.323 82.1604 256.323 82.8761ZM262.7 79.9518L262.732 80.6709C263.169 80.121 263.74 79.846 264.445 79.846C265.654 79.846 266.264 80.5282 266.275 81.8925V85.6735H265.297V81.8872C265.293 81.4747 265.198 81.1698 265.011 80.9724C264.828 80.7749 264.54 80.6762 264.149 80.6762C263.832 80.6762 263.553 80.7608 263.314 80.93C263.074 81.0993 262.887 81.3214 262.753 81.5963V85.6735H261.775V79.9518H262.7ZM273.551 85.6735H272.568V79.1533L270.595 79.8777V78.9893L273.398 77.937H273.551V85.6735Z" fill="#8794BA"/>
<path d="M245.372 122.318C245.372 123.16 245.148 123.909 244.7 124.565C244.26 125.222 243.661 125.735 242.904 126.106C243.785 126.484 244.48 127.036 244.989 127.762C245.507 128.488 245.766 129.31 245.766 130.229C245.766 131.689 245.271 132.851 244.283 133.716C243.302 134.581 242.009 135.013 240.402 135.013C238.781 135.013 237.48 134.581 236.499 133.716C235.526 132.843 235.039 131.681 235.039 130.229C235.039 129.318 235.286 128.496 235.781 127.762C236.283 127.029 236.974 126.473 237.854 126.094C237.105 125.723 236.514 125.21 236.082 124.554C235.649 123.897 235.433 123.152 235.433 122.318C235.433 120.897 235.889 119.77 236.8 118.936C237.711 118.102 238.912 117.685 240.402 117.685C241.885 117.685 243.082 118.102 243.993 118.936C244.912 119.77 245.372 120.897 245.372 122.318ZM243.623 130.183C243.623 129.241 243.321 128.473 242.719 127.878C242.124 127.283 241.345 126.986 240.379 126.986C239.414 126.986 238.638 127.28 238.051 127.866C237.472 128.453 237.182 129.226 237.182 130.183C237.182 131.141 237.464 131.894 238.028 132.442C238.599 132.99 239.391 133.264 240.402 133.264C241.406 133.264 242.194 132.99 242.765 132.442C243.337 131.886 243.623 131.133 243.623 130.183ZM240.402 119.445C239.561 119.445 238.877 119.708 238.352 120.233C237.835 120.75 237.576 121.457 237.576 122.353C237.576 123.21 237.831 123.905 238.341 124.438C238.858 124.963 239.545 125.225 240.402 125.225C241.26 125.225 241.943 124.963 242.453 124.438C242.97 123.905 243.229 123.21 243.229 122.353C243.229 121.496 242.962 120.797 242.43 120.256C241.897 119.716 241.221 119.445 240.402 119.445ZM259.353 119.121L252.368 134.782H250.121L257.083 119.677H247.955V117.916H259.353V119.121ZM261.6 121.16C261.6 120.148 261.921 119.314 262.562 118.658C263.21 118.001 264.04 117.673 265.052 117.673C266.079 117.673 266.909 118.005 267.542 118.669C268.183 119.326 268.504 120.179 268.504 121.229V122.052C268.504 123.071 268.179 123.905 267.531 124.554C266.89 125.195 266.071 125.515 265.075 125.515C264.071 125.515 263.241 125.195 262.585 124.554C261.928 123.905 261.6 123.044 261.6 121.97V121.16ZM263.199 122.052C263.199 122.654 263.368 123.152 263.708 123.546C264.048 123.932 264.504 124.125 265.075 124.125C265.623 124.125 266.064 123.936 266.396 123.557C266.735 123.179 266.905 122.662 266.905 122.005V121.16C266.905 120.557 266.739 120.059 266.407 119.665C266.075 119.272 265.623 119.075 265.052 119.075C264.48 119.075 264.029 119.272 263.697 119.665C263.365 120.059 263.199 120.573 263.199 121.206V122.052ZM269.813 130.646C269.813 129.635 270.133 128.805 270.774 128.156C271.423 127.5 272.253 127.171 273.265 127.171C274.276 127.171 275.106 127.496 275.755 128.144C276.404 128.793 276.728 129.654 276.728 130.728V131.55C276.728 132.562 276.404 133.396 275.755 134.052C275.114 134.701 274.292 135.025 273.288 135.025C272.284 135.025 271.454 134.705 270.797 134.064C270.141 133.415 269.813 132.554 269.813 131.48V130.646ZM271.411 131.55C271.411 132.16 271.581 132.662 271.921 133.056C272.261 133.442 272.716 133.635 273.288 133.635C273.844 133.635 274.288 133.446 274.62 133.067C274.952 132.681 275.118 132.16 275.118 131.504V130.646C275.118 130.036 274.948 129.538 274.608 129.152C274.276 128.766 273.828 128.573 273.265 128.573C272.716 128.573 272.268 128.766 271.921 129.152C271.581 129.531 271.411 130.044 271.411 130.693V131.55ZM265.562 133.508L264.345 132.743L272.581 119.561L273.797 120.326L265.562 133.508Z" fill="#EF2A82"/>
<path d="M236.905 150.146C236.905 149.586 237.014 149.082 237.233 148.634C237.455 148.186 237.761 147.841 238.153 147.597C238.548 147.354 238.997 147.233 239.501 147.233C240.28 147.233 240.91 147.502 241.389 148.042C241.872 148.581 242.114 149.298 242.114 150.194V150.263C242.114 150.82 242.006 151.32 241.791 151.764C241.579 152.205 241.275 152.549 240.876 152.796C240.481 153.042 240.027 153.166 239.512 153.166C238.736 153.166 238.107 152.896 237.624 152.357C237.145 151.817 236.905 151.103 236.905 150.215V150.146ZM237.888 150.263C237.888 150.897 238.035 151.407 238.327 151.791C238.623 152.175 239.018 152.367 239.512 152.367C240.009 152.367 240.404 152.173 240.696 151.786C240.989 151.394 241.135 150.848 241.135 150.146C241.135 149.519 240.985 149.011 240.686 148.623C240.39 148.232 239.995 148.036 239.501 148.036C239.018 148.036 238.629 148.229 238.333 148.613C238.036 148.997 237.888 149.547 237.888 150.263ZM248.174 150.263C248.174 151.133 247.975 151.835 247.576 152.367C247.178 152.9 246.638 153.166 245.958 153.166C245.264 153.166 244.717 152.945 244.319 152.505V155.26H243.34V147.338H244.234L244.282 147.973C244.68 147.479 245.234 147.233 245.942 147.233C246.63 147.233 247.173 147.492 247.571 148.01C247.973 148.528 248.174 149.249 248.174 150.173V150.263ZM247.195 150.152C247.195 149.506 247.058 148.997 246.783 148.623C246.508 148.25 246.131 148.063 245.651 148.063C245.059 148.063 244.615 148.325 244.319 148.851V151.585C244.611 152.106 245.059 152.367 245.662 152.367C246.131 152.367 246.503 152.182 246.778 151.812C247.056 151.438 247.195 150.885 247.195 150.152ZM250.749 145.953V147.338H251.817V148.095H250.749V151.643C250.749 151.872 250.797 152.045 250.892 152.161C250.987 152.274 251.149 152.33 251.378 152.33C251.491 152.33 251.646 152.309 251.844 152.267V153.06C251.586 153.131 251.336 153.166 251.093 153.166C250.656 153.166 250.326 153.034 250.104 152.769C249.882 152.505 249.771 152.129 249.771 151.643V148.095H248.729V147.338H249.771V145.953H250.749ZM254.028 153.06H253.049V147.338H254.028V153.06ZM252.97 145.821C252.97 145.662 253.018 145.528 253.113 145.419C253.211 145.309 253.356 145.255 253.546 145.255C253.737 145.255 253.881 145.309 253.98 145.419C254.079 145.528 254.128 145.662 254.128 145.821C254.128 145.979 254.079 146.112 253.98 146.217C253.881 146.323 253.737 146.376 253.546 146.376C253.356 146.376 253.211 146.323 253.113 146.217C253.018 146.112 252.97 145.979 252.97 145.821ZM255.339 150.146C255.339 149.586 255.448 149.082 255.667 148.634C255.889 148.186 256.196 147.841 256.587 147.597C256.982 147.354 257.431 147.233 257.936 147.233C258.715 147.233 259.344 147.502 259.823 148.042C260.306 148.581 260.548 149.298 260.548 150.194V150.263C260.548 150.82 260.44 151.32 260.225 151.764C260.014 152.205 259.709 152.549 259.31 152.796C258.916 153.042 258.461 153.166 257.946 153.166C257.171 153.166 256.541 152.896 256.058 152.357C255.579 151.817 255.339 151.103 255.339 150.215V150.146ZM256.323 150.263C256.323 150.897 256.469 151.407 256.762 151.791C257.058 152.175 257.453 152.367 257.946 152.367C258.443 152.367 258.838 152.173 259.131 151.786C259.423 151.394 259.57 150.848 259.57 150.146C259.57 149.519 259.42 149.011 259.12 148.623C258.824 148.232 258.429 148.036 257.936 148.036C257.453 148.036 257.063 148.229 256.767 148.613C256.471 148.997 256.323 149.547 256.323 150.263ZM262.7 147.338L262.732 148.058C263.169 147.508 263.74 147.233 264.445 147.233C265.654 147.233 266.264 147.915 266.275 149.279V153.06H265.297V149.274C265.293 148.861 265.198 148.556 265.011 148.359C264.828 148.162 264.54 148.063 264.149 148.063C263.832 148.063 263.553 148.147 263.314 148.317C263.074 148.486 262.887 148.708 262.753 148.983V153.06H261.775V147.338H262.7ZM275.381 153.06H270.336V152.357L273.001 149.395C273.396 148.948 273.668 148.585 273.816 148.306C273.967 148.024 274.043 147.733 274.043 147.434C274.043 147.032 273.921 146.702 273.678 146.445C273.435 146.187 273.111 146.059 272.705 146.059C272.219 146.059 271.84 146.198 271.568 146.476C271.3 146.751 271.166 147.136 271.166 147.629H270.188C270.188 146.921 270.415 146.348 270.87 145.911C271.328 145.473 271.94 145.255 272.705 145.255C273.421 145.255 273.987 145.443 274.403 145.821C274.819 146.194 275.027 146.693 275.027 147.317C275.027 148.075 274.544 148.978 273.578 150.025L271.515 152.262H275.381V153.06Z" fill="#8794BA"/>
<path d="M105.093 51.537C105.041 50.1604 106.116 48.9966 107.493 49.0066C119.491 49.0932 131.166 53.0572 140.756 60.3419C151.009 68.1305 158.244 79.2333 161.229 91.7585C164.213 104.284 162.763 117.456 157.124 129.032C151.485 140.607 142.007 149.87 130.305 155.241C118.603 160.611 105.4 161.758 92.9473 158.486C80.4941 155.214 69.5607 147.725 62.0101 137.296C54.4594 126.866 50.7587 114.141 51.5384 101.289C52.2677 89.2683 56.8742 77.8319 64.6314 68.6785C65.5221 67.6275 67.105 67.5716 68.115 68.5085C69.125 69.4453 69.1791 71.0198 68.2931 72.0747C61.3184 80.3789 57.1774 90.7226 56.518 101.591C55.8081 113.291 59.1772 124.876 66.051 134.37C72.9248 143.865 82.8781 150.683 94.215 153.661C105.552 156.64 117.571 155.596 128.224 150.707C138.878 145.817 147.506 137.385 152.639 126.847C157.772 116.309 159.093 104.317 156.376 92.9149C153.659 81.5125 147.072 71.4049 137.738 64.3144C129.068 57.7279 118.525 54.1234 107.681 53.9973C106.303 53.9812 105.145 52.9136 105.093 51.537Z" fill="#EF2A82"/>
<path d="M104.107 27.9948C104.03 26.0081 105.578 24.3264 107.567 24.3382C123.14 24.4302 138.381 29.0498 151.413 37.6721C165.447 46.9576 176.21 60.4165 182.183 76.1486C188.156 91.8807 189.037 109.092 184.702 125.351C180.367 141.611 171.035 156.099 158.022 166.77C145.01 177.44 128.975 183.754 112.181 184.82C95.3868 185.887 78.682 181.652 64.4245 172.713C50.167 163.774 39.077 150.583 32.72 135.002C26.8172 120.534 25.2722 104.684 28.2322 89.3939C28.6101 87.4419 30.5625 86.2527 32.4956 86.7177C34.4287 87.1826 35.6096 89.1256 35.2403 91.0793C32.6278 104.901 34.0535 119.211 39.3865 132.282C45.1736 146.467 55.2695 158.475 68.249 166.613C81.2285 174.75 96.436 178.606 111.725 177.635C127.013 176.664 141.611 170.916 153.457 161.202C165.303 151.488 173.799 138.299 177.745 123.497C181.692 108.694 180.89 93.0262 175.452 78.7042C170.014 64.3823 160.216 52.1299 147.44 43.6766C135.666 35.8868 121.912 31.6858 107.847 31.5406C105.859 31.5201 104.185 29.9815 104.107 27.9948Z" fill="#0088F0"/>
<path d="M98.7106 103.37L98.9715 100.81H101.601V101.413H99.525L99.3699 102.813C99.6214 102.665 99.9069 102.591 100.227 102.591C100.694 102.591 101.066 102.746 101.341 103.056C101.616 103.364 101.753 103.781 101.753 104.308C101.753 104.836 101.61 105.254 101.323 105.559C101.039 105.862 100.64 106.014 100.128 106.014C99.6742 106.014 99.3041 105.888 99.0173 105.637C98.7306 105.385 98.5673 105.037 98.5273 104.593H99.1443C99.1842 104.887 99.2888 105.109 99.458 105.259C99.6272 105.408 99.8505 105.482 100.128 105.482C100.431 105.482 100.668 105.378 100.84 105.171C101.014 104.965 101.101 104.679 101.101 104.315C101.101 103.972 101.007 103.697 100.819 103.49C100.633 103.281 100.385 103.176 100.075 103.176C99.7906 103.176 99.5673 103.238 99.4051 103.363L99.2324 103.504L98.7106 103.37ZM102.765 103.37L103.026 100.81H105.656V101.413H103.579L103.424 102.813C103.676 102.665 103.961 102.591 104.281 102.591C104.748 102.591 105.12 102.746 105.395 103.056C105.67 103.364 105.807 103.781 105.807 104.308C105.807 104.836 105.664 105.254 105.377 105.559C105.093 105.862 104.694 106.014 104.182 106.014C103.728 106.014 103.358 105.888 103.072 105.637C102.785 105.385 102.621 105.037 102.582 104.593H103.198C103.238 104.887 103.343 105.109 103.512 105.259C103.681 105.408 103.905 105.482 104.182 105.482C104.485 105.482 104.723 105.378 104.894 105.171C105.068 104.965 105.155 104.679 105.155 104.315C105.155 103.972 105.061 103.697 104.873 103.49C104.687 103.281 104.439 103.176 104.129 103.176C103.845 103.176 103.621 103.238 103.459 103.363L103.287 103.504L102.765 103.37ZM107.944 104.029H106.223V103.497H107.944V104.029ZM111.074 100.807V101.36H110.954C110.447 101.37 110.042 101.52 109.742 101.812C109.441 102.103 109.267 102.513 109.22 103.042C109.49 102.732 109.859 102.577 110.327 102.577C110.773 102.577 111.129 102.734 111.395 103.049C111.663 103.364 111.797 103.771 111.797 104.269C111.797 104.798 111.652 105.221 111.363 105.538C111.077 105.855 110.691 106.014 110.207 106.014C109.716 106.014 109.317 105.826 109.012 105.45C108.706 105.071 108.554 104.585 108.554 103.99V103.74C108.554 102.795 108.754 102.074 109.156 101.575C109.561 101.075 110.161 100.819 110.958 100.807H111.074ZM110.218 103.12C109.994 103.12 109.789 103.187 109.601 103.321C109.413 103.454 109.282 103.623 109.209 103.825V104.064C109.209 104.487 109.304 104.828 109.495 105.087C109.685 105.345 109.923 105.475 110.207 105.475C110.501 105.475 110.731 105.366 110.898 105.15C111.067 104.934 111.152 104.651 111.152 104.301C111.152 103.948 111.066 103.664 110.894 103.447C110.725 103.229 110.5 103.12 110.218 103.12ZM115.322 104.22H116.034V104.752H115.322V105.943H114.667V104.752H112.329V104.368L114.628 100.81H115.322V104.22ZM113.07 104.22H114.667V101.702L114.589 101.843L113.07 104.22Z" fill="#8794BA"/>
<path d="M5.12236 9.08551H2.25504L1.61107 10.8717H0.680364L3.29385 4.02775H4.08354L6.70173 10.8717H5.77573L5.12236 9.08551ZM2.52767 8.34282H4.85443L3.6887 5.14177L2.52767 8.34282ZM7.2799 8.28642C7.2799 7.4936 7.46322 6.86373 7.82986 6.39681C8.1965 5.92676 8.68222 5.69173 9.28702 5.69173C9.90749 5.69173 10.3916 5.91109 10.7395 6.3498L10.7818 5.78574H11.5762V10.7495C11.5762 11.4076 11.3803 11.9262 10.9886 12.3054C10.6 12.6845 10.0767 12.8741 9.41863 12.8741C9.05199 12.8741 8.69319 12.7958 8.34221 12.6391C7.99124 12.4824 7.72331 12.2678 7.53842 11.9951L7.98967 11.4734C8.36258 11.934 8.81853 12.1643 9.35753 12.1643C9.78057 12.1643 10.1096 12.0453 10.3446 11.8071C10.5828 11.5689 10.7019 11.2336 10.7019 10.8012V10.364C10.354 10.7652 9.87928 10.9657 9.27762 10.9657C8.68222 10.9657 8.19963 10.726 7.82986 10.2465C7.46322 9.76708 7.2799 9.11371 7.2799 8.28642ZM8.15419 8.38513C8.15419 8.95859 8.27171 9.40984 8.50673 9.73888C8.74176 10.0648 9.07079 10.2277 9.49384 10.2277C10.0422 10.2277 10.4449 9.97861 10.7019 9.48035V7.15829C10.4355 6.67257 10.036 6.42971 9.50324 6.42971C9.08019 6.42971 8.74959 6.59423 8.51143 6.92327C8.27327 7.2523 8.15419 7.73959 8.15419 8.38513ZM15.0029 10.9657C14.3134 10.9657 13.7525 10.7401 13.3201 10.2888C12.8876 9.83446 12.6714 9.22809 12.6714 8.46974V8.30992C12.6714 7.8054 12.767 7.35571 12.9581 6.96087C13.1524 6.56289 13.4219 6.25266 13.7666 6.03017C14.1145 5.80454 14.4905 5.69173 14.8947 5.69173C15.5559 5.69173 16.0699 5.90952 16.4365 6.3451C16.8032 6.78068 16.9865 7.40429 16.9865 8.21591V8.57785H13.541C13.5535 9.07924 13.6992 9.48505 13.9781 9.79528C14.2602 10.1024 14.6174 10.2559 15.0499 10.2559C15.357 10.2559 15.6171 10.1933 15.8301 10.0679C16.0432 9.94257 16.2297 9.77648 16.3895 9.56966L16.9207 9.98331C16.4945 10.6382 15.8552 10.9657 15.0029 10.9657ZM14.8947 6.40621C14.5438 6.40621 14.2492 6.53469 14.011 6.79165C13.7729 7.04548 13.6256 7.40272 13.5692 7.86337H16.1169V7.79756C16.0918 7.35571 15.9727 7.01414 15.7596 6.77285C15.5465 6.52842 15.2582 6.40621 14.8947 6.40621ZM20.9584 9.52265C20.9584 9.28763 20.8691 9.10588 20.6905 8.97739C20.515 8.84578 20.2063 8.73297 19.7645 8.63896C19.3258 8.54495 18.9764 8.43213 18.7163 8.30052C18.4593 8.1689 18.2681 8.01222 18.1428 7.83047C18.0206 7.64871 17.9595 7.43249 17.9595 7.1818C17.9595 6.76502 18.135 6.41248 18.4859 6.12418C18.84 5.83588 19.2913 5.69173 19.8397 5.69173C20.4163 5.69173 20.8832 5.84058 21.2404 6.13828C21.6008 6.43598 21.781 6.81672 21.781 7.28051H20.9067C20.9067 7.04235 20.8049 6.83709 20.6012 6.66474C20.4006 6.49239 20.1468 6.40621 19.8397 6.40621C19.5232 6.40621 19.2756 6.47515 19.097 6.61303C18.9184 6.75091 18.8291 6.9311 18.8291 7.15359C18.8291 7.36355 18.9121 7.5218 19.0782 7.62834C19.2443 7.73489 19.5436 7.83673 19.976 7.93388C20.4116 8.03102 20.7641 8.14697 21.0336 8.28172C21.3031 8.41647 21.5021 8.57942 21.6306 8.77057C21.7622 8.95859 21.828 9.18892 21.828 9.46155C21.828 9.91593 21.6463 10.281 21.2827 10.5568C20.9192 10.8294 20.4476 10.9657 19.8679 10.9657C19.4605 10.9657 19.1001 10.8936 18.7868 10.7495C18.4734 10.6053 18.2274 10.4048 18.0488 10.1478C17.8733 9.88773 17.7856 9.60726 17.7856 9.30643H18.6552C18.6708 9.59786 18.7868 9.82976 19.003 10.0021C19.2224 10.1713 19.5106 10.2559 19.8679 10.2559C20.1969 10.2559 20.4602 10.1901 20.6576 10.0585C20.8581 9.92377 20.9584 9.74515 20.9584 9.52265Z" fill="#8794BA"/>
</svg>
