<svg width="126" height="123" viewBox="0 0 126 123" fill="none" xmlns="http://www.w3.org/2000/svg">
<rect x="0.544434" y="18.6483" width="26.3607" height="20.769" fill="white"/>
<rect x="26.905" y="18.6483" width="26.3607" height="20.769" fill="white"/>
<path d="M40.0538 30.0536H39.6185V27.1681L38.7456 27.4887V27.0956L39.9859 26.6299H40.0538V30.0536Z" fill="#172755"/>
<rect x="53.2656" y="18.6483" width="26.3607" height="20.769" fill="white"/>
<path d="M67.2241 30.0536H64.9915V29.7424L66.171 28.4319C66.3457 28.2337 66.4658 28.073 66.5314 27.9498C66.5985 27.8249 66.632 27.6962 66.632 27.5636C66.632 27.3858 66.5782 27.2399 66.4705 27.126C66.3629 27.0121 66.2193 26.9551 66.0399 26.9551C65.8246 26.9551 65.6569 27.0168 65.5368 27.14C65.4182 27.2617 65.3589 27.4318 65.3589 27.6502H64.926C64.926 27.3366 65.0266 27.0831 65.2278 26.8896C65.4307 26.6962 65.7014 26.5994 66.0399 26.5994C66.3566 26.5994 66.607 26.6829 66.7911 26.8498C66.9752 27.0152 67.0673 27.236 67.0673 27.5121C67.0673 27.8476 66.8535 28.247 66.4261 28.7103L65.5134 29.7003H67.2241V30.0536Z" fill="#172755"/>
<rect x="79.6265" y="18.6483" width="26.3607" height="20.769" fill="white"/>
<path d="M91.9818 28.1393H92.3071C92.5115 28.1362 92.6722 28.0824 92.7892 27.9778C92.9062 27.8733 92.9648 27.7321 92.9648 27.5543C92.9648 27.1549 92.7658 26.9551 92.368 26.9551C92.1808 26.9551 92.031 27.009 91.9187 27.1166C91.8079 27.2227 91.7525 27.3639 91.7525 27.5402H91.3196C91.3196 27.2703 91.4178 27.0464 91.6144 26.8686C91.8126 26.6891 92.0638 26.5994 92.368 26.5994C92.6894 26.5994 92.9414 26.6845 93.1239 26.8545C93.3064 27.0246 93.3977 27.2609 93.3977 27.5636C93.3977 27.7118 93.3493 27.8554 93.2526 27.9942C93.1574 28.1331 93.0272 28.2368 92.8618 28.3055C93.049 28.3648 93.1933 28.4631 93.2947 28.6004C93.3977 28.7376 93.4492 28.9054 93.4492 29.1035C93.4492 29.4093 93.3493 29.6519 93.1496 29.8313C92.9499 30.0107 92.6902 30.1005 92.3703 30.1005C92.0505 30.1005 91.7899 30.0139 91.5887 29.8407C91.389 29.6675 91.2891 29.4389 91.2891 29.155H91.7244C91.7244 29.3344 91.7829 29.4779 91.8999 29.5856C92.017 29.6933 92.1737 29.7471 92.3703 29.7471C92.5794 29.7471 92.7393 29.6925 92.8501 29.5833C92.9609 29.474 93.0162 29.3172 93.0162 29.1129C93.0162 28.9147 92.9554 28.7626 92.8337 28.6565C92.712 28.5504 92.5365 28.4958 92.3071 28.4927H91.9818V28.1393Z" fill="#172755"/>
<rect x="105.987" y="18.6483" width="26.3607" height="20.769" fill="white"/>
<path d="M119.541 28.9093H120.013V29.2626H119.541V30.0536H119.105V29.2626H117.554V29.0076L119.08 26.6462H119.541V28.9093ZM118.045 28.9093H119.105V27.2383L119.054 27.3319L118.045 28.9093Z" fill="#172755"/>
<rect x="0.544434" y="39.4173" width="26.3607" height="20.769" fill="white"/>
<path d="M14.4701 47.6586L13.059 50.8226H12.6049L14.0114 47.7709H12.1673V47.4152H14.4701V47.6586Z" fill="#172755"/>
<rect x="26.905" y="39.4173" width="26.3607" height="20.769" fill="white"/>
<circle cx="39.8855" cy="49.6021" r="7.78838" fill="#0088F0"/>
<path d="M40.6973 48.3045C40.6973 48.4746 40.6521 48.6259 40.5616 48.7585C40.4727 48.8911 40.3518 48.9949 40.1989 49.0698C40.3767 49.1462 40.5171 49.2578 40.6201 49.4044C40.7246 49.5511 40.7769 49.7173 40.7769 49.9029C40.7769 50.1978 40.677 50.4326 40.4773 50.6073C40.2792 50.7821 40.0179 50.8694 39.6934 50.8694C39.3657 50.8694 39.1028 50.7821 38.9047 50.6073C38.7081 50.431 38.6098 50.1962 38.6098 49.9029C38.6098 49.7188 38.6597 49.5527 38.7596 49.4044C38.861 49.2562 39.0006 49.1439 39.1785 49.0674C39.0272 48.9926 38.9078 48.8888 38.8204 48.7562C38.7331 48.6236 38.6894 48.473 38.6894 48.3045C38.6894 48.0174 38.7814 47.7897 38.9655 47.6212C39.1496 47.4527 39.3922 47.3684 39.6934 47.3684C39.9929 47.3684 40.2347 47.4527 40.4188 47.6212C40.6045 47.7897 40.6973 48.0174 40.6973 48.3045ZM40.344 49.8935C40.344 49.7032 40.2831 49.548 40.1614 49.4278C40.0413 49.3077 39.8837 49.2476 39.6887 49.2476C39.4937 49.2476 39.3369 49.3069 39.2183 49.4255C39.1013 49.5441 39.0428 49.7001 39.0428 49.8935C39.0428 50.087 39.0997 50.2391 39.2136 50.3499C39.3291 50.4607 39.489 50.5161 39.6934 50.5161C39.8962 50.5161 40.0553 50.4607 40.1708 50.3499C40.2862 50.2376 40.344 50.0855 40.344 49.8935ZM39.6934 47.7241C39.5233 47.7241 39.3852 47.7772 39.2791 47.8833C39.1746 47.9878 39.1223 48.1306 39.1223 48.3115C39.1223 48.4847 39.1738 48.6251 39.2768 48.7328C39.3813 48.8389 39.5202 48.8919 39.6934 48.8919C39.8665 48.8919 40.0046 48.8389 40.1076 48.7328C40.2121 48.6251 40.2644 48.4847 40.2644 48.3115C40.2644 48.1384 40.2106 47.9972 40.1029 47.8879C39.9953 47.7787 39.8587 47.7241 39.6934 47.7241Z" fill="#EEEEF7"/>
<rect x="53.2656" y="39.4173" width="26.3607" height="20.769" fill="white"/>
<circle cx="66.2461" cy="49.6021" r="7.78838" fill="#0088F0"/>
<path d="M66.6507 49.3249C66.5602 49.4325 66.4518 49.5191 66.3254 49.5846C66.2006 49.6502 66.0633 49.6829 65.9135 49.6829C65.717 49.6829 65.5453 49.6346 65.3987 49.5378C65.2536 49.4411 65.1413 49.3054 65.0617 49.1306C64.9821 48.9543 64.9423 48.7601 64.9423 48.5479C64.9423 48.3201 64.9852 48.115 65.071 47.9324C65.1584 47.7499 65.2817 47.6102 65.4408 47.5135C65.5999 47.4168 65.7856 47.3684 65.9978 47.3684C66.3348 47.3684 66.6 47.4948 66.7935 47.7475C66.9885 47.9987 67.086 48.342 67.086 48.7772V48.9036C67.086 49.5667 66.955 50.0511 66.6928 50.3569C66.4307 50.6612 66.0352 50.8172 65.5063 50.825H65.4221V50.4599H65.5134C65.8706 50.4537 66.1452 50.3608 66.3371 50.1814C66.529 50.0004 66.6336 49.7149 66.6507 49.3249ZM65.9837 49.3249C66.1288 49.3249 66.2622 49.2804 66.3839 49.1915C66.5072 49.1025 66.5969 48.9926 66.6531 48.8615V48.6883C66.6531 48.4044 66.5914 48.1735 66.4682 47.9956C66.3449 47.8177 66.1889 47.7288 66.0001 47.7288C65.8098 47.7288 65.6569 47.8021 65.5414 47.9488C65.426 48.0939 65.3683 48.2858 65.3683 48.5245C65.3683 48.757 65.4236 48.9489 65.5344 49.1002C65.6468 49.25 65.7965 49.3249 65.9837 49.3249Z" fill="#EEEEF7"/>
<rect x="79.6265" y="39.4173" width="26.3607" height="20.769" fill="white"/>
<circle cx="92.607" cy="49.6021" r="7.78838" fill="#0088F0"/>
<path d="M90.9295 50.8226H90.4943V47.9371L89.6213 48.2577V47.8645L90.8617 47.3988H90.9295V50.8226ZM94.3346 49.3693C94.3346 49.8764 94.248 50.2532 94.0749 50.4997C93.9017 50.7462 93.631 50.8694 93.2628 50.8694C92.8993 50.8694 92.6301 50.7493 92.4554 50.509C92.2807 50.2672 92.1902 49.9068 92.1839 49.4278V48.8498C92.1839 48.349 92.2705 47.9769 92.4437 47.7335C92.6169 47.4901 92.8883 47.3684 93.2581 47.3684C93.6247 47.3684 93.8947 47.4862 94.0678 47.7218C94.241 47.9558 94.3299 48.3178 94.3346 48.8077V49.3693ZM93.9017 48.7772C93.9017 48.4106 93.8502 48.1438 93.7472 47.9769C93.6442 47.8084 93.4812 47.7241 93.2581 47.7241C93.0366 47.7241 92.8751 47.8076 92.7737 47.9745C92.6723 48.1415 92.62 48.3981 92.6169 48.7445V49.4372C92.6169 49.8054 92.6699 50.0776 92.776 50.2539C92.8837 50.4287 93.0459 50.5161 93.2628 50.5161C93.4765 50.5161 93.6349 50.4334 93.7379 50.268C93.8424 50.1026 93.897 49.8421 93.9017 49.4863V48.7772Z" fill="#EEEEF7"/>
<rect x="105.987" y="39.4173" width="26.3607" height="20.769" fill="white"/>
<path d="M117.29 50.8226H116.855V47.9371L115.982 48.2577V47.8645L117.222 47.3988H117.29V50.8226ZM119.981 50.8226H119.546V47.9371L118.673 48.2577V47.8645L119.914 47.3988H119.981V50.8226Z" fill="#172755"/>
<rect x="0.544434" y="60.1863" width="26.3607" height="20.769" fill="white"/>
<path d="M11.8475 71.5917H11.4122V68.7061L10.5393 69.0268V68.6336L11.7796 68.1679H11.8475V71.5917ZM14.9437 70.4473H15.4164V70.8007H14.9437V71.5917H14.5084V70.8007H12.9568V70.5456L14.4826 68.1843H14.9437V70.4473ZM13.4483 70.4473H14.5084V68.7763L14.4569 68.87L13.4483 70.4473Z" fill="#172755"/>
<rect x="26.905" y="60.1863" width="26.3607" height="20.769" fill="white"/>
<path d="M38.2081 71.5917H37.7728V68.7061L36.8999 69.0268V68.6336L38.1402 68.1679H38.2081V71.5917ZM39.6755 69.8833L39.8486 68.1843H41.5945V68.5844H40.2161L40.1131 69.5135C40.28 69.4152 40.4696 69.3661 40.6818 69.3661C40.9922 69.3661 41.2387 69.4691 41.4213 69.675C41.6038 69.8794 41.6951 70.1563 41.6951 70.5058C41.6951 70.8568 41.5999 71.1338 41.4096 71.3366C41.2208 71.5378 40.9564 71.6385 40.6162 71.6385C40.3151 71.6385 40.0694 71.555 39.8791 71.3881C39.6887 71.2211 39.5803 70.9902 39.5538 70.6954H39.9633C39.9898 70.8904 40.0593 71.0378 40.1716 71.1377C40.2839 71.236 40.4321 71.2851 40.6162 71.2851C40.8175 71.2851 40.9751 71.2165 41.089 71.0792C41.2044 70.9419 41.2621 70.7523 41.2621 70.5105C41.2621 70.2827 41.1997 70.1002 41.0749 69.9629C40.9517 69.824 40.7871 69.7546 40.5811 69.7546C40.3924 69.7546 40.2441 69.7959 40.1365 69.8786L40.0218 69.9722L39.6755 69.8833Z" fill="#172755"/>
<rect x="53.2656" y="60.1863" width="26.3607" height="20.769" fill="white"/>
<path d="M64.5687 71.5917H64.1334V68.7061L63.2605 69.0268V68.6336L64.5008 68.1679H64.5687V71.5917ZM67.5362 68.1819V68.5493H67.4566C67.1196 68.5556 66.8512 68.6554 66.6515 68.8489C66.4518 69.0424 66.3364 69.3146 66.3052 69.6656C66.4846 69.4597 66.7295 69.3567 67.04 69.3567C67.3365 69.3567 67.5728 69.4613 67.7491 69.6703C67.927 69.8794 68.0159 70.1493 68.0159 70.4801C68.0159 70.8311 67.92 71.1119 67.7281 71.3225C67.5377 71.5332 67.2818 71.6385 66.9604 71.6385C66.6344 71.6385 66.3699 71.5137 66.1671 71.264C65.9643 71.0129 65.8629 70.6899 65.8629 70.2952V70.129C65.8629 69.5018 65.9963 69.0229 66.2631 68.6921C66.5314 68.3598 66.93 68.1897 67.4589 68.1819H67.5362ZM66.9675 69.7171C66.8193 69.7171 66.6827 69.7616 66.5579 69.8505C66.4331 69.9395 66.3465 70.051 66.2982 70.1852V70.3443C66.2982 70.6251 66.3613 70.8514 66.4877 71.023C66.6141 71.1946 66.7717 71.2804 66.9604 71.2804C67.1555 71.2804 67.3084 71.2087 67.4191 71.0651C67.5315 70.9216 67.5876 70.7336 67.5876 70.5011C67.5876 70.2671 67.5307 70.0783 67.4168 69.9348C67.3045 69.7897 67.1547 69.7171 66.9675 69.7171Z" fill="#172755"/>
<rect x="79.6265" y="60.1863" width="26.3607" height="20.769" fill="white"/>
<path d="M90.9295 71.5917H90.4943V68.7061L89.6213 69.0268V68.6336L90.8617 68.1679H90.9295V71.5917ZM94.3978 68.4276L92.9866 71.5917H92.5326L93.9391 68.54H92.095V68.1843H94.3978V68.4276Z" fill="#172755"/>
<rect x="105.987" y="60.1863" width="26.3607" height="20.769" fill="white"/>
<circle cx="118.968" cy="70.3711" r="7.78838" fill="#EF2A82"/>
<path d="M117.29 71.5917H116.855V68.7061L115.982 69.0268V68.6336L117.222 68.1679H117.29V71.5917ZM120.625 69.0736C120.625 69.2436 120.58 69.395 120.489 69.5276C120.4 69.6602 120.279 69.7639 120.127 69.8388C120.304 69.9153 120.445 70.0268 120.548 70.1735C120.652 70.3201 120.705 70.4863 120.705 70.672C120.705 70.9668 120.605 71.2016 120.405 71.3764C120.207 71.5511 119.946 71.6385 119.621 71.6385C119.293 71.6385 119.031 71.5511 118.832 71.3764C118.636 71.2001 118.537 70.9653 118.537 70.672C118.537 70.4879 118.587 70.3217 118.687 70.1735C118.789 70.0253 118.928 69.9129 119.106 69.8365C118.955 69.7616 118.835 69.6578 118.748 69.5252C118.661 69.3926 118.617 69.2421 118.617 69.0736C118.617 68.7865 118.709 68.5587 118.893 68.3902C119.077 68.2217 119.32 68.1375 119.621 68.1375C119.921 68.1375 120.162 68.2217 120.347 68.3902C120.532 68.5587 120.625 68.7865 120.625 69.0736ZM120.272 70.6626C120.272 70.4723 120.211 70.317 120.089 70.1969C119.969 70.0767 119.811 70.0167 119.616 70.0167C119.421 70.0167 119.265 70.076 119.146 70.1945C119.029 70.3131 118.97 70.4691 118.97 70.6626C118.97 70.8561 119.027 71.0082 119.141 71.1189C119.257 71.2297 119.417 71.2851 119.621 71.2851C119.824 71.2851 119.983 71.2297 120.098 71.1189C120.214 71.0066 120.272 70.8545 120.272 70.6626ZM119.621 68.4932C119.451 68.4932 119.313 68.5462 119.207 68.6523C119.102 68.7568 119.05 68.8996 119.05 69.0806C119.05 69.2538 119.102 69.3942 119.204 69.5018C119.309 69.6079 119.448 69.661 119.621 69.661C119.794 69.661 119.932 69.6079 120.035 69.5018C120.14 69.3942 120.192 69.2538 120.192 69.0806C120.192 68.9074 120.138 68.7662 120.031 68.657C119.923 68.5478 119.786 68.4932 119.621 68.4932Z" fill="#EEEEF7"/>
<rect x="0.544434" y="80.9553" width="26.3607" height="20.769" fill="white"/>
<path d="M12.6572 92.3607H10.4246V92.0494L11.6041 90.7389C11.7789 90.5407 11.899 90.38 11.9645 90.2568C12.0316 90.132 12.0652 90.0032 12.0652 89.8706C12.0652 89.6928 12.0113 89.5469 11.9037 89.433C11.796 89.3191 11.6525 89.2622 11.4731 89.2622C11.2578 89.2622 11.0901 89.3238 10.9699 89.447C10.8513 89.5687 10.7921 89.7388 10.7921 89.9572H10.3591C10.3591 89.6436 10.4597 89.3901 10.661 89.1966C10.8638 89.0032 11.1345 88.9064 11.4731 88.9064C11.7898 88.9064 12.0402 88.9899 12.2243 89.1568C12.4084 89.3222 12.5004 89.543 12.5004 89.8191C12.5004 90.1546 12.2867 90.554 11.8592 91.0173L10.9465 92.0073H12.6572V92.3607ZM14.5388 92.3607H14.1035V89.4751L13.2306 89.7957V89.4026L14.4709 88.9369H14.5388V92.3607Z" fill="#172755"/>
<rect x="26.905" y="80.9553" width="26.3607" height="20.769" fill="white"/>
<path d="M39.0178 92.3607H36.7852V92.0494L37.9647 90.7389C38.1395 90.5407 38.2596 90.38 38.3251 90.2568C38.3922 90.132 38.4258 90.0032 38.4258 89.8706C38.4258 89.6928 38.3719 89.5469 38.2643 89.433C38.1566 89.3191 38.0131 89.2622 37.8337 89.2622C37.6184 89.2622 37.4506 89.3238 37.3305 89.447C37.2119 89.5687 37.1527 89.7388 37.1527 89.9572H36.7197C36.7197 89.6436 36.8203 89.3901 37.0216 89.1966C37.2244 89.0032 37.4951 88.9064 37.8337 88.9064C38.1504 88.9064 38.4008 88.9899 38.5849 89.1568C38.769 89.3222 38.861 89.543 38.861 89.8191C38.861 90.1546 38.6473 90.554 38.2198 91.0173L37.3071 92.0073H39.0178V92.3607ZM41.7091 92.3607H39.4765V92.0494L40.656 90.7389C40.8308 90.5407 40.9509 90.38 41.0164 90.2568C41.0835 90.132 41.1171 90.0032 41.1171 89.8706C41.1171 89.6928 41.0632 89.5469 40.9556 89.433C40.8479 89.3191 40.7044 89.2622 40.525 89.2622C40.3097 89.2622 40.1419 89.3238 40.0218 89.447C39.9032 89.5687 39.844 89.7388 39.844 89.9572H39.411C39.411 89.6436 39.5116 89.3901 39.7129 89.1966C39.9157 89.0032 40.1864 88.9064 40.525 88.9064C40.8417 88.9064 41.0921 88.9899 41.2762 89.1568C41.4603 89.3222 41.5523 89.543 41.5523 89.8191C41.5523 90.1546 41.3386 90.554 40.9111 91.0173L39.9984 92.0073H41.7091V92.3607Z" fill="#172755"/>
<rect x="53.2656" y="80.9553" width="26.3607" height="20.769" fill="white"/>
<path d="M65.3784 92.3607H63.1458V92.0494L64.3253 90.7389C64.5001 90.5407 64.6202 90.38 64.6857 90.2568C64.7528 90.132 64.7864 90.0032 64.7864 89.8706C64.7864 89.6928 64.7325 89.5469 64.6249 89.433C64.5172 89.3191 64.3737 89.2622 64.1943 89.2622C63.979 89.2622 63.8112 89.3238 63.6911 89.447C63.5725 89.5687 63.5133 89.7388 63.5133 89.9572H63.0803C63.0803 89.6436 63.1809 89.3901 63.3822 89.1966C63.585 89.0032 63.8557 88.9064 64.1943 88.9064C64.511 88.9064 64.7614 88.9899 64.9455 89.1568C65.1296 89.3222 65.2216 89.543 65.2216 89.8191C65.2216 90.1546 65.0079 90.554 64.5804 91.0173L63.6677 92.0073H65.3784V92.3607ZM66.4667 90.4463H66.792C66.9963 90.4432 67.157 90.3894 67.274 90.2848C67.3911 90.1803 67.4496 90.0391 67.4496 89.8613C67.4496 89.4619 67.2506 89.2622 66.8528 89.2622C66.6656 89.2622 66.5158 89.316 66.4035 89.4236C66.2927 89.5297 66.2373 89.6709 66.2373 89.8472H65.8044C65.8044 89.5773 65.9027 89.3534 66.0992 89.1756C66.2974 88.9961 66.5486 88.9064 66.8528 88.9064C67.1742 88.9064 67.4262 88.9915 67.6087 89.1615C67.7912 89.3316 67.8825 89.5679 67.8825 89.8706C67.8825 90.0188 67.8341 90.1624 67.7374 90.3012C67.6422 90.4401 67.512 90.5438 67.3466 90.6125C67.5338 90.6718 67.6781 90.7701 67.7795 90.9074C67.8825 91.0447 67.934 91.2124 67.934 91.4105C67.934 91.7163 67.8341 91.9589 67.6344 92.1383C67.4347 92.3178 67.175 92.4075 66.8551 92.4075C66.5353 92.4075 66.2748 92.3209 66.0735 92.1477C65.8738 91.9745 65.7739 91.7459 65.7739 91.462H66.2092C66.2092 91.6414 66.2677 91.785 66.3847 91.8926C66.5018 92.0003 66.6586 92.0541 66.8551 92.0541C67.0642 92.0541 67.2241 91.9995 67.3349 91.8903C67.4457 91.7811 67.501 91.6243 67.501 91.4199C67.501 91.2217 67.4402 91.0696 67.3185 90.9635C67.1968 90.8574 67.0213 90.8028 66.792 90.7997H66.4667V90.4463Z" fill="#172755"/>
<rect x="79.6265" y="80.9553" width="26.3607" height="20.769" fill="white"/>
<path d="M91.7393 92.3607H89.5067V92.0494L90.6862 90.7389C90.8609 90.5407 90.981 90.38 91.0466 90.2568C91.1136 90.132 91.1472 90.0032 91.1472 89.8706C91.1472 89.6928 91.0934 89.5469 90.9857 89.433C90.8781 89.3191 90.7345 89.2622 90.5551 89.2622C90.3398 89.2622 90.1721 89.3238 90.052 89.447C89.9334 89.5687 89.8741 89.7388 89.8741 89.9572H89.4411C89.4411 89.6436 89.5418 89.3901 89.743 89.1966C89.9459 89.0032 90.2165 88.9064 90.5551 88.9064C90.8718 88.9064 91.1222 88.9899 91.3063 89.1568C91.4904 89.3222 91.5825 89.543 91.5825 89.8191C91.5825 90.1546 91.3687 90.554 90.9412 91.0173L90.0285 92.0073H91.7393V92.3607ZM94.0257 91.2163H94.4984V91.5696H94.0257V92.3607H93.5904V91.5696H92.0388V91.3146L93.5647 88.9532H94.0257V91.2163ZM92.5303 91.2163H93.5904V89.5453L93.5389 89.6389L92.5303 91.2163Z" fill="#172755"/>
<rect x="105.987" y="80.9553" width="26.3607" height="20.769" fill="white"/>
<path d="M118.1 92.3607H115.867V92.0494L117.047 90.7389C117.221 90.5407 117.342 90.38 117.407 90.2568C117.474 90.132 117.508 90.0032 117.508 89.8706C117.508 89.6928 117.454 89.5469 117.346 89.433C117.239 89.3191 117.095 89.2622 116.916 89.2622C116.7 89.2622 116.533 89.3238 116.413 89.447C116.294 89.5687 116.235 89.7388 116.235 89.9572H115.802C115.802 89.6436 115.902 89.3901 116.104 89.1966C116.306 89.0032 116.577 88.9064 116.916 88.9064C117.232 88.9064 117.483 88.9899 117.667 89.1568C117.851 89.3222 117.943 89.543 117.943 89.8191C117.943 90.1546 117.729 90.554 117.302 91.0173L116.389 92.0073H118.1V92.3607ZM118.757 90.6523L118.931 88.9532H120.676V89.3534H119.298L119.195 90.2825C119.362 90.1842 119.552 90.1351 119.764 90.1351C120.074 90.1351 120.321 90.238 120.503 90.444C120.686 90.6484 120.777 90.9253 120.777 91.2748C120.777 91.6258 120.682 91.9027 120.492 92.1056C120.303 92.3068 120.038 92.4075 119.698 92.4075C119.397 92.4075 119.151 92.324 118.961 92.1571C118.771 91.9901 118.662 91.7592 118.636 91.4643H119.045C119.072 91.6594 119.141 91.8068 119.254 91.9066C119.366 92.0049 119.514 92.0541 119.698 92.0541C119.9 92.0541 120.057 91.9854 120.171 91.8481C120.286 91.7108 120.344 91.5213 120.344 91.2795C120.344 91.0517 120.282 90.8691 120.157 90.7318C120.034 90.593 119.869 90.5236 119.663 90.5236C119.474 90.5236 119.326 90.5649 119.219 90.6476L119.104 90.7412L118.757 90.6523Z" fill="#172755"/>
<rect x="0.544434" y="101.724" width="26.3607" height="20.769" fill="white"/>
<path d="M12.6572 113.13H10.4246V112.818L11.6041 111.508C11.7789 111.31 11.899 111.149 11.9645 111.026C12.0316 110.901 12.0652 110.772 12.0652 110.64C12.0652 110.462 12.0113 110.316 11.9037 110.202C11.796 110.088 11.6525 110.031 11.4731 110.031C11.2578 110.031 11.0901 110.093 10.9699 110.216C10.8513 110.338 10.7921 110.508 10.7921 110.726H10.3591C10.3591 110.413 10.4597 110.159 10.661 109.966C10.8638 109.772 11.1345 109.675 11.4731 109.675C11.7898 109.675 12.0402 109.759 12.2243 109.926C12.4084 110.091 12.5004 110.312 12.5004 110.588C12.5004 110.924 12.2867 111.323 11.8592 111.786L10.9465 112.776H12.6572V113.13ZM15.1824 110.612C15.1824 110.782 15.1371 110.933 15.0466 111.066C14.9577 111.198 14.8368 111.302 14.6839 111.377C14.8618 111.453 15.0022 111.565 15.1052 111.711C15.2097 111.858 15.262 112.024 15.262 112.21C15.262 112.505 15.1621 112.74 14.9624 112.914C14.7643 113.089 14.5029 113.176 14.1784 113.176C13.8508 113.176 13.5879 113.089 13.3897 112.914C13.1932 112.738 13.0949 112.503 13.0949 112.21C13.0949 112.026 13.1448 111.86 13.2446 111.711C13.3461 111.563 13.4857 111.451 13.6636 111.374C13.5122 111.3 13.3929 111.196 13.3055 111.063C13.2181 110.931 13.1744 110.78 13.1744 110.612C13.1744 110.324 13.2665 110.097 13.4506 109.928C13.6347 109.76 13.8773 109.675 14.1784 109.675C14.478 109.675 14.7198 109.76 14.9039 109.928C15.0896 110.097 15.1824 110.324 15.1824 110.612ZM14.829 112.201C14.829 112.01 14.7682 111.855 14.6465 111.735C14.5263 111.615 14.3688 111.555 14.1737 111.555C13.9787 111.555 13.8219 111.614 13.7033 111.733C13.5863 111.851 13.5278 112.007 13.5278 112.201C13.5278 112.394 13.5848 112.546 13.6987 112.657C13.8141 112.768 13.974 112.823 14.1784 112.823C14.3812 112.823 14.5404 112.768 14.6558 112.657C14.7713 112.545 14.829 112.392 14.829 112.201ZM14.1784 110.031C14.0084 110.031 13.8703 110.084 13.7642 110.19C13.6597 110.295 13.6074 110.438 13.6074 110.619C13.6074 110.792 13.6589 110.932 13.7618 111.04C13.8664 111.146 14.0052 111.199 14.1784 111.199C14.3516 111.199 14.4897 111.146 14.5926 111.04C14.6972 110.932 14.7494 110.792 14.7494 110.619C14.7494 110.445 14.6956 110.304 14.588 110.195C14.4803 110.086 14.3438 110.031 14.1784 110.031Z" fill="#172755"/>
<rect x="26.905" y="101.724" width="26.3607" height="20.769" fill="white"/>
<path d="M39.0178 113.13H36.7852V112.818L37.9647 111.508C38.1395 111.31 38.2596 111.149 38.3251 111.026C38.3922 110.901 38.4258 110.772 38.4258 110.64C38.4258 110.462 38.3719 110.316 38.2643 110.202C38.1566 110.088 38.0131 110.031 37.8337 110.031C37.6184 110.031 37.4506 110.093 37.3305 110.216C37.2119 110.338 37.1527 110.508 37.1527 110.726H36.7197C36.7197 110.413 36.8203 110.159 37.0216 109.966C37.2244 109.772 37.4951 109.675 37.8337 109.675C38.1504 109.675 38.4008 109.759 38.5849 109.926C38.769 110.091 38.861 110.312 38.861 110.588C38.861 110.924 38.6473 111.323 38.2198 111.786L37.3071 112.776H39.0178V113.13ZM41.1358 111.632C41.0453 111.74 40.9369 111.826 40.8105 111.892C40.6857 111.957 40.5484 111.99 40.3986 111.99C40.202 111.99 40.0304 111.942 39.8837 111.845C39.7386 111.748 39.6263 111.612 39.5467 111.438C39.4672 111.261 39.4274 111.067 39.4274 110.855C39.4274 110.627 39.4703 110.422 39.5561 110.239C39.6435 110.057 39.7667 109.917 39.9259 109.821C40.085 109.724 40.2707 109.675 40.4828 109.675C40.8198 109.675 41.0851 109.802 41.2785 110.055C41.4735 110.306 41.5711 110.649 41.5711 111.084V111.211C41.5711 111.874 41.44 112.358 41.1779 112.664C40.9158 112.968 40.5203 113.124 39.9914 113.132H39.9071V112.767H39.9984C40.3557 112.761 40.6303 112.668 40.8222 112.488C41.0141 112.307 41.1186 112.022 41.1358 111.632ZM40.4688 111.632C40.6139 111.632 40.7473 111.587 40.869 111.498C40.9922 111.41 41.0819 111.3 41.1381 111.169V110.995C41.1381 110.711 41.0765 110.48 40.9532 110.303C40.83 110.125 40.674 110.036 40.4852 110.036C40.2948 110.036 40.1419 110.109 40.0265 110.256C39.911 110.401 39.8533 110.593 39.8533 110.832C39.8533 111.064 39.9087 111.256 40.0195 111.407C40.1318 111.557 40.2816 111.632 40.4688 111.632Z" fill="#172755"/>
<rect x="53.2656" y="101.724" width="26.3607" height="20.769" fill="white"/>
<path d="M63.7754 111.215H64.1007C64.305 111.212 64.4657 111.158 64.5827 111.054C64.6998 110.949 64.7583 110.808 64.7583 110.63C64.7583 110.231 64.5593 110.031 64.1615 110.031C63.9743 110.031 63.8245 110.085 63.7122 110.193C63.6014 110.299 63.546 110.44 63.546 110.616H63.1131C63.1131 110.346 63.2114 110.122 63.4079 109.945C63.6061 109.765 63.8573 109.675 64.1615 109.675C64.4829 109.675 64.7349 109.76 64.9174 109.931C65.0999 110.101 65.1912 110.337 65.1912 110.64C65.1912 110.788 65.1429 110.931 65.0461 111.07C64.9509 111.209 64.8207 111.313 64.6553 111.381C64.8425 111.441 64.9868 111.539 65.0882 111.676C65.1912 111.814 65.2427 111.981 65.2427 112.179C65.2427 112.485 65.1429 112.728 64.9431 112.907C64.7434 113.087 64.4837 113.176 64.1638 113.176C63.844 113.176 63.5835 113.09 63.3822 112.917C63.1825 112.743 63.0826 112.515 63.0826 112.231H63.5179C63.5179 112.41 63.5764 112.554 63.6935 112.662C63.8105 112.769 63.9673 112.823 64.1638 112.823C64.3729 112.823 64.5328 112.768 64.6436 112.659C64.7544 112.55 64.8098 112.393 64.8098 112.189C64.8098 111.991 64.7489 111.839 64.6272 111.733C64.5055 111.626 64.33 111.572 64.1007 111.569H63.7754V111.215ZM67.9738 111.676C67.9738 112.183 67.8872 112.56 67.714 112.807C67.5408 113.053 67.2701 113.176 66.9019 113.176C66.5384 113.176 66.2693 113.056 66.0946 112.816C65.9198 112.574 65.8293 112.214 65.8231 111.735V111.157C65.8231 110.656 65.9097 110.284 66.0829 110.04C66.256 109.797 66.5275 109.675 66.8973 109.675C67.2639 109.675 67.5338 109.793 67.707 110.029C67.8802 110.263 67.9691 110.625 67.9738 111.115V111.676ZM67.5408 111.084C67.5408 110.718 67.4893 110.451 67.3864 110.284C67.2834 110.115 67.1204 110.031 66.8973 110.031C66.6757 110.031 66.5142 110.115 66.4128 110.282C66.3114 110.448 66.2592 110.705 66.256 111.051V111.744C66.256 112.112 66.3091 112.385 66.4152 112.561C66.5228 112.736 66.6851 112.823 66.9019 112.823C67.1157 112.823 67.274 112.74 67.377 112.575C67.4815 112.41 67.5362 112.149 67.5408 111.793V111.084Z" fill="#172755"/>
<rect x="79.6265" y="101.724" width="26.3607" height="20.769" fill="white"/>
<path d="M90.1362 111.215H90.4615C90.6659 111.212 90.8266 111.158 90.9436 111.054C91.0606 110.949 91.1191 110.808 91.1191 110.63C91.1191 110.231 90.9202 110.031 90.5223 110.031C90.3351 110.031 90.1853 110.085 90.073 110.193C89.9622 110.299 89.9069 110.44 89.9069 110.616H89.4739C89.4739 110.346 89.5722 110.122 89.7688 109.945C89.9669 109.765 90.2181 109.675 90.5223 109.675C90.8437 109.675 91.0957 109.76 91.2782 109.931C91.4608 110.101 91.5521 110.337 91.5521 110.64C91.5521 110.788 91.5037 110.931 91.407 111.07C91.3118 111.209 91.1815 111.313 91.0161 111.381C91.2034 111.441 91.3477 111.539 91.4491 111.676C91.5521 111.814 91.6035 111.981 91.6035 112.179C91.6035 112.485 91.5037 112.728 91.304 112.907C91.1043 113.087 90.8445 113.176 90.5247 113.176C90.2048 113.176 89.9443 113.09 89.743 112.917C89.5433 112.743 89.4435 112.515 89.4435 112.231H89.8788C89.8788 112.41 89.9373 112.554 90.0543 112.662C90.1713 112.769 90.3281 112.823 90.5247 112.823C90.7337 112.823 90.8937 112.768 91.0044 112.659C91.1152 112.55 91.1706 112.393 91.1706 112.189C91.1706 111.991 91.1097 111.839 90.9881 111.733C90.8664 111.626 90.6908 111.572 90.4615 111.569H90.1362V111.215ZM93.6208 113.13H93.1856V110.244L92.3126 110.565V110.172L93.553 109.706H93.6208V113.13Z" fill="#172755"/>
<rect x="105.987" y="101.724" width="26.3607" height="20.769" fill="white"/>
<path d="M8.45365 2.2677L9.56761 5.04792L10.6816 2.2677H11.2643V5.67511H10.815V4.34818L10.8571 2.91595L9.73845 5.67511H9.39443L8.27813 2.92297L8.3226 4.34818V5.67511H7.87327V2.2677H8.45365ZM14.6787 4.08139C14.6787 4.41527 14.6226 4.70702 14.5102 4.95665C14.3979 5.20472 14.2388 5.39428 14.0328 5.52533C13.8269 5.65639 13.5866 5.72192 13.312 5.72192C13.0437 5.72192 12.8057 5.65639 12.5982 5.52533C12.3907 5.39272 12.2293 5.20472 12.1138 4.96133C11.9999 4.71638 11.9414 4.43321 11.9383 4.11182V3.86609C11.9383 3.53846 11.9952 3.24904 12.1091 2.99786C12.223 2.74667 12.3837 2.55477 12.5912 2.42215C12.8003 2.28798 13.039 2.22089 13.3073 2.22089C13.5804 2.22089 13.8206 2.2872 14.0281 2.41981C14.2372 2.55087 14.3979 2.74199 14.5102 2.99318C14.6226 3.2428 14.6787 3.53377 14.6787 3.86609V4.08139ZM14.2317 3.86141C14.2317 3.45733 14.1506 3.14763 13.9884 2.93233C13.8261 2.71546 13.5991 2.60703 13.3073 2.60703C13.0234 2.60703 12.7995 2.71546 12.6357 2.93233C12.4734 3.14763 12.39 3.44719 12.3853 3.83099V4.08139C12.3853 4.473 12.4672 4.78113 12.631 5.0058C12.7964 5.2289 13.0234 5.34045 13.312 5.34045C13.6022 5.34045 13.8269 5.23514 13.986 5.02452C14.1452 4.81234 14.2271 4.50888 14.2317 4.11416V3.86141ZM17.9715 5.67511H17.5198L15.8044 3.04934V5.67511H15.3527V2.2677H15.8044L17.5245 4.90517V2.2677H17.9715V5.67511Z" fill="#8794BA"/>
<path d="M37.6905 2.63746H36.5952V5.67511H36.1482V2.63746H35.0553V2.2677H37.6905V2.63746ZM40.5947 2.2677V4.58455C40.5932 4.90595 40.4917 5.16883 40.2905 5.37322C40.0908 5.5776 39.8193 5.69227 39.4761 5.71723L39.3567 5.72192C38.9838 5.72192 38.6866 5.62128 38.4651 5.42002C38.2435 5.21876 38.1312 4.94183 38.1281 4.58923V2.2677H38.5727V4.57519C38.5727 4.8217 38.6406 5.0136 38.7763 5.15089C38.9121 5.28663 39.1055 5.35449 39.3567 5.35449C39.611 5.35449 39.8053 5.28663 39.9394 5.15089C40.0752 5.01516 40.143 4.82404 40.143 4.57753V2.2677H40.5947ZM43.2298 4.10012H41.7531V5.30769H43.4685V5.67511H41.3038V2.2677H43.4451V2.63746H41.7531V3.7327H43.2298V4.10012Z" fill="#8794BA"/>
<path d="M61.7157 4.60093L61.7812 5.05026L61.8772 4.6454L62.5512 2.2677H62.9303L63.5879 4.6454L63.6815 5.05728L63.7541 4.59859L64.283 2.2677H64.7346L63.9085 5.67511H63.499L62.7969 3.1921L62.7431 2.93233L62.6892 3.1921L61.9614 5.67511H61.5519L60.7281 2.2677H61.1774L61.7157 4.60093ZM67.1615 4.10012H65.6848V5.30769H67.4002V5.67511H65.2354V2.2677H67.3768V2.63746H65.6848V3.7327H67.1615V4.10012ZM67.9595 5.67511V2.2677H68.9213C69.2178 2.2677 69.4799 2.33322 69.7077 2.46428C69.9355 2.59533 70.111 2.78177 70.2342 3.0236C70.359 3.26543 70.4222 3.54314 70.4238 3.85673V4.07437C70.4238 4.39577 70.3614 4.67738 70.2366 4.91921C70.1133 5.16103 69.9362 5.34669 69.7053 5.47619C69.476 5.60568 69.2084 5.67199 68.9026 5.67511H67.9595ZM68.4088 2.63746V5.30769H68.8816C69.2279 5.30769 69.4971 5.20004 69.689 4.98473C69.8824 4.76943 69.9791 4.46286 69.9791 4.06501V3.86609C69.9791 3.47917 69.8879 3.17884 69.7053 2.96509C69.5244 2.74979 69.2669 2.64058 68.933 2.63746H68.4088Z" fill="#8794BA"/>
<path d="M90.0653 2.63746H88.97V5.67511H88.523V2.63746H87.4301V2.2677H90.0653V2.63746ZM93.1895 5.67511H92.7379V4.10012H91.0201V5.67511H90.5708V2.2677H91.0201V3.7327H92.7379V2.2677H93.1895V5.67511ZM96.3863 2.2677V4.58455C96.3848 4.90595 96.2833 5.16883 96.0821 5.37322C95.8824 5.5776 95.6109 5.69227 95.2677 5.71723L95.1483 5.72192C94.7754 5.72192 94.4782 5.62128 94.2567 5.42002C94.0351 5.21876 93.9228 4.94183 93.9197 4.58923V2.2677H94.3643V4.57519C94.3643 4.8217 94.4322 5.0136 94.5679 5.15089C94.7037 5.28663 94.8971 5.35449 95.1483 5.35449C95.4026 5.35449 95.5969 5.28663 95.731 5.15089C95.8668 5.01516 95.9346 4.82404 95.9346 4.57753V2.2677H96.3863Z" fill="#8794BA"/>
<path d="M117.189 4.17032H115.759V5.67511H115.31V2.2677H117.421V2.63746H115.759V3.8029H117.189V4.17032ZM119.209 4.2967H118.408V5.67511H117.957V2.2677H119.085C119.468 2.2677 119.763 2.35507 119.969 2.5298C120.177 2.70454 120.281 2.95885 120.281 3.29273C120.281 3.50491 120.223 3.68979 120.107 3.84737C119.993 4.00495 119.834 4.12274 119.63 4.20075L120.43 5.64703V5.67511H119.948L119.209 4.2967ZM118.408 3.92928H119.099C119.322 3.92928 119.499 3.87155 119.63 3.7561C119.763 3.64065 119.829 3.48619 119.829 3.29273C119.829 3.0821 119.766 2.92063 119.639 2.80829C119.515 2.69596 119.334 2.63902 119.096 2.63746H118.408V3.92928ZM121.395 5.67511H120.945V2.2677H121.395V5.67511Z" fill="#8794BA"/>
</svg>
