<svg width="240" height="164" viewBox="0 0 240 164" fill="none" xmlns="http://www.w3.org/2000/svg">
<rect x="0.351562" y="0.162476" width="239.642" height="163.756" rx="11.9821" fill="white"/>
<path d="M44.6915 56.11L88.2206 30.9784L131.75 56.1099V106.373L88.2206 131.505L44.6915 106.373V56.11Z" stroke="#EEEEF7" stroke-width="0.798808"/>
<path d="M59.9108 64.8968L88.2206 48.5521L116.53 64.8968V97.5861L88.2206 113.931L59.9108 97.5861V64.8968Z" stroke="#EEEEF7" stroke-width="0.798808"/>
<path d="M65.2201 68.0673L88.3657 49.0062L121.003 61.8282L123.34 100.973L88.3585 121.768L62.6894 94.9322L65.2201 68.0673Z" stroke="#0088F0" stroke-width="1.59762"/>
<path d="M54.8789 62.2267L87.9656 43.952L106.289 71.2428L118.352 98.8152H88.33L67.3676 92.9591L54.8789 62.2267Z" stroke="#EF2A82" stroke-width="1.59762"/>
<path d="M78.5891 75.6808L88.2207 70.12L97.8522 75.6808V86.8023L88.2207 92.363L78.5891 86.8023V75.6808Z" stroke="#EEEEF7" stroke-width="0.798808"/>
<path d="M184.281 54.2035H185.349C186.021 54.1932 186.549 54.0164 186.933 53.6729C187.318 53.3294 187.51 52.8655 187.51 52.2811C187.51 50.9688 186.857 50.3126 185.549 50.3126C184.934 50.3126 184.442 50.4895 184.073 50.8432C183.709 51.1918 183.527 51.6557 183.527 52.235H182.105C182.105 51.3481 182.427 50.6125 183.073 50.0281C183.724 49.4386 184.55 49.1438 185.549 49.1438C186.605 49.1438 187.433 49.4232 188.033 49.982C188.633 50.5407 188.933 51.3174 188.933 52.3119C188.933 52.7989 188.774 53.2705 188.456 53.7267C188.143 54.183 187.715 54.5239 187.172 54.7494C187.787 54.9442 188.261 55.2672 188.594 55.7183C188.933 56.1694 189.102 56.7205 189.102 57.3715C189.102 58.3763 188.774 59.1734 188.118 59.7629C187.461 60.3524 186.608 60.6472 185.557 60.6472C184.506 60.6472 183.65 60.3627 182.989 59.7937C182.333 59.2247 182.005 58.4737 182.005 57.5407H183.435C183.435 58.1302 183.627 58.6018 184.011 58.9555C184.396 59.3092 184.911 59.4861 185.557 59.4861C186.244 59.4861 186.769 59.3067 187.133 58.9478C187.497 58.589 187.679 58.0738 187.679 57.4023C187.679 56.7512 187.479 56.2514 187.08 55.9028C186.68 55.5542 186.103 55.3748 185.349 55.3646H184.281V54.2035ZM197.06 56.7333H198.614V57.8944H197.06V60.4934H195.63V57.8944H190.532V57.0562L195.546 49.2976H197.06V56.7333ZM192.147 56.7333H195.63V51.243L195.461 51.5506L192.147 56.7333ZM199.775 51.4507C199.775 50.7791 199.988 50.2255 200.413 49.7897C200.844 49.354 201.395 49.1361 202.066 49.1361C202.748 49.1361 203.299 49.3566 203.719 49.7974C204.145 50.2332 204.358 50.7996 204.358 51.4968V52.0427C204.358 52.7194 204.142 53.273 203.712 53.7037C203.286 54.1291 202.743 54.3419 202.082 54.3419C201.415 54.3419 200.864 54.1291 200.428 53.7037C199.993 53.273 199.775 52.7015 199.775 51.9889V51.4507ZM200.836 52.0427C200.836 52.4426 200.949 52.7732 201.174 53.0347C201.4 53.291 201.702 53.4191 202.082 53.4191C202.446 53.4191 202.738 53.2936 202.958 53.0424C203.184 52.7912 203.297 52.4477 203.297 52.012V51.4507C203.297 51.0508 203.186 50.7202 202.966 50.4587C202.745 50.1973 202.446 50.0666 202.066 50.0666C201.687 50.0666 201.387 50.1973 201.167 50.4587C200.946 50.7202 200.836 51.0611 200.836 51.4814V52.0427ZM205.227 57.7483C205.227 57.0767 205.439 56.5257 205.865 56.0951C206.295 55.6593 206.846 55.4415 207.518 55.4415C208.19 55.4415 208.741 55.6568 209.171 56.0874C209.602 56.518 209.817 57.0896 209.817 57.8021V58.3481C209.817 59.0196 209.602 59.5732 209.171 60.009C208.746 60.4396 208.2 60.6549 207.533 60.6549C206.867 60.6549 206.316 60.4421 205.88 60.0167C205.444 59.5861 205.227 59.0145 205.227 58.3019V57.7483ZM206.288 58.3481C206.288 58.753 206.4 59.0862 206.626 59.3477C206.852 59.604 207.154 59.7322 207.533 59.7322C207.902 59.7322 208.197 59.6066 208.418 59.3554C208.638 59.0991 208.748 58.753 208.748 58.3173V57.7483C208.748 57.3433 208.636 57.0127 208.41 56.7564C208.19 56.5 207.892 56.3719 207.518 56.3719C207.154 56.3719 206.857 56.5 206.626 56.7564C206.4 57.0075 206.288 57.3484 206.288 57.779V58.3481ZM202.405 59.6476L201.597 59.1401L207.064 50.3895L207.872 50.897L202.405 59.6476Z" fill="#EF2A82"/>
<path d="M181.601 71.3312C181.601 70.9591 181.674 70.6244 181.819 70.3272C181.966 70.03 182.17 69.8006 182.43 69.6392C182.692 69.4777 182.99 69.3969 183.325 69.3969C183.842 69.3969 184.26 69.576 184.578 69.934C184.899 70.2921 185.059 70.7683 185.059 71.3628V71.4084C185.059 71.7781 184.988 72.1105 184.845 72.4053C184.704 72.6979 184.502 72.926 184.237 73.0899C183.975 73.2537 183.673 73.3356 183.332 73.3356C182.817 73.3356 182.399 73.1566 182.079 72.7985C181.76 72.4404 181.601 71.9665 181.601 71.3768V71.3312ZM182.254 71.4084C182.254 71.8296 182.351 72.1678 182.545 72.4229C182.742 72.678 183.004 72.8055 183.332 72.8055C183.662 72.8055 183.924 72.6768 184.118 72.4194C184.312 72.1596 184.409 71.7969 184.409 71.3312C184.409 70.9146 184.31 70.5776 184.111 70.3202C183.915 70.0604 183.652 69.9305 183.325 69.9305C183.004 69.9305 182.746 70.0581 182.549 70.3131C182.352 70.5682 182.254 70.9333 182.254 71.4084ZM189.082 71.4084C189.082 71.9864 188.95 72.4521 188.685 72.8055C188.421 73.1589 188.063 73.3356 187.611 73.3356C187.15 73.3356 186.787 73.1893 186.523 72.8968V74.7257H185.873V69.4671H186.467L186.498 69.8884C186.763 69.5608 187.13 69.3969 187.6 69.3969C188.057 69.3969 188.417 69.5689 188.682 69.913C188.948 70.257 189.082 70.7356 189.082 71.3487V71.4084ZM188.432 71.3347C188.432 70.9064 188.341 70.5682 188.159 70.3202C187.976 70.0721 187.726 69.9481 187.407 69.9481C187.014 69.9481 186.719 70.1224 186.523 70.4711V72.286C186.717 72.6323 187.014 72.8055 187.414 72.8055C187.726 72.8055 187.973 72.6827 188.155 72.4369C188.34 72.1889 188.432 71.8214 188.432 71.3347ZM190.791 68.5474V69.4671H191.5V69.9691H190.791V72.3246C190.791 72.4767 190.823 72.5914 190.886 72.6686C190.949 72.7435 191.057 72.7809 191.209 72.7809C191.284 72.7809 191.387 72.7669 191.518 72.7388V73.2654C191.347 73.3122 191.181 73.3356 191.02 73.3356C190.729 73.3356 190.511 73.2478 190.363 73.0723C190.216 72.8968 190.142 72.6476 190.142 72.3246V69.9691H189.45V69.4671H190.142V68.5474H190.791ZM192.968 73.2654H192.318V69.4671H192.968V73.2654ZM192.266 68.4597C192.266 68.3544 192.297 68.2654 192.361 68.1929C192.426 68.1203 192.522 68.0841 192.648 68.0841C192.775 68.0841 192.871 68.1203 192.936 68.1929C193.002 68.2654 193.035 68.3544 193.035 68.4597C193.035 68.565 193.002 68.6527 192.936 68.7229C192.871 68.7931 192.775 68.8283 192.648 68.8283C192.522 68.8283 192.426 68.7931 192.361 68.7229C192.297 68.6527 192.266 68.565 192.266 68.4597ZM193.838 71.3312C193.838 70.9591 193.911 70.6244 194.056 70.3272C194.203 70.03 194.407 69.8006 194.667 69.6392C194.929 69.4777 195.227 69.3969 195.562 69.3969C196.079 69.3969 196.497 69.576 196.815 69.934C197.136 70.2921 197.296 70.7683 197.296 71.3628V71.4084C197.296 71.7781 197.225 72.1105 197.082 72.4053C196.942 72.6979 196.739 72.926 196.475 73.0899C196.213 73.2537 195.911 73.3356 195.569 73.3356C195.054 73.3356 194.636 73.1566 194.316 72.7985C193.998 72.4404 193.838 71.9665 193.838 71.3768V71.3312ZM194.491 71.4084C194.491 71.8296 194.588 72.1678 194.783 72.4229C194.979 72.678 195.241 72.8055 195.569 72.8055C195.899 72.8055 196.161 72.6768 196.355 72.4194C196.55 72.1596 196.647 71.7969 196.647 71.3312C196.647 70.9146 196.547 70.5776 196.348 70.3202C196.152 70.0604 195.89 69.9305 195.562 69.9305C195.241 69.9305 194.983 70.0581 194.786 70.3131C194.59 70.5682 194.491 70.9333 194.491 71.4084ZM198.725 69.4671L198.746 69.9446C199.036 69.5795 199.415 69.3969 199.883 69.3969C200.686 69.3969 201.091 69.8498 201.098 70.7555V73.2654H200.448V70.7519C200.446 70.4781 200.383 70.2757 200.259 70.1446C200.137 70.0136 199.946 69.9481 199.687 69.9481C199.476 69.9481 199.291 70.0042 199.132 70.1166C198.973 70.2289 198.849 70.3763 198.76 70.5589V73.2654H198.111V69.4671H198.725ZM205.928 73.2654H205.275V68.9371L203.966 69.418V68.8283L205.826 68.1297H205.928V73.2654Z" fill="#8794BA"/>
<path d="M189.548 105.227H182.212V104.204L186.088 99.8978C186.662 99.2468 187.056 98.7188 187.272 98.3138C187.492 97.9037 187.602 97.4808 187.602 97.045C187.602 96.4606 187.426 95.9813 187.072 95.6071C186.718 95.2329 186.247 95.0458 185.657 95.0458C184.95 95.0458 184.399 95.2483 184.004 95.6532C183.614 96.0531 183.419 96.6119 183.419 97.3295H181.997C181.997 96.2992 182.327 95.4661 182.989 94.8305C183.655 94.1948 184.545 93.877 185.657 93.877C186.698 93.877 187.52 94.1512 188.125 94.6998C188.73 95.2431 189.033 95.9685 189.033 96.8759C189.033 97.978 188.33 99.2903 186.926 100.813L183.927 104.065H189.548V105.227ZM196.507 100.305C196.209 100.659 195.853 100.944 195.438 101.159C195.028 101.374 194.577 101.482 194.085 101.482C193.439 101.482 192.875 101.323 192.393 101.005C191.916 100.687 191.547 100.241 191.286 99.6671C191.024 99.0878 190.894 98.4496 190.894 97.7524C190.894 97.004 191.034 96.3299 191.316 95.7301C191.603 95.1304 192.008 94.6716 192.531 94.3537C193.054 94.0359 193.664 93.877 194.361 93.877C195.469 93.877 196.34 94.2922 196.976 95.1227C197.617 95.948 197.937 97.0758 197.937 98.506V98.9212C197.937 101.1 197.506 102.692 196.645 103.696C195.784 104.696 194.484 105.209 192.747 105.234H192.47V104.035H192.77C193.944 104.014 194.846 103.709 195.476 103.12C196.107 102.525 196.45 101.587 196.507 100.305ZM194.315 100.305C194.792 100.305 195.23 100.159 195.63 99.867C196.035 99.5748 196.33 99.2134 196.514 98.7828V98.2138C196.514 97.2808 196.312 96.5221 195.907 95.9377C195.502 95.3534 194.989 95.0612 194.369 95.0612C193.744 95.0612 193.241 95.3021 192.862 95.784C192.483 96.2607 192.293 96.8912 192.293 97.6756C192.293 98.4394 192.475 99.0699 192.839 99.5672C193.208 100.059 193.7 100.305 194.315 100.305ZM199.775 96.1838C199.775 95.5123 199.988 94.9586 200.413 94.5229C200.844 94.0872 201.395 93.8693 202.066 93.8693C202.748 93.8693 203.299 94.0897 203.719 94.5306C204.145 94.9663 204.358 95.5328 204.358 96.2299V96.7759C204.358 97.4526 204.142 98.0062 203.712 98.4368C203.286 98.8623 202.743 99.075 202.082 99.075C201.415 99.075 200.864 98.8623 200.428 98.4368C199.993 98.0062 199.775 97.4346 199.775 96.7221V96.1838ZM200.836 96.7759C200.836 97.1757 200.949 97.5064 201.174 97.7678C201.4 98.0241 201.702 98.1523 202.082 98.1523C202.446 98.1523 202.738 98.0267 202.958 97.7755C203.184 97.5243 203.297 97.1809 203.297 96.7451V96.1838C203.297 95.784 203.186 95.4533 202.966 95.1919C202.745 94.9304 202.446 94.7997 202.066 94.7997C201.687 94.7997 201.387 94.9304 201.167 95.1919C200.946 95.4533 200.836 95.7942 200.836 96.2146V96.7759ZM205.227 102.481C205.227 101.81 205.439 101.259 205.865 100.828C206.295 100.392 206.846 100.175 207.518 100.175C208.19 100.175 208.741 100.39 209.171 100.821C209.602 101.251 209.817 101.823 209.817 102.535V103.081C209.817 103.753 209.602 104.306 209.171 104.742C208.746 105.173 208.2 105.388 207.533 105.388C206.867 105.388 206.316 105.175 205.88 104.75C205.444 104.319 205.227 103.748 205.227 103.035V102.481ZM206.288 103.081C206.288 103.486 206.4 103.819 206.626 104.081C206.852 104.337 207.154 104.465 207.533 104.465C207.902 104.465 208.197 104.34 208.418 104.089C208.638 103.832 208.748 103.486 208.748 103.05V102.481C208.748 102.076 208.636 101.746 208.41 101.49C208.19 101.233 207.892 101.105 207.518 101.105C207.154 101.105 206.857 101.233 206.626 101.49C206.4 101.741 206.288 102.082 206.288 102.512V103.081ZM202.405 104.381L201.597 103.873L207.064 95.1227L207.872 95.6302L202.405 104.381Z" fill="#0088F0"/>
<path d="M181.601 116.064C181.601 115.692 181.674 115.358 181.819 115.06C181.966 114.763 182.17 114.534 182.43 114.372C182.692 114.211 182.99 114.13 183.325 114.13C183.842 114.13 184.26 114.309 184.578 114.667C184.899 115.025 185.059 115.501 185.059 116.096V116.142C185.059 116.511 184.988 116.844 184.845 117.138C184.704 117.431 184.502 117.659 184.237 117.823C183.975 117.987 183.673 118.069 183.332 118.069C182.817 118.069 182.399 117.89 182.079 117.532C181.76 117.174 181.601 116.7 181.601 116.11V116.064ZM182.254 116.142C182.254 116.563 182.351 116.901 182.545 117.156C182.742 117.411 183.004 117.539 183.332 117.539C183.662 117.539 183.924 117.41 184.118 117.153C184.312 116.893 184.409 116.53 184.409 116.064C184.409 115.648 184.31 115.311 184.111 115.053C183.915 114.794 183.652 114.664 183.325 114.664C183.004 114.664 182.746 114.791 182.549 115.046C182.352 115.301 182.254 115.666 182.254 116.142ZM189.082 116.142C189.082 116.72 188.95 117.185 188.685 117.539C188.421 117.892 188.063 118.069 187.611 118.069C187.15 118.069 186.787 117.922 186.523 117.63V119.459H185.873V114.2H186.467L186.498 114.622C186.763 114.294 187.13 114.13 187.6 114.13C188.057 114.13 188.417 114.302 188.682 114.646C188.948 114.99 189.082 115.469 189.082 116.082V116.142ZM188.432 116.068C188.432 115.64 188.341 115.301 188.159 115.053C187.976 114.805 187.726 114.681 187.407 114.681C187.014 114.681 186.719 114.856 186.523 115.204V117.019C186.717 117.365 187.014 117.539 187.414 117.539C187.726 117.539 187.973 117.416 188.155 117.17C188.34 116.922 188.432 116.555 188.432 116.068ZM190.791 113.281V114.2H191.5V114.702H190.791V117.058C190.791 117.21 190.823 117.325 190.886 117.402C190.949 117.477 191.057 117.514 191.209 117.514C191.284 117.514 191.387 117.5 191.518 117.472V117.999C191.347 118.045 191.181 118.069 191.02 118.069C190.729 118.069 190.511 117.981 190.363 117.805C190.216 117.63 190.142 117.381 190.142 117.058V114.702H189.45V114.2H190.142V113.281H190.791ZM192.968 117.999H192.318V114.2H192.968V117.999ZM192.266 113.193C192.266 113.088 192.297 112.999 192.361 112.926C192.426 112.853 192.522 112.817 192.648 112.817C192.775 112.817 192.871 112.853 192.936 112.926C193.002 112.999 193.035 113.088 193.035 113.193C193.035 113.298 193.002 113.386 192.936 113.456C192.871 113.526 192.775 113.561 192.648 113.561C192.522 113.561 192.426 113.526 192.361 113.456C192.297 113.386 192.266 113.298 192.266 113.193ZM193.838 116.064C193.838 115.692 193.911 115.358 194.056 115.06C194.203 114.763 194.407 114.534 194.667 114.372C194.929 114.211 195.227 114.13 195.562 114.13C196.079 114.13 196.497 114.309 196.815 114.667C197.136 115.025 197.296 115.501 197.296 116.096V116.142C197.296 116.511 197.225 116.844 197.082 117.138C196.942 117.431 196.739 117.659 196.475 117.823C196.213 117.987 195.911 118.069 195.569 118.069C195.054 118.069 194.636 117.89 194.316 117.532C193.998 117.174 193.838 116.7 193.838 116.11V116.064ZM194.491 116.142C194.491 116.563 194.588 116.901 194.783 117.156C194.979 117.411 195.241 117.539 195.569 117.539C195.899 117.539 196.161 117.41 196.355 117.153C196.55 116.893 196.647 116.53 196.647 116.064C196.647 115.648 196.547 115.311 196.348 115.053C196.152 114.794 195.89 114.664 195.562 114.664C195.241 114.664 194.983 114.791 194.786 115.046C194.59 115.301 194.491 115.666 194.491 116.142ZM198.725 114.2L198.746 114.678C199.036 114.313 199.415 114.13 199.883 114.13C200.686 114.13 201.091 114.583 201.098 115.489V117.999H200.448V115.485C200.446 115.211 200.383 115.009 200.259 114.878C200.137 114.747 199.946 114.681 199.687 114.681C199.476 114.681 199.291 114.737 199.132 114.85C198.973 114.962 198.849 115.109 198.76 115.292V117.999H198.111V114.2H198.725ZM207.143 117.999H203.794V117.532L205.563 115.566C205.825 115.269 206.005 115.028 206.104 114.843C206.204 114.655 206.255 114.462 206.255 114.263C206.255 113.997 206.174 113.778 206.012 113.607C205.851 113.436 205.636 113.351 205.366 113.351C205.044 113.351 204.792 113.443 204.612 113.628C204.434 113.811 204.345 114.066 204.345 114.393H203.696C203.696 113.923 203.846 113.543 204.148 113.252C204.453 112.962 204.859 112.817 205.366 112.817C205.842 112.817 206.217 112.942 206.493 113.193C206.769 113.441 206.908 113.772 206.908 114.186C206.908 114.689 206.587 115.289 205.946 115.984L204.577 117.468H207.143V117.999Z" fill="#8794BA"/>
<path d="M84.0814 25.5321H83.6461V22.6466L82.7732 22.9672V22.574L84.0135 22.1083H84.0814V25.5321ZM87.4163 23.014C87.4163 23.184 87.371 23.3354 87.2805 23.468C87.1916 23.6006 87.0707 23.7044 86.9178 23.7793C87.0957 23.8557 87.2361 23.9673 87.3391 24.1139C87.4436 24.2606 87.4959 24.4267 87.4959 24.6124C87.4959 24.9073 87.396 25.1421 87.1963 25.3168C86.9982 25.4915 86.7368 25.5789 86.4123 25.5789C86.0847 25.5789 85.8218 25.4915 85.6236 25.3168C85.4271 25.1405 85.3288 24.9057 85.3288 24.6124C85.3288 24.4283 85.3787 24.2621 85.4785 24.1139C85.58 23.9657 85.7196 23.8534 85.8975 23.7769C85.7461 23.702 85.6268 23.5983 85.5394 23.4657C85.452 23.333 85.4083 23.1825 85.4083 23.014C85.4083 22.7269 85.5004 22.4991 85.6845 22.3306C85.8686 22.1621 86.1112 22.0779 86.4123 22.0779C86.7119 22.0779 86.9537 22.1621 87.1378 22.3306C87.3235 22.4991 87.4163 22.7269 87.4163 23.014ZM87.0629 24.603C87.0629 24.4127 87.0021 24.2574 86.8804 24.1373C86.7602 24.0172 86.6027 23.9571 86.4076 23.9571C86.2126 23.9571 86.0558 24.0164 85.9372 24.135C85.8202 24.2535 85.7617 24.4096 85.7617 24.603C85.7617 24.7965 85.8187 24.9486 85.9326 25.0594C86.048 25.1701 86.2079 25.2255 86.4123 25.2255C86.6151 25.2255 86.7743 25.1701 86.8897 25.0594C87.0052 24.947 87.0629 24.7949 87.0629 24.603ZM86.4123 22.4336C86.2423 22.4336 86.1042 22.4866 85.9981 22.5927C85.8936 22.6973 85.8413 22.84 85.8413 23.021C85.8413 23.1942 85.8928 23.3346 85.9957 23.4423C86.1003 23.5483 86.2391 23.6014 86.4123 23.6014C86.5855 23.6014 86.7236 23.5483 86.8265 23.4423C86.9311 23.3346 86.9833 23.1942 86.9833 23.021C86.9833 22.8478 86.9295 22.7066 86.8219 22.5974C86.7142 22.4882 86.5777 22.4336 86.4123 22.4336ZM88.9866 24.2613H87.8445V23.908H88.9866V24.2613ZM91.5983 25.5321H89.3657V25.2209L90.5452 23.9103C90.7199 23.7122 90.8401 23.5515 90.9056 23.4282C90.9727 23.3034 91.0062 23.1747 91.0062 23.0421C91.0062 22.8642 90.9524 22.7183 90.8448 22.6044C90.7371 22.4906 90.5936 22.4336 90.4142 22.4336C90.1988 22.4336 90.0311 22.4952 89.911 22.6185C89.7924 22.7402 89.7331 22.9102 89.7331 23.1287H89.3002C89.3002 22.8151 89.4008 22.5615 89.6021 22.3681C89.8049 22.1746 90.0756 22.0779 90.4142 22.0779C90.7309 22.0779 90.9813 22.1614 91.1654 22.3283C91.3495 22.4937 91.4415 22.7144 91.4415 22.9906C91.4415 23.326 91.2278 23.7254 90.8003 24.1888L89.8876 25.1787H91.5983V25.5321ZM93.8848 24.3877H94.3575V24.7411H93.8848V25.5321H93.4495V24.7411H91.8979V24.486L93.4237 22.1247H93.8848V24.3877ZM92.3893 24.3877H93.4495V22.7168L93.398 22.8104L92.3893 24.3877Z" fill="#8794BA"/>
<path d="M141.207 56.6855H138.974V56.3743L140.154 55.0637C140.329 54.8656 140.449 54.7049 140.514 54.5817C140.581 54.4568 140.615 54.3281 140.615 54.1955C140.615 54.0177 140.561 53.8718 140.453 53.7579C140.346 53.644 140.202 53.587 140.023 53.587C139.808 53.587 139.64 53.6487 139.52 53.7719C139.401 53.8936 139.342 54.0637 139.342 54.2821H138.909C138.909 53.9685 139.01 53.715 139.211 53.5215C139.414 53.3281 139.684 53.2313 140.023 53.2313C140.34 53.2313 140.59 53.3148 140.774 53.4817C140.958 53.6471 141.05 53.8679 141.05 54.144C141.05 54.4795 140.837 54.8789 140.409 55.3422L139.496 56.3322H141.207V56.6855ZM141.865 54.9772L142.038 53.2781H143.784V53.6783H142.405L142.302 54.6074C142.469 54.5091 142.659 54.46 142.871 54.46C143.181 54.46 143.428 54.5629 143.611 54.7689C143.793 54.9733 143.884 55.2502 143.884 55.5997C143.884 55.9507 143.789 56.2276 143.599 56.4305C143.41 56.6317 143.146 56.7324 142.805 56.7324C142.504 56.7324 142.259 56.6489 142.068 56.4819C141.878 56.315 141.77 56.0841 141.743 55.7892H142.153C142.179 55.9842 142.248 56.1317 142.361 56.2315C142.473 56.3298 142.621 56.379 142.805 56.379C143.007 56.379 143.164 56.3103 143.278 56.173C143.394 56.0357 143.451 55.8462 143.451 55.6043C143.451 55.3766 143.389 55.194 143.264 55.0567C143.141 54.9179 142.976 54.8484 142.77 54.8484C142.582 54.8484 142.433 54.8898 142.326 54.9725L142.211 55.0661L141.865 54.9772ZM145.303 55.4148H144.16V55.0614H145.303V55.4148ZM146.311 54.7712H146.636C146.841 54.7681 147.002 54.7143 147.119 54.6097C147.236 54.5052 147.294 54.364 147.294 54.1862C147.294 53.7867 147.095 53.587 146.697 53.587C146.51 53.587 146.36 53.6409 146.248 53.7485C146.137 53.8546 146.082 53.9958 146.082 54.1721H145.649C145.649 53.9022 145.747 53.6783 145.944 53.5005C146.142 53.321 146.393 53.2313 146.697 53.2313C147.019 53.2313 147.271 53.3164 147.453 53.4864C147.636 53.6565 147.727 53.8928 147.727 54.1955C147.727 54.3437 147.679 54.4873 147.582 54.6261C147.487 54.765 147.356 54.8687 147.191 54.9374C147.378 54.9967 147.523 55.095 147.624 55.2322C147.727 55.3695 147.779 55.5373 147.779 55.7354C147.779 56.0412 147.679 56.2838 147.479 56.4632C147.279 56.6426 147.019 56.7324 146.7 56.7324C146.38 56.7324 146.119 56.6458 145.918 56.4726C145.718 56.2994 145.618 56.0708 145.618 55.7869H146.054C146.054 55.9663 146.112 56.1098 146.229 56.2175C146.346 56.3251 146.503 56.379 146.7 56.379C146.909 56.379 147.069 56.3244 147.179 56.2152C147.29 56.1059 147.346 55.9491 147.346 55.7448C147.346 55.5466 147.285 55.3945 147.163 55.2884C147.041 55.1823 146.866 55.1277 146.636 55.1246H146.311V54.7712ZM150.201 55.5412H150.673V55.8945H150.201V56.6855H149.765V55.8945H148.214V55.6395L149.74 53.2781H150.201V55.5412ZM148.705 55.5412H149.765V53.8702L149.714 53.9638L148.705 55.5412Z" fill="#8794BA"/>
<path d="M139.604 107.093H139.929C140.134 107.09 140.294 107.036 140.411 106.932C140.528 106.827 140.587 106.686 140.587 106.508C140.587 106.109 140.388 105.909 139.99 105.909C139.803 105.909 139.653 105.963 139.541 106.071C139.43 106.177 139.375 106.318 139.375 106.494H138.942C138.942 106.224 139.04 106 139.237 105.822C139.435 105.643 139.686 105.553 139.99 105.553C140.312 105.553 140.563 105.638 140.746 105.808C140.929 105.978 141.02 106.215 141.02 106.518C141.02 106.666 140.971 106.809 140.875 106.948C140.78 107.087 140.649 107.191 140.484 107.259C140.671 107.319 140.815 107.417 140.917 107.554C141.02 107.692 141.071 107.859 141.071 108.057C141.071 108.363 140.971 108.606 140.772 108.785C140.572 108.965 140.312 109.054 139.992 109.054C139.673 109.054 139.412 108.968 139.211 108.795C139.011 108.621 138.911 108.393 138.911 108.109H139.347C139.347 108.288 139.405 108.432 139.522 108.54C139.639 108.647 139.796 108.701 139.992 108.701C140.202 108.701 140.361 108.646 140.472 108.537C140.583 108.428 140.638 108.271 140.638 108.067C140.638 107.869 140.578 107.717 140.456 107.61C140.334 107.504 140.159 107.45 139.929 107.447H139.604V107.093ZM141.865 107.299L142.038 105.6H143.784V106H142.405L142.302 106.929C142.469 106.831 142.659 106.782 142.871 106.782C143.181 106.782 143.428 106.885 143.611 107.091C143.793 107.295 143.884 107.572 143.884 107.922C143.884 108.273 143.789 108.55 143.599 108.752C143.41 108.954 143.146 109.054 142.805 109.054C142.504 109.054 142.259 108.971 142.068 108.804C141.878 108.637 141.77 108.406 141.743 108.111H142.153C142.179 108.306 142.248 108.454 142.361 108.554C142.473 108.652 142.621 108.701 142.805 108.701C143.007 108.701 143.164 108.632 143.278 108.495C143.394 108.358 143.451 108.168 143.451 107.926C143.451 107.699 143.389 107.516 143.264 107.379C143.141 107.24 142.976 107.17 142.77 107.17C142.582 107.17 142.433 107.212 142.326 107.295L142.211 107.388L141.865 107.299ZM145.303 107.737H144.16V107.383H145.303V107.737ZM147.509 107.863H147.982V108.217H147.509V109.008H147.074V108.217H145.522V107.961L147.048 105.6H147.509V107.863ZM146.014 107.863H147.074V106.192L147.023 106.286L146.014 107.863ZM150.201 107.863H150.673V108.217H150.201V109.008H149.765V108.217H148.214V107.961L149.74 105.6H150.201V107.863ZM148.705 107.863H149.765V106.192L149.714 106.286L148.705 107.863Z" fill="#8794BA"/>
<path d="M84.4863 141.812H84.959V142.166H84.4863V142.957H84.051V142.166H82.4994V141.911L84.0252 139.549H84.4863V141.812ZM82.9909 141.812H84.051V140.141L83.9995 140.235L82.9909 141.812ZM85.5488 141.248L85.7219 139.549H87.4678V139.95H86.0894L85.9864 140.879C86.1533 140.78 86.3429 140.731 86.5551 140.731C86.8655 140.731 87.112 140.834 87.2946 141.04C87.4771 141.244 87.5684 141.521 87.5684 141.871C87.5684 142.222 87.4732 142.499 87.2829 142.702C87.0941 142.903 86.8297 143.004 86.4895 143.004C86.1884 143.004 85.9427 142.92 85.7524 142.753C85.562 142.586 85.4536 142.355 85.4271 142.06H85.8366C85.8631 142.255 85.9326 142.403 86.0449 142.503C86.1572 142.601 86.3054 142.65 86.4895 142.65C86.6908 142.65 86.8484 142.582 86.9623 142.444C87.0777 142.307 87.1355 142.117 87.1355 141.876C87.1355 141.648 87.073 141.465 86.9482 141.328C86.825 141.189 86.6604 141.12 86.4544 141.12C86.2657 141.12 86.1174 141.161 86.0098 141.244L85.8951 141.337L85.5488 141.248ZM88.9866 141.686H87.8445V141.333H88.9866V141.686ZM89.5646 141.248L89.7378 139.549H91.4836V139.95H90.1052L90.0023 140.879C90.1692 140.78 90.3588 140.731 90.5709 140.731C90.8814 140.731 91.1279 140.834 91.3105 141.04C91.493 141.244 91.5843 141.521 91.5843 141.871C91.5843 142.222 91.4891 142.499 91.2988 142.702C91.11 142.903 90.8455 143.004 90.5054 143.004C90.2043 143.004 89.9586 142.92 89.7682 142.753C89.5779 142.586 89.4695 142.355 89.4429 142.06H89.8525C89.879 142.255 89.9484 142.403 90.0608 142.503C90.1731 142.601 90.3213 142.65 90.5054 142.65C90.7067 142.65 90.8643 142.582 90.9782 142.444C91.0936 142.307 91.1513 142.117 91.1513 141.876C91.1513 141.648 91.0889 141.465 90.9641 141.328C90.8409 141.189 90.6763 141.12 90.4703 141.12C90.2815 141.12 90.1333 141.161 90.0257 141.244L89.911 141.337L89.5646 141.248ZM93.8848 141.812H94.3575V142.166H93.8848V142.957H93.4495V142.166H91.8979V141.911L93.4237 139.549H93.8848V141.812ZM92.3893 141.812H93.4495V140.141L93.398 140.235L92.3893 141.812Z" fill="#8794BA"/>
<path d="M26.5415 107.299L26.7147 105.6H28.4606V106H27.0821L26.9792 106.929C27.1461 106.831 27.3357 106.782 27.5479 106.782C27.8583 106.782 28.1048 106.885 28.2874 107.091C28.4699 107.295 28.5612 107.572 28.5612 107.922C28.5612 108.273 28.466 108.55 28.2757 108.752C28.0869 108.954 27.8224 109.054 27.4823 109.054C27.1812 109.054 26.9355 108.971 26.7451 108.804C26.5548 108.637 26.4464 108.406 26.4198 108.111H26.8294C26.8559 108.306 26.9253 108.454 27.0377 108.554C27.15 108.652 27.2982 108.701 27.4823 108.701C27.6836 108.701 27.8412 108.632 27.9551 108.495C28.0705 108.358 28.1282 108.168 28.1282 107.926C28.1282 107.699 28.0658 107.516 27.941 107.379C27.8178 107.24 27.6532 107.17 27.4472 107.17C27.2584 107.17 27.1102 107.212 27.0026 107.295L26.8879 107.388L26.5415 107.299ZM29.2328 107.299L29.406 105.6H31.1518V106H29.7734L29.6705 106.929C29.8374 106.831 30.027 106.782 30.2391 106.782C30.5496 106.782 30.7961 106.885 30.9787 107.091C31.1612 107.295 31.2525 107.572 31.2525 107.922C31.2525 108.273 31.1573 108.55 30.967 108.752C30.7782 108.954 30.5137 109.054 30.1736 109.054C29.8725 109.054 29.6268 108.971 29.4364 108.804C29.2461 108.637 29.1377 108.406 29.1111 108.111H29.5207C29.5472 108.306 29.6166 108.454 29.729 108.554C29.8413 108.652 29.9895 108.701 30.1736 108.701C30.3749 108.701 30.5325 108.632 30.6464 108.495C30.7618 108.358 30.8195 108.168 30.8195 107.926C30.8195 107.699 30.7571 107.516 30.6323 107.379C30.5091 107.24 30.3445 107.17 30.1385 107.17C29.9497 107.17 29.8015 107.212 29.6939 107.295L29.5792 107.388L29.2328 107.299ZM32.6707 107.737H31.5286V107.383H32.6707V107.737ZM34.7488 105.598V105.965H34.6693C34.3323 105.971 34.0639 106.071 33.8642 106.265C33.6645 106.458 33.5491 106.73 33.5178 107.082C33.6973 106.876 33.9422 106.773 34.2527 106.773C34.5491 106.773 34.7855 106.877 34.9618 107.086C35.1396 107.295 35.2286 107.565 35.2286 107.896C35.2286 108.247 35.1326 108.528 34.9407 108.738C34.7504 108.949 34.4945 109.054 34.1731 109.054C33.847 109.054 33.5826 108.93 33.3798 108.68C33.177 108.429 33.0755 108.106 33.0755 107.711V107.545C33.0755 106.918 33.2089 106.439 33.4757 106.108C33.7441 105.776 34.1427 105.606 34.6716 105.598H34.7488ZM34.1801 107.133C34.0319 107.133 33.8954 107.177 33.7706 107.266C33.6458 107.355 33.5592 107.467 33.5108 107.601V107.76C33.5108 108.041 33.574 108.267 33.7004 108.439C33.8268 108.611 33.9843 108.696 34.1731 108.696C34.3681 108.696 34.521 108.625 34.6318 108.481C34.7441 108.337 34.8003 108.149 34.8003 107.917C34.8003 107.683 34.7434 107.494 34.6295 107.351C34.5171 107.206 34.3674 107.133 34.1801 107.133ZM37.5688 107.863H38.0416V108.217H37.5688V109.008H37.1335V108.217H35.582V107.961L37.1078 105.6H37.5688V107.863ZM36.0734 107.863H37.1335V106.192L37.0821 106.286L36.0734 107.863Z" fill="#8794BA"/>
<path d="M30.0356 53.2758V53.6432H29.956C29.619 53.6495 29.3507 53.7493 29.151 53.9428C28.9513 54.1362 28.8358 54.4085 28.8046 54.7595C28.984 54.5536 29.229 54.4506 29.5395 54.4506C29.8359 54.4506 30.0723 54.5551 30.2486 54.7642C30.4264 54.9733 30.5154 55.2432 30.5154 55.5739C30.5154 55.925 30.4194 56.2058 30.2275 56.4164C30.0372 56.627 29.7813 56.7324 29.4599 56.7324C29.1338 56.7324 28.8694 56.6075 28.6665 56.3579C28.4637 56.1067 28.3623 55.7838 28.3623 55.389V55.2229C28.3623 54.5957 28.4957 54.1167 28.7625 53.786C29.0308 53.4537 29.4295 53.2836 29.9584 53.2758H30.0356ZM29.4669 54.811C29.3187 54.811 29.1822 54.8555 29.0574 54.9444C28.9326 55.0333 28.846 55.1449 28.7976 55.2791V55.4382C28.7976 55.719 28.8608 55.9452 28.9872 56.1169C29.1135 56.2885 29.2711 56.3743 29.4599 56.3743C29.6549 56.3743 29.8078 56.3025 29.9186 56.159C30.0309 56.0155 30.0871 55.8275 30.0871 55.595C30.0871 55.361 30.0301 55.1722 29.9162 55.0286C29.8039 54.8835 29.6541 54.811 29.4669 54.811ZM31.2268 54.9772L31.4 53.2781H33.1458V53.6783H31.7674L31.6644 54.6074C31.8314 54.5091 32.0209 54.46 32.2331 54.46C32.5436 54.46 32.7901 54.5629 32.9726 54.7689C33.1552 54.9733 33.2464 55.2502 33.2464 55.5997C33.2464 55.9507 33.1513 56.2276 32.9609 56.4305C32.7721 56.6317 32.5077 56.7324 32.1676 56.7324C31.8665 56.7324 31.6207 56.6489 31.4304 56.4819C31.2401 56.315 31.1316 56.0841 31.1051 55.7892H31.5146C31.5412 55.9842 31.6106 56.1317 31.7229 56.2315C31.8353 56.3298 31.9835 56.379 32.1676 56.379C32.3688 56.379 32.5264 56.3103 32.6403 56.173C32.7558 56.0357 32.8135 55.8462 32.8135 55.6043C32.8135 55.3766 32.7511 55.194 32.6263 55.0567C32.503 54.9179 32.3384 54.8484 32.1325 54.8484C31.9437 54.8484 31.7955 54.8898 31.6878 54.9725L31.5731 55.0661L31.2268 54.9772ZM35.004 54.8578H35.9541V55.2674H35.004V56.3439H34.5687V55.2674H33.6185V54.8578H34.5687V53.8632H35.004V54.8578Z" fill="#8794BA"/>
</svg>
