<svg width="241" height="164" viewBox="0 0 241 164" fill="none" xmlns="http://www.w3.org/2000/svg">
<rect x="0.774902" y="0.162476" width="239.642" height="163.756" rx="11.9821" fill="white"/>
<rect x="40.3159" y="28.9196" width="0.399404" height="108.238" fill="#EEEEF7"/>
<rect x="65.4785" y="28.9196" width="0.399404" height="108.238" fill="#EEEEF7"/>
<rect x="90.6409" y="28.9196" width="0.399404" height="108.238" fill="#EEEEF7"/>
<rect x="115.803" y="28.9196" width="0.399404" height="108.238" fill="#EEEEF7"/>
<rect x="140.966" y="28.9196" width="0.399404" height="108.238" fill="#EEEEF7"/>
<rect x="166.128" y="28.9196" width="0.399404" height="108.238" fill="#EEEEF7"/>
<rect x="191.291" y="28.9196" width="0.399404" height="108.238" fill="#EEEEF7"/>
<rect x="216.453" y="28.9196" width="0.399404" height="108.238" fill="#EEEEF7"/>
<path d="M24.3149 37.004L24.488 35.305H26.2339V35.7052H24.8555L24.7525 36.6343C24.9194 36.536 25.109 36.4868 25.3212 36.4868C25.6316 36.4868 25.8782 36.5898 26.0607 36.7957C26.2432 37.0001 26.3345 37.277 26.3345 37.6265C26.3345 37.9776 26.2393 38.2545 26.049 38.4573C25.8602 38.6586 25.5958 38.7592 25.2556 38.7592C24.9545 38.7592 24.7088 38.6757 24.5185 38.5088C24.3281 38.3419 24.2197 38.111 24.1932 37.8161H24.6027C24.6292 38.0111 24.6987 38.1585 24.811 38.2584C24.9233 38.3567 25.0715 38.4058 25.2556 38.4058C25.4569 38.4058 25.6145 38.3372 25.7284 38.1999C25.8438 38.0626 25.9016 37.873 25.9016 37.6312C25.9016 37.4034 25.8391 37.2209 25.7143 37.0836C25.5911 36.9447 25.4265 36.8753 25.2205 36.8753C25.0318 36.8753 24.8835 36.9166 24.7759 36.9993L24.6612 37.0929L24.3149 37.004ZM28.635 37.568H29.1077V37.9214H28.635V38.7124H28.1997V37.9214H26.6481V37.6663L28.1739 35.305H28.635V37.568ZM27.1396 37.568H28.1997V35.8971L28.1482 35.9907L27.1396 37.568ZM30.444 37.4416H29.3019V37.0883H30.444V37.4416ZM32.5221 35.3026V35.6701H32.4426C32.1056 35.6763 31.8372 35.7762 31.6375 35.9696C31.4378 36.1631 31.3224 36.4353 31.2912 36.7864C31.4706 36.5804 31.7155 36.4775 32.026 36.4775C32.3224 36.4775 32.5588 36.582 32.7351 36.7911C32.913 37.0001 33.0019 37.27 33.0019 37.6008C33.0019 37.9518 32.9059 38.2326 32.714 38.4433C32.5237 38.6539 32.2678 38.7592 31.9464 38.7592C31.6204 38.7592 31.3559 38.6344 31.1531 38.3848C30.9503 38.1336 30.8489 37.8106 30.8489 37.4159V37.2497C30.8489 36.6226 30.9823 36.1436 31.249 35.8128C31.5174 35.4805 31.916 35.3104 32.4449 35.3026H32.5221ZM31.9535 36.8379C31.8052 36.8379 31.6687 36.8823 31.5439 36.9713C31.4191 37.0602 31.3325 37.1717 31.2841 37.3059V37.465C31.2841 37.7459 31.3473 37.9721 31.4737 38.1437C31.6001 38.3153 31.7577 38.4011 31.9464 38.4011C32.1415 38.4011 32.2944 38.3294 32.4051 38.1858C32.5175 38.0423 32.5736 37.8543 32.5736 37.6218C32.5736 37.3878 32.5167 37.199 32.4028 37.0555C32.2905 36.9104 32.1407 36.8379 31.9535 36.8379ZM33.7133 37.004L33.8865 35.305H35.6323V35.7052H34.2539L34.151 36.6343C34.3179 36.536 34.5075 36.4868 34.7196 36.4868C35.0301 36.4868 35.2766 36.5898 35.4592 36.7957C35.6417 37.0001 35.733 37.277 35.733 37.6265C35.733 37.9776 35.6378 38.2545 35.4475 38.4573C35.2587 38.6586 34.9942 38.7592 34.6541 38.7592C34.353 38.7592 34.1073 38.6757 33.9169 38.5088C33.7266 38.3419 33.6182 38.111 33.5916 37.8161H34.0012C34.0277 38.0111 34.0971 38.1585 34.2095 38.2584C34.3218 38.3567 34.47 38.4058 34.6541 38.4058C34.8554 38.4058 35.013 38.3372 35.1268 38.1999C35.2423 38.0626 35.3 37.873 35.3 37.6312C35.3 37.4034 35.2376 37.2209 35.1128 37.0836C34.9896 36.9447 34.825 36.8753 34.619 36.8753C34.4302 36.8753 34.282 36.9166 34.1744 36.9993L34.0597 37.0929L33.7133 37.004Z" fill="#8794BA"/>
<path d="M25.9437 59.9346H26.4164V60.288H25.9437V61.079H25.5084V60.288H23.9568V60.0329L25.4826 57.6716H25.9437V59.9346ZM24.4483 59.9346H25.5084V58.2637L25.4569 58.3573L24.4483 59.9346ZM27.0062 59.3706L27.1793 57.6716H28.9252V58.0717H27.5468L27.4438 59.0008C27.6107 58.9025 27.8003 58.8534 28.0125 58.8534C28.3229 58.8534 28.5694 58.9564 28.752 59.1623C28.9345 59.3667 29.0258 59.6436 29.0258 59.9931C29.0258 60.3441 28.9306 60.6211 28.7403 60.8239C28.5515 61.0252 28.2871 61.1258 27.9469 61.1258C27.6458 61.1258 27.4001 61.0423 27.2098 60.8754C27.0194 60.7084 26.911 60.4775 26.8845 60.1827H27.294C27.3205 60.3777 27.39 60.5251 27.5023 60.625C27.6146 60.7233 27.7628 60.7724 27.9469 60.7724C28.1482 60.7724 28.3058 60.7038 28.4197 60.5665C28.5351 60.4292 28.5929 60.2396 28.5929 59.9978C28.5929 59.77 28.5304 59.5875 28.4056 59.4502C28.2824 59.3113 28.1178 59.2419 27.9118 59.2419C27.7231 59.2419 27.5748 59.2832 27.4672 59.3659L27.3525 59.4595L27.0062 59.3706ZM30.444 59.8082H29.3019V59.4548H30.444V59.8082ZM31.022 59.3706L31.1952 57.6716H32.941V58.0717H31.5626L31.4597 59.0008C31.6266 58.9025 31.8162 58.8534 32.0283 58.8534C32.3388 58.8534 32.5853 58.9564 32.7679 59.1623C32.9504 59.3667 33.0417 59.6436 33.0417 59.9931C33.0417 60.3441 32.9465 60.6211 32.7562 60.8239C32.5674 61.0252 32.3029 61.1258 31.9628 61.1258C31.6617 61.1258 31.416 61.0423 31.2256 60.8754C31.0353 60.7084 30.9269 60.4775 30.9003 60.1827H31.3099C31.3364 60.3777 31.4058 60.5251 31.5182 60.625C31.6305 60.7233 31.7787 60.7724 31.9628 60.7724C32.1641 60.7724 32.3217 60.7038 32.4356 60.5665C32.551 60.4292 32.6087 60.2396 32.6087 59.9978C32.6087 59.77 32.5463 59.5875 32.4215 59.4502C32.2983 59.3113 32.1337 59.2419 31.9277 59.2419C31.7389 59.2419 31.5907 59.2832 31.4831 59.3659L31.3684 59.4595L31.022 59.3706ZM35.3422 59.9346H35.8149V60.288H35.3422V61.079H34.9069V60.288H33.3553V60.0329L34.8811 57.6716H35.3422V59.9346ZM33.8467 59.9346H34.9069V58.2637L34.8554 58.3573L33.8467 59.9346Z" fill="#8794BA"/>
<path d="M24.7455 81.5313H25.0708C25.2751 81.5282 25.4358 81.4744 25.5529 81.3699C25.6699 81.2653 25.7284 81.1241 25.7284 80.9463C25.7284 80.5469 25.5295 80.3472 25.1316 80.3472C24.9444 80.3472 24.7946 80.401 24.6823 80.5087C24.5715 80.6147 24.5161 80.7559 24.5161 80.9322H24.0832C24.0832 80.6623 24.1815 80.4384 24.378 80.2606C24.5762 80.0812 24.8274 79.9915 25.1316 79.9915C25.453 79.9915 25.705 80.0765 25.8875 80.2465C26.0701 80.4166 26.1613 80.653 26.1613 80.9556C26.1613 81.1039 26.113 81.2474 26.0162 81.3863C25.9211 81.5251 25.7908 81.6289 25.6254 81.6975C25.8126 81.7568 25.9569 81.8551 26.0584 81.9924C26.1613 82.1297 26.2128 82.2974 26.2128 82.4955C26.2128 82.8013 26.113 83.0439 25.9133 83.2234C25.7136 83.4028 25.4538 83.4925 25.134 83.4925C24.8141 83.4925 24.5536 83.4059 24.3523 83.2327C24.1526 83.0595 24.0528 82.831 24.0528 82.547H24.488C24.488 82.7264 24.5465 82.87 24.6636 82.9776C24.7806 83.0853 24.9374 83.1391 25.134 83.1391C25.343 83.1391 25.5029 83.0845 25.6137 82.9753C25.7245 82.8661 25.7799 82.7093 25.7799 82.5049C25.7799 82.3068 25.719 82.1546 25.5973 82.0485C25.4756 81.9425 25.3001 81.8878 25.0708 81.8847H24.7455V81.5313ZM27.0062 81.7373L27.1793 80.0383H28.9252V80.4384H27.5468L27.4438 81.3675C27.6107 81.2692 27.8003 81.2201 28.0125 81.2201C28.3229 81.2201 28.5694 81.3231 28.752 81.529C28.9345 81.7334 29.0258 82.0103 29.0258 82.3598C29.0258 82.7108 28.9306 82.9878 28.7403 83.1906C28.5515 83.3919 28.2871 83.4925 27.9469 83.4925C27.6458 83.4925 27.4001 83.409 27.2098 83.2421C27.0194 83.0751 26.911 82.8442 26.8845 82.5494H27.294C27.3205 82.7444 27.39 82.8918 27.5023 82.9917C27.6146 83.09 27.7628 83.1391 27.9469 83.1391C28.1482 83.1391 28.3058 83.0705 28.4197 82.9332C28.5351 82.7959 28.5929 82.6063 28.5929 82.3645C28.5929 82.1367 28.5304 81.9542 28.4056 81.8169C28.2824 81.678 28.1178 81.6086 27.9118 81.6086C27.7231 81.6086 27.5748 81.6499 27.4672 81.7326L27.3525 81.8262L27.0062 81.7373ZM30.444 82.1749H29.3019V81.8215H30.444V82.1749ZM32.6509 82.3013H33.1236V82.6547H32.6509V83.4457H32.2156V82.6547H30.664V82.3996L32.1898 80.0383H32.6509V82.3013ZM31.1554 82.3013H32.2156V80.6303L32.1641 80.724L31.1554 82.3013ZM35.3422 82.3013H35.8149V82.6547H35.3422V83.4457H34.9069V82.6547H33.3553V82.3996L34.8811 80.0383H35.3422V82.3013ZM33.8467 82.3013H34.9069V80.6303L34.8554 80.724L33.8467 82.3013Z" fill="#8794BA"/>
<path d="M26.3485 105.812H24.1159V105.501L25.2954 104.19C25.4702 103.992 25.5903 103.832 25.6558 103.708C25.7229 103.584 25.7565 103.455 25.7565 103.322C25.7565 103.144 25.7026 102.998 25.595 102.885C25.4873 102.771 25.3438 102.714 25.1644 102.714C24.9491 102.714 24.7814 102.775 24.6612 102.899C24.5426 103.02 24.4834 103.19 24.4834 103.409H24.0504C24.0504 103.095 24.151 102.842 24.3523 102.648C24.5551 102.455 24.8258 102.358 25.1644 102.358C25.4811 102.358 25.7315 102.442 25.9156 102.608C26.0997 102.774 26.1917 102.995 26.1917 103.271C26.1917 103.606 25.978 104.006 25.5505 104.469L24.6378 105.459H26.3485V105.812ZM27.0062 104.104L27.1793 102.405H28.9252V102.805H27.5468L27.4438 103.734C27.6107 103.636 27.8003 103.587 28.0125 103.587C28.3229 103.587 28.5694 103.69 28.752 103.896C28.9345 104.1 29.0258 104.377 29.0258 104.726C29.0258 105.077 28.9306 105.354 28.7403 105.557C28.5515 105.758 28.2871 105.859 27.9469 105.859C27.6458 105.859 27.4001 105.776 27.2098 105.609C27.0194 105.442 26.911 105.211 26.8845 104.916H27.294C27.3205 105.111 27.39 105.258 27.5023 105.358C27.6146 105.457 27.7628 105.506 27.9469 105.506C28.1482 105.506 28.3058 105.437 28.4197 105.3C28.5351 105.162 28.5929 104.973 28.5929 104.731C28.5929 104.503 28.5304 104.321 28.4056 104.183C28.2824 104.045 28.1178 103.975 27.9118 103.975C27.7231 103.975 27.5748 104.016 27.4672 104.099L27.3525 104.193L27.0062 104.104ZM30.444 104.541H29.3019V104.188H30.444V104.541ZM31.4526 103.898H31.7779C31.9823 103.895 32.143 103.841 32.26 103.736C32.377 103.632 32.4356 103.491 32.4356 103.313C32.4356 102.913 32.2366 102.714 31.8388 102.714C31.6516 102.714 31.5018 102.768 31.3895 102.875C31.2787 102.981 31.2233 103.123 31.2233 103.299H30.7904C30.7904 103.029 30.8886 102.805 31.0852 102.627C31.2834 102.448 31.5346 102.358 31.8388 102.358C32.1602 102.358 32.4121 102.443 32.5947 102.613C32.7772 102.783 32.8685 103.02 32.8685 103.322C32.8685 103.47 32.8201 103.614 32.7234 103.753C32.6282 103.892 32.498 103.995 32.3326 104.064C32.5198 104.123 32.6641 104.222 32.7655 104.359C32.8685 104.496 32.92 104.664 32.92 104.862C32.92 105.168 32.8201 105.411 32.6204 105.59C32.4207 105.769 32.161 105.859 31.8411 105.859C31.5213 105.859 31.2607 105.772 31.0595 105.599C30.8598 105.426 30.7599 105.198 30.7599 104.914H31.1952C31.1952 105.093 31.2537 105.237 31.3707 105.344C31.4877 105.452 31.6445 105.506 31.8411 105.506C32.0502 105.506 32.2101 105.451 32.3209 105.342C32.4317 105.233 32.487 105.076 32.487 104.871C32.487 104.673 32.4262 104.521 32.3045 104.415C32.1828 104.309 32.0073 104.254 31.7779 104.251H31.4526V103.898ZM35.3422 104.668H35.8149V105.021H35.3422V105.812H34.9069V105.021H33.3553V104.766L34.8811 102.405H35.3422V104.668ZM33.8467 104.668H34.9069V102.997L34.8554 103.091L33.8467 104.668Z" fill="#8794BA"/>
<path d="M25.5388 128.179H25.1035V125.293L24.2306 125.614V125.221L25.4709 124.755H25.5388V128.179ZM28.8737 125.661C28.8737 125.831 28.8284 125.982 28.7379 126.115C28.649 126.247 28.5281 126.351 28.3752 126.426C28.5531 126.502 28.6935 126.614 28.7965 126.761C28.901 126.907 28.9533 127.073 28.9533 127.259C28.9533 127.554 28.8534 127.789 28.6537 127.964C28.4556 128.138 28.1942 128.226 27.8697 128.226C27.5421 128.226 27.2792 128.138 27.081 127.964C26.8845 127.787 26.7862 127.552 26.7862 127.259C26.7862 127.075 26.8361 126.909 26.9359 126.761C27.0374 126.612 27.177 126.5 27.3549 126.424C27.2035 126.349 27.0842 126.245 26.9968 126.112C26.9094 125.98 26.8657 125.829 26.8657 125.661C26.8657 125.374 26.9578 125.146 27.1419 124.977C27.326 124.809 27.5686 124.725 27.8697 124.725C28.1693 124.725 28.4111 124.809 28.5952 124.977C28.7809 125.146 28.8737 125.374 28.8737 125.661ZM28.5203 127.25C28.5203 127.059 28.4595 126.904 28.3378 126.784C28.2176 126.664 28.0601 126.604 27.865 126.604C27.67 126.604 27.5132 126.663 27.3946 126.782C27.2776 126.9 27.2191 127.056 27.2191 127.25C27.2191 127.443 27.2761 127.595 27.39 127.706C27.5054 127.817 27.6653 127.872 27.8697 127.872C28.0725 127.872 28.2317 127.817 28.3471 127.706C28.4626 127.594 28.5203 127.442 28.5203 127.25ZM27.8697 125.08C27.6997 125.08 27.5616 125.133 27.4555 125.239C27.351 125.344 27.2987 125.487 27.2987 125.668C27.2987 125.841 27.3502 125.981 27.4531 126.089C27.5577 126.195 27.6965 126.248 27.8697 126.248C28.0429 126.248 28.181 126.195 28.2839 126.089C28.3885 125.981 28.4407 125.841 28.4407 125.668C28.4407 125.495 28.3869 125.353 28.2793 125.244C28.1716 125.135 28.0351 125.08 27.8697 125.08ZM30.444 126.908H29.3019V126.555H30.444V126.908ZM33.0557 128.179H30.8231V127.868L32.0026 126.557C32.1773 126.359 32.2975 126.198 32.363 126.075C32.4301 125.95 32.4636 125.821 32.4636 125.689C32.4636 125.511 32.4098 125.365 32.3022 125.251C32.1945 125.137 32.051 125.08 31.8716 125.08C31.6562 125.08 31.4885 125.142 31.3684 125.265C31.2498 125.387 31.1905 125.557 31.1905 125.775H30.7576C30.7576 125.462 30.8582 125.208 31.0595 125.015C31.2623 124.821 31.533 124.725 31.8716 124.725C32.1883 124.725 32.4387 124.808 32.6228 124.975C32.8069 125.14 32.8989 125.361 32.8989 125.637C32.8989 125.973 32.6852 126.372 32.2577 126.836L31.345 127.825H33.0557V128.179ZM35.3422 127.034H35.8149V127.388H35.3422V128.179H34.9069V127.388H33.3553V127.133L34.8811 124.771H35.3422V127.034ZM33.8467 127.034H34.9069V125.364L34.8554 125.457L33.8467 127.034Z" fill="#8794BA"/>
<path d="M40.3159 31.7153H142.763C143.976 31.7153 144.96 32.6988 144.96 33.9121C144.96 35.1253 143.976 36.1088 142.763 36.1088H40.3159V31.7153Z" fill="#EF2A82"/>
<path d="M40.3159 54.4814H108.015C109.228 54.4814 110.212 55.465 110.212 56.6782C110.212 57.8914 109.228 58.8749 108.015 58.8749H40.3159V54.4814Z" fill="#EF2A82"/>
<path d="M40.3159 77.2474H44.5097C45.7229 77.2474 46.7064 78.2309 46.7064 79.4442C46.7064 80.6574 45.7229 81.6409 44.5097 81.6409H40.3159V77.2474Z" fill="#EF2A82"/>
<path d="M40.3159 100.013H57.2906C58.5038 100.013 59.4873 100.997 59.4873 102.21C59.4873 103.423 58.5038 104.407 57.2906 104.407H40.3159V100.013Z" fill="#EF2A82"/>
<path d="M40.3159 122.779H121.195C122.408 122.779 123.392 123.763 123.392 124.976C123.392 126.189 122.408 127.173 121.195 127.173H40.3159V122.779Z" fill="#EF2A82"/>
<path d="M40.3159 37.307H97.231C98.4442 37.307 99.4277 38.2905 99.4277 39.5037C99.4277 40.7169 98.4442 41.7004 97.231 41.7004H40.3159V37.307Z" fill="#0088F0"/>
<path d="M40.3159 60.073H121.195C122.408 60.073 123.392 61.0565 123.392 62.2697C123.392 63.4829 122.408 64.4664 121.195 64.4664H40.3159V60.073Z" fill="#0088F0"/>
<path d="M40.3159 82.8391H57.2906C58.5038 82.8391 59.4873 83.8226 59.4873 85.0358C59.4873 86.249 58.5038 87.2326 57.2906 87.2326H40.3159V82.8391Z" fill="#0088F0"/>
<path d="M40.3159 105.605H173.517C174.73 105.605 175.714 106.589 175.714 107.802C175.714 109.015 174.73 109.999 173.517 109.999H40.3159V105.605Z" fill="#0088F0"/>
<path d="M40.3159 128.371H196.283C197.496 128.371 198.48 129.355 198.48 130.568C198.48 131.781 197.496 132.765 196.283 132.765H40.3159V128.371Z" fill="#0088F0"/>
</svg>
