<svg width="240" height="165" viewBox="0 0 240 165" fill="none" xmlns="http://www.w3.org/2000/svg">
<rect x="0.351562" y="0.64978" width="239.642" height="163.756" rx="11.9821" fill="white"/>
<rect x="24.7156" y="139.243" width="0.399405" height="190.915" transform="rotate(-90 24.7156 139.243)" fill="#EEEEF7"/>
<rect x="24.7153" y="122.867" width="0.399405" height="190.915" transform="rotate(-90 24.7153 122.867)" fill="#EEEEF7"/>
<rect x="24.7153" y="106.492" width="0.399405" height="190.915" transform="rotate(-90 24.7153 106.492)" fill="#EEEEF7"/>
<rect x="24.7153" y="90.1163" width="0.399405" height="190.915" transform="rotate(-90 24.7153 90.1163)" fill="#EEEEF7"/>
<rect x="24.7153" y="73.7407" width="0.399405" height="190.915" transform="rotate(-90 24.7153 73.7407)" fill="#EEEEF7"/>
<rect x="24.7153" y="57.3651" width="0.399405" height="190.915" transform="rotate(-90 24.7153 57.3651)" fill="#EEEEF7"/>
<rect x="24.7153" y="40.9896" width="0.399405" height="190.915" transform="rotate(-90 24.7153 40.9896)" fill="#EEEEF7"/>
<rect x="24.7153" y="24.614" width="0.399405" height="190.915" transform="rotate(-90 24.7153 24.614)" fill="#EEEEF7"/>
<path d="M57.4666 138.844L57.4666 77.9344C57.4666 74.0742 60.5959 70.9448 64.4561 70.9448C68.3164 70.9448 71.4457 74.0742 71.4457 77.9344L71.4457 138.844L57.4666 138.844Z" fill="#EF2A82"/>
<path d="M107.792 138.844L107.792 118.274C107.792 114.414 110.921 111.285 114.781 111.285C118.641 111.285 121.771 114.414 121.771 118.274L121.771 138.844L107.792 138.844Z" fill="#EF2A82"/>
<path d="M158.116 138.844L158.116 88.7183C158.116 84.8581 161.246 81.7287 165.106 81.7287C168.966 81.7287 172.095 84.8581 172.095 88.7183L172.095 138.844L158.116 138.844Z" fill="#EF2A82"/>
<path d="M75.4397 138.844L75.4397 103.097C75.4397 99.2366 78.569 96.1073 82.4293 96.1073C86.2895 96.1073 89.4188 99.2366 89.4188 103.097L89.4188 138.844L75.4397 138.844Z" fill="#0088F0"/>
<path d="M125.765 138.844L125.765 43.9851C125.765 40.1249 128.894 36.9955 132.754 36.9955C136.614 36.9955 139.744 40.1248 139.744 43.9851L139.744 138.844L125.765 138.844Z" fill="#0088F0"/>
<path d="M176.089 138.844L176.089 136.647C176.089 132.787 179.219 129.657 183.079 129.657C186.939 129.657 190.068 132.787 190.068 136.647L190.068 138.844L176.089 138.844Z" fill="#0088F0"/>
<path d="M69.4495 147.039H69.0142V144.153L68.1413 144.474V144.081L69.3816 143.615H69.4495V147.039ZM72.7843 144.521C72.7843 144.691 72.7391 144.842 72.6486 144.975C72.5597 145.107 72.4387 145.211 72.2859 145.286C72.4637 145.362 72.6041 145.474 72.7071 145.621C72.8116 145.767 72.8639 145.933 72.8639 146.119C72.8639 146.414 72.764 146.649 72.5643 146.823C72.3662 146.998 72.1049 147.086 71.7804 147.086C71.4527 147.086 71.1898 146.998 70.9917 146.823C70.7951 146.647 70.6968 146.412 70.6968 146.119C70.6968 145.935 70.7467 145.769 70.8466 145.621C70.948 145.472 71.0876 145.36 71.2655 145.284C71.1142 145.209 70.9948 145.105 70.9074 144.972C70.8201 144.84 70.7764 144.689 70.7764 144.521C70.7764 144.234 70.8684 144.006 71.0525 143.837C71.2366 143.669 71.4792 143.585 71.7804 143.585C72.0799 143.585 72.3217 143.669 72.5058 143.837C72.6915 144.006 72.7843 144.234 72.7843 144.521ZM72.4309 146.11C72.4309 145.919 72.3701 145.764 72.2484 145.644C72.1283 145.524 71.9707 145.464 71.7757 145.464C71.5807 145.464 71.4239 145.523 71.3053 145.642C71.1883 145.76 71.1298 145.916 71.1298 146.11C71.1298 146.303 71.1867 146.455 71.3006 146.566C71.4161 146.677 71.576 146.732 71.7804 146.732C71.9832 146.732 72.1423 146.677 72.2578 146.566C72.3732 146.454 72.4309 146.302 72.4309 146.11ZM71.7804 143.94C71.6103 143.94 71.4722 143.993 71.3661 144.099C71.2616 144.204 71.2093 144.347 71.2093 144.528C71.2093 144.701 71.2608 144.841 71.3638 144.949C71.4683 145.055 71.6072 145.108 71.7804 145.108C71.9535 145.108 72.0916 145.055 72.1946 144.949C72.2991 144.841 72.3514 144.701 72.3514 144.528C72.3514 144.354 72.2976 144.213 72.1899 144.104C72.0822 143.995 71.9457 143.94 71.7804 143.94ZM74.3546 145.768H73.2126V145.415H74.3546V145.768ZM76.9664 147.039H74.7338V146.728L75.9132 145.417C76.088 145.219 76.2081 145.058 76.2736 144.935C76.3407 144.81 76.3743 144.681 76.3743 144.549C76.3743 144.371 76.3205 144.225 76.2128 144.111C76.1052 143.997 75.9616 143.94 75.7822 143.94C75.5669 143.94 75.3992 144.002 75.279 144.125C75.1605 144.247 75.1012 144.417 75.1012 144.635H74.6682C74.6682 144.322 74.7689 144.068 74.9701 143.875C75.1729 143.681 75.4436 143.585 75.7822 143.585C76.0989 143.585 76.3493 143.668 76.5334 143.835C76.7175 144 76.8096 144.221 76.8096 144.497C76.8096 144.833 76.5958 145.232 76.1683 145.695L75.2556 146.685H76.9664V147.039ZM79.2528 145.894H79.7255V146.248H79.2528V147.039H78.8175V146.248H77.2659V145.993L78.7918 143.631H79.2528V145.894ZM77.7574 145.894H78.8175V144.223L78.766 144.317L77.7574 145.894Z" fill="#8794BA"/>
<path d="M119.38 145.124H119.706C119.91 145.121 120.071 145.067 120.188 144.963C120.305 144.858 120.363 144.717 120.363 144.539C120.363 144.14 120.164 143.94 119.766 143.94C119.579 143.94 119.429 143.994 119.317 144.102C119.206 144.208 119.151 144.349 119.151 144.525H118.718C118.718 144.255 118.816 144.032 119.013 143.854C119.211 143.674 119.462 143.585 119.766 143.585C120.088 143.585 120.34 143.67 120.522 143.84C120.705 144.01 120.796 144.246 120.796 144.549C120.796 144.697 120.748 144.84 120.651 144.979C120.556 145.118 120.426 145.222 120.26 145.291C120.447 145.35 120.592 145.448 120.693 145.585C120.796 145.723 120.848 145.89 120.848 146.089C120.848 146.394 120.748 146.637 120.548 146.816C120.348 146.996 120.089 147.086 119.769 147.086C119.449 147.086 119.188 146.999 118.987 146.826C118.787 146.653 118.688 146.424 118.688 146.14H119.123C119.123 146.32 119.181 146.463 119.298 146.571C119.415 146.678 119.572 146.732 119.769 146.732C119.978 146.732 120.138 146.678 120.248 146.568C120.359 146.459 120.415 146.302 120.415 146.098C120.415 145.9 120.354 145.748 120.232 145.642C120.11 145.536 119.935 145.481 119.706 145.478H119.38V145.124ZM121.641 145.33L121.814 143.631H123.56V144.032H122.182L122.079 144.961C122.245 144.862 122.435 144.813 122.647 144.813C122.958 144.813 123.204 144.916 123.387 145.122C123.569 145.326 123.661 145.603 123.661 145.953C123.661 146.304 123.565 146.581 123.375 146.784C123.186 146.985 122.922 147.086 122.582 147.086C122.281 147.086 122.035 147.002 121.845 146.835C121.654 146.668 121.546 146.437 121.519 146.142H121.929C121.955 146.337 122.025 146.485 122.137 146.585C122.249 146.683 122.398 146.732 122.582 146.732C122.783 146.732 122.941 146.664 123.054 146.526C123.17 146.389 123.228 146.199 123.228 145.958C123.228 145.73 123.165 145.547 123.04 145.41C122.917 145.271 122.753 145.202 122.547 145.202C122.358 145.202 122.21 145.243 122.102 145.326L121.987 145.419L121.641 145.33ZM125.079 145.768H123.937V145.415H125.079V145.768ZM127.286 145.894H127.758V146.248H127.286V147.039H126.85V146.248H125.299V145.993L126.825 143.631H127.286V145.894ZM125.79 145.894H126.85V144.223L126.799 144.317L125.79 145.894ZM129.977 145.894H130.45V146.248H129.977V147.039H129.542V146.248H127.99V145.993L129.516 143.631H129.977V145.894ZM128.481 145.894H129.542V144.223L129.49 144.317L128.481 145.894Z" fill="#8794BA"/>
<path d="M171.168 143.629V143.996H171.088C170.751 144.003 170.483 144.103 170.283 144.296C170.084 144.489 169.968 144.762 169.937 145.113C170.116 144.907 170.361 144.804 170.672 144.804C170.968 144.804 171.205 144.908 171.381 145.117C171.559 145.326 171.648 145.596 171.648 145.927C171.648 146.278 171.552 146.559 171.36 146.77C171.169 146.98 170.914 147.086 170.592 147.086C170.266 147.086 170.002 146.961 169.799 146.711C169.596 146.46 169.495 146.137 169.495 145.742V145.576C169.495 144.949 169.628 144.47 169.895 144.139C170.163 143.807 170.562 143.637 171.091 143.629H171.168ZM170.599 145.164C170.451 145.164 170.314 145.209 170.19 145.298C170.065 145.387 169.978 145.498 169.93 145.632V145.791C169.93 146.072 169.993 146.298 170.119 146.47C170.246 146.642 170.403 146.728 170.592 146.728C170.787 146.728 170.94 146.656 171.051 146.512C171.163 146.369 171.219 146.181 171.219 145.948C171.219 145.714 171.162 145.525 171.049 145.382C170.936 145.237 170.786 145.164 170.599 145.164ZM172.359 145.33L172.532 143.631H174.278V144.032H172.9L172.797 144.961C172.964 144.862 173.153 144.813 173.365 144.813C173.676 144.813 173.922 144.916 174.105 145.122C174.287 145.326 174.379 145.603 174.379 145.953C174.379 146.304 174.284 146.581 174.093 146.784C173.904 146.985 173.64 147.086 173.3 147.086C172.999 147.086 172.753 147.002 172.563 146.835C172.372 146.668 172.264 146.437 172.237 146.142H172.647C172.673 146.337 172.743 146.485 172.855 146.585C172.968 146.683 173.116 146.732 173.3 146.732C173.501 146.732 173.659 146.664 173.773 146.526C173.888 146.389 173.946 146.199 173.946 145.958C173.946 145.73 173.883 145.547 173.759 145.41C173.635 145.271 173.471 145.202 173.265 145.202C173.076 145.202 172.928 145.243 172.82 145.326L172.705 145.419L172.359 145.33ZM176.136 145.211H177.086V145.621H176.136V146.697H175.701V145.621H174.751V145.211H175.701V144.216H176.136V145.211Z" fill="#8794BA"/>
</svg>
