<svg width="241" height="165" viewBox="0 0 241 165" fill="none" xmlns="http://www.w3.org/2000/svg">
<rect x="0.774902" y="0.64978" width="239.642" height="163.756" rx="11.9821" fill="white"/>
<rect x="25.1394" y="139.243" width="0.399405" height="190.915" transform="rotate(-90 25.1394 139.243)" fill="#EEEEF7"/>
<rect x="25.1384" y="122.867" width="0.399405" height="190.915" transform="rotate(-90 25.1384 122.867)" fill="#EEEEF7"/>
<rect x="25.1384" y="106.492" width="0.399405" height="190.915" transform="rotate(-90 25.1384 106.492)" fill="#EEEEF7"/>
<rect x="25.1384" y="90.1163" width="0.399405" height="190.915" transform="rotate(-90 25.1384 90.1163)" fill="#EEEEF7"/>
<rect x="25.1384" y="73.7407" width="0.399405" height="190.915" transform="rotate(-90 25.1384 73.7407)" fill="#EEEEF7"/>
<rect x="25.1384" y="57.3651" width="0.399405" height="190.915" transform="rotate(-90 25.1384 57.3651)" fill="#EEEEF7"/>
<rect x="25.1384" y="40.9896" width="0.399405" height="190.915" transform="rotate(-90 25.1384 40.9896)" fill="#EEEEF7"/>
<rect x="25.1384" y="24.614" width="0.399405" height="190.915" transform="rotate(-90 25.1384 24.614)" fill="#EEEEF7"/>
<path d="M25.1394 147.039H24.7041V144.153L23.8312 144.474V144.081L25.0715 143.615H25.1394V147.039ZM28.4743 144.521C28.4743 144.691 28.429 144.842 28.3385 144.975C28.2496 145.107 28.1287 145.211 27.9758 145.286C28.1537 145.362 28.2941 145.474 28.397 145.621C28.5016 145.767 28.5538 145.933 28.5538 146.119C28.5538 146.414 28.454 146.649 28.2543 146.823C28.0561 146.998 27.7948 147.086 27.4703 147.086C27.1427 147.086 26.8798 146.998 26.6816 146.823C26.485 146.647 26.3868 146.412 26.3868 146.119C26.3868 145.935 26.4367 145.769 26.5365 145.621C26.6379 145.472 26.7776 145.36 26.9554 145.284C26.8041 145.209 26.6848 145.105 26.5974 144.972C26.51 144.84 26.4663 144.689 26.4663 144.521C26.4663 144.234 26.5584 144.006 26.7425 143.837C26.9266 143.669 27.1692 143.585 27.4703 143.585C27.7698 143.585 28.0117 143.669 28.1958 143.837C28.3814 144.006 28.4743 144.234 28.4743 144.521ZM28.1209 146.11C28.1209 145.919 28.06 145.764 27.9383 145.644C27.8182 145.524 27.6606 145.464 27.4656 145.464C27.2706 145.464 27.1138 145.523 26.9952 145.642C26.8782 145.76 26.8197 145.916 26.8197 146.11C26.8197 146.303 26.8767 146.455 26.9905 146.566C27.106 146.677 27.2659 146.732 27.4703 146.732C27.6731 146.732 27.8323 146.677 27.9477 146.566C28.0632 146.454 28.1209 146.302 28.1209 146.11ZM27.4703 143.94C27.3002 143.94 27.1622 143.993 27.0561 144.099C26.9515 144.204 26.8993 144.347 26.8993 144.528C26.8993 144.701 26.9508 144.841 27.0537 144.949C27.1583 145.055 27.2971 145.108 27.4703 145.108C27.6435 145.108 27.7816 145.055 27.8845 144.949C27.9891 144.841 28.0413 144.701 28.0413 144.528C28.0413 144.354 27.9875 144.213 27.8798 144.104C27.7722 143.995 27.6357 143.94 27.4703 143.94ZM30.0446 145.768H28.9025V145.415H30.0446V145.768ZM32.6563 147.039H30.4237V146.728L31.6032 145.417C31.7779 145.219 31.8981 145.058 31.9636 144.935C32.0307 144.81 32.0642 144.681 32.0642 144.549C32.0642 144.371 32.0104 144.225 31.9027 144.111C31.7951 143.997 31.6516 143.94 31.4721 143.94C31.2568 143.94 31.0891 144.002 30.969 144.125C30.8504 144.247 30.7911 144.417 30.7911 144.635H30.3582C30.3582 144.322 30.4588 144.068 30.6601 143.875C30.8629 143.681 31.1336 143.585 31.4721 143.585C31.7889 143.585 32.0393 143.668 32.2234 143.835C32.4075 144 32.4995 144.221 32.4995 144.497C32.4995 144.833 32.2858 145.232 31.8583 145.695L30.9456 146.685H32.6563V147.039ZM34.9427 145.894H35.4155V146.248H34.9427V147.039H34.5075V146.248H32.9559V145.993L34.4817 143.631H34.9427V145.894ZM33.4473 145.894H34.5075V144.223L34.456 144.317L33.4473 145.894Z" fill="#8794BA"/>
<path d="M115.41 145.124H115.735C115.94 145.121 116.1 145.067 116.217 144.963C116.334 144.858 116.393 144.717 116.393 144.539C116.393 144.14 116.194 143.94 115.796 143.94C115.609 143.94 115.459 143.994 115.347 144.102C115.236 144.208 115.181 144.349 115.181 144.525H114.748C114.748 144.255 114.846 144.032 115.043 143.854C115.241 143.674 115.492 143.585 115.796 143.585C116.118 143.585 116.37 143.67 116.552 143.84C116.735 144.01 116.826 144.246 116.826 144.549C116.826 144.697 116.778 144.84 116.681 144.979C116.586 145.118 116.455 145.222 116.29 145.291C116.477 145.35 116.621 145.448 116.723 145.585C116.826 145.723 116.877 145.89 116.877 146.089C116.877 146.394 116.778 146.637 116.578 146.816C116.378 146.996 116.118 147.086 115.799 147.086C115.479 147.086 115.218 146.999 115.017 146.826C114.817 146.653 114.717 146.424 114.717 146.14H115.153C115.153 146.32 115.211 146.463 115.328 146.571C115.445 146.678 115.602 146.732 115.799 146.732C116.008 146.732 116.167 146.678 116.278 146.568C116.389 146.459 116.444 146.302 116.444 146.098C116.444 145.9 116.384 145.748 116.262 145.642C116.14 145.536 115.965 145.481 115.735 145.478H115.41V145.124ZM117.671 145.33L117.844 143.631H119.59V144.032H118.211L118.108 144.961C118.275 144.862 118.465 144.813 118.677 144.813C118.987 144.813 119.234 144.916 119.417 145.122C119.599 145.326 119.69 145.603 119.69 145.953C119.69 146.304 119.595 146.581 119.405 146.784C119.216 146.985 118.952 147.086 118.611 147.086C118.31 147.086 118.065 147.002 117.874 146.835C117.684 146.668 117.576 146.437 117.549 146.142H117.959C117.985 146.337 118.055 146.485 118.167 146.585C118.279 146.683 118.427 146.732 118.611 146.732C118.813 146.732 118.97 146.664 119.084 146.526C119.2 146.389 119.257 146.199 119.257 145.958C119.257 145.73 119.195 145.547 119.07 145.41C118.947 145.271 118.782 145.202 118.576 145.202C118.388 145.202 118.239 145.243 118.132 145.326L118.017 145.419L117.671 145.33ZM121.109 145.768H119.966V145.415H121.109V145.768ZM123.315 145.894H123.788V146.248H123.315V147.039H122.88V146.248H121.329V145.993L122.854 143.631H123.315V145.894ZM121.82 145.894H122.88V144.223L122.829 144.317L121.82 145.894ZM126.007 145.894H126.479V146.248H126.007V147.039H125.571V146.248H124.02V145.993L125.546 143.631H126.007V145.894ZM124.511 145.894H125.571V144.223L125.52 144.317L124.511 145.894Z" fill="#8794BA"/>
<path d="M209.934 143.629V143.996H209.854C209.517 144.003 209.249 144.103 209.049 144.296C208.85 144.489 208.734 144.762 208.703 145.113C208.882 144.907 209.127 144.804 209.438 144.804C209.734 144.804 209.971 144.908 210.147 145.117C210.325 145.326 210.414 145.596 210.414 145.927C210.414 146.278 210.318 146.559 210.126 146.77C209.936 146.98 209.68 147.086 209.358 147.086C209.032 147.086 208.768 146.961 208.565 146.711C208.362 146.46 208.261 146.137 208.261 145.742V145.576C208.261 144.949 208.394 144.47 208.661 144.139C208.929 143.807 209.328 143.637 209.857 143.629H209.934ZM209.365 145.164C209.217 145.164 209.081 145.209 208.956 145.298C208.831 145.387 208.744 145.498 208.696 145.632V145.791C208.696 146.072 208.759 146.298 208.886 146.47C209.012 146.642 209.169 146.728 209.358 146.728C209.553 146.728 209.706 146.656 209.817 146.512C209.929 146.369 209.985 146.181 209.985 145.948C209.985 145.714 209.929 145.525 209.815 145.382C209.702 145.237 209.553 145.164 209.365 145.164ZM211.125 145.33L211.298 143.631H213.044V144.032H211.666L211.563 144.961C211.73 144.862 211.919 144.813 212.131 144.813C212.442 144.813 212.688 144.916 212.871 145.122C213.054 145.326 213.145 145.603 213.145 145.953C213.145 146.304 213.05 146.581 212.859 146.784C212.671 146.985 212.406 147.086 212.066 147.086C211.765 147.086 211.519 147.002 211.329 146.835C211.138 146.668 211.03 146.437 211.003 146.142H211.413C211.44 146.337 211.509 146.485 211.621 146.585C211.734 146.683 211.882 146.732 212.066 146.732C212.267 146.732 212.425 146.664 212.539 146.526C212.654 146.389 212.712 146.199 212.712 145.958C212.712 145.73 212.649 145.547 212.525 145.41C212.401 145.271 212.237 145.202 212.031 145.202C211.842 145.202 211.694 145.243 211.586 145.326L211.472 145.419L211.125 145.33ZM214.902 145.211H215.852V145.621H214.902V146.697H214.467V145.621H213.517V145.211H214.467V144.216H214.902V145.211Z" fill="#8794BA"/>
<path opacity="0.1" d="M145.718 80.5305L173.272 83.9255L194.863 68.1865L216.453 47.1803V138.843H25.1387V129.076L42.0491 118.808L59.9592 109.074L89.0615 114.797L118.164 115.302L145.718 80.5305Z" fill="#EF2A82"/>
<path d="M216.653 47.1803L194.863 67.1505L173.272 83.5261L145.718 80.5305L118.164 115.402L89.0615 114.895L59.9592 109.138L42.0491 118.929L25.1387 129.258" stroke="#EF2A82" stroke-width="1.59762"/>
<path d="M216.653 37.5946L194.863 40.1907L173.272 70.7451L145.718 63.7556L118.164 97.9046L89.0614 106.292L59.9592 95.1088L42.0491 91.9695L25.3384 115.878" stroke="#0088F0" stroke-width="1.59762"/>
</svg>
