<?xml version="1.0" standalone="no"?>
<!DOCTYPE svg PUBLIC "-//W3C//DTD SVG 20010904//EN"
 "http://www.w3.org/TR/2001/REC-SVG-20010904/DTD/svg10.dtd">
<svg version="1.0" xmlns="http://www.w3.org/2000/svg"
 width="1080.000000pt" height="720.000000pt" viewBox="0 0 1080.000000 720.000000"
 preserveAspectRatio="xMidYMid meet">

<g transform="translate(0.000000,720.000000) scale(0.100000,-0.100000)"
fill="#000000" stroke="none">
<path d="M4830 6840 c0 -5 5 -10 10 -10 6 0 10 5 10 10 0 6 -4 10 -10 10 -5 0
-10 -4 -10 -10z"/>
<path d="M4980 6790 c21 -7 21 -8 5 -9 -18 -1 -18 -3 7 -25 23 -22 30 -24 62
-15 20 5 36 12 36 15 0 3 -10 2 -22 -1 -17 -6 -20 -4 -15 9 4 10 3 15 -3 11
-6 -3 -10 -2 -10 4 0 5 6 12 13 14 6 3 -13 5 -43 5 -42 0 -49 -2 -30 -8z"/>
<path d="M3690 6670 c0 -5 7 -10 15 -10 8 0 15 5 15 10 0 6 -7 10 -15 10 -8 0
-15 -4 -15 -10z"/>
<path d="M6750 6656 c0 -18 38 -46 60 -46 9 0 25 7 36 15 14 11 15 14 3 9 -22
-7 -36 15 -18 27 9 6 -3 9 -33 9 -35 0 -48 -4 -48 -14z"/>
<path d="M3658 6633 c7 -3 16 -2 19 1 4 3 -2 6 -13 5 -11 0 -14 -3 -6 -6z"/>
<path d="M6948 6633 c7 -3 16 -2 19 1 4 3 -2 6 -13 5 -11 0 -14 -3 -6 -6z"/>
<path d="M3876 6603 c10 -7 23 -13 28 -13 6 0 5 -4 -3 -9 -10 -7 -6 -14 17
-31 17 -13 28 -28 25 -33 -8 -13 63 1 100 20 16 8 26 17 23 21 -4 3 -12 0 -18
-6 -15 -15 -48 -16 -48 -1 0 5 6 7 13 3 8 -6 8 -3 -1 9 -8 9 -11 21 -7 27 8
14 -7 18 -84 23 -54 3 -61 2 -45 -10z"/>
<path d="M4183 6553 c9 -2 23 -2 30 0 6 3 -1 5 -18 5 -16 0 -22 -2 -12 -5z"/>
<path d="M7690 6431 c0 -6 5 -13 10 -16 6 -3 10 1 10 9 0 9 -4 16 -10 16 -5 0
-10 -4 -10 -9z"/>
<path d="M4386 6395 c10 -8 23 -15 28 -15 6 0 1 7 -10 15 -10 8 -23 15 -28 15
-6 0 -1 -7 10 -15z"/>
<path d="M7885 6400 c-27 -7 -28 -8 -5 -8 14 0 34 3 45 8 25 11 2 11 -40 0z"/>
<path d="M7670 6392 c0 -12 19 -26 26 -19 2 2 -2 10 -11 17 -9 8 -15 8 -15 2z"/>
<path d="M4434 6362 c11 -17 74 -42 105 -41 28 0 23 4 -44 26 -16 6 -39 14
-49 18 -14 6 -17 5 -12 -3z"/>
<path d="M4763 6338 c2 -7 10 -13 17 -13 7 0 15 6 18 13 2 7 -5 12 -18 12 -13
0 -20 -5 -17 -12z"/>
<path d="M7890 6337 c0 -23 54 -62 83 -59 28 3 36 17 15 25 -10 4 -10 6 0 6
26 2 10 21 -25 30 -51 14 -73 14 -73 -2z"/>
<path d="M4855 6330 c3 -5 8 -10 11 -10 2 0 4 5 4 10 0 6 -5 10 -11 10 -5 0
-7 -4 -4 -10z"/>
<path d="M8118 6323 c6 -2 18 -2 25 0 6 3 1 5 -13 5 -14 0 -19 -2 -12 -5z"/>
<path d="M8030 6310 c-9 -6 -10 -10 -3 -10 6 0 15 5 18 10 8 12 4 12 -15 0z"/>
<path d="M7750 6289 c0 -6 5 -19 10 -30 13 -24 60 -26 60 -3 0 10 -6 14 -15
10 -8 -3 -15 -1 -15 4 0 6 -8 10 -17 10 -15 0 -16 2 -3 10 13 8 12 10 -2 10
-10 0 -18 -5 -18 -11z"/>
<path d="M4193 6273 c9 -2 25 -2 35 0 9 3 1 5 -18 5 -19 0 -27 -2 -17 -5z"/>
<path d="M4260 6262 c0 -12 51 -52 90 -69 40 -19 64 -19 81 -3 9 8 31 23 49
33 41 22 30 37 -34 44 -64 8 -99 -3 -93 -27 6 -23 -23 -28 -45 -7 -30 28 -48
39 -48 29z"/>
<path d="M7835 6260 c3 -5 15 -10 26 -10 11 0 17 5 14 10 -3 6 -15 10 -26 10
-11 0 -17 -4 -14 -10z"/>
<path d="M7586 6215 c10 -8 23 -15 28 -15 6 0 1 7 -10 15 -10 8 -23 15 -28 15
-6 0 -1 -7 10 -15z"/>
<path d="M7630 6192 c0 -11 78 -52 98 -52 7 0 12 5 12 10 0 6 -9 10 -19 10
-11 0 -36 9 -55 21 -20 12 -36 16 -36 11z"/>
<path d="M7953 6158 c2 -7 10 -13 17 -13 7 0 15 6 18 13 2 7 -5 12 -18 12 -13
0 -20 -5 -17 -12z"/>
<path d="M5527 6109 c8 -8 8 -20 3 -34 -5 -13 -7 -25 -4 -28 8 -8 -62 -18 -82
-11 -18 5 -18 5 0 -10 10 -8 23 -13 27 -10 5 3 9 -2 9 -12 0 -14 2 -14 16 -3
14 11 15 9 12 -16 -5 -43 -47 -69 -107 -66 -27 1 -59 -4 -70 -11 -16 -10 -23
-10 -33 0 -6 6 -33 12 -60 12 l-47 0 1 35 c1 19 7 36 15 39 15 6 36 54 28 66
-3 4 -14 6 -25 3 -15 -4 -20 -14 -20 -39 0 -18 -4 -36 -10 -39 -5 -3 -10 -19
-10 -35 0 -23 -3 -27 -20 -23 -11 3 -20 14 -20 24 0 11 -5 19 -11 19 -7 0 -9
-10 -7 -25 5 -25 -11 -46 -46 -59 -10 -3 -16 -12 -13 -20 5 -13 -25 -46 -43
-46 -5 0 -14 8 -20 18 -10 16 -12 15 -26 -5 -11 -15 -27 -23 -46 -23 -16 0
-31 -6 -33 -12 -4 -9 -27 -12 -81 -10 -80 4 -124 -2 -124 -17 0 -5 17 -7 39
-4 39 5 91 -17 91 -40 0 -6 -7 -4 -16 5 -14 14 -19 14 -45 1 -16 -8 -36 -24
-44 -36 -14 -20 -13 -22 10 -35 14 -7 25 -16 25 -21 0 -9 -62 -37 -103 -46
-15 -3 -27 -11 -26 -18 8 -50 -81 -116 -97 -72 -4 8 -15 15 -25 15 -35 0 -160
-69 -221 -122 -29 -25 -111 -171 -102 -181 3 -3 -3 -33 -15 -66 -25 -72 -27
-114 -6 -131 9 -7 15 -28 14 -49 0 -21 -3 -30 -7 -21 -4 8 -20 15 -37 15 -16
1 -40 4 -52 9 -19 6 -23 4 -23 -13 0 -11 -4 -22 -9 -25 -5 -3 -12 -23 -16 -43
-15 -87 -27 -113 -52 -113 -12 0 -23 -4 -23 -9 0 -5 -12 -12 -26 -15 -20 -5
-23 -10 -15 -20 6 -7 7 -17 3 -22 -4 -4 1 -2 11 5 9 8 20 11 24 7 3 -3 1 -6
-6 -6 -7 0 -10 -4 -7 -9 3 -5 -6 -12 -20 -15 -21 -6 -25 -12 -22 -39 2 -24 13
-38 45 -60 24 -15 50 -44 60 -65 9 -20 23 -42 31 -47 10 -9 9 -11 -7 -11 -12
0 -21 5 -21 11 0 5 -5 17 -10 25 -9 13 -11 13 -19 0 -13 -20 -21 -10 -26 35
-3 21 -8 41 -12 44 -6 6 -2 -26 16 -124 5 -30 5 -55 0 -61 -6 -7 -4 -16 6 -24
8 -7 15 -25 15 -41 0 -20 5 -29 16 -29 14 0 14 -3 4 -15 -10 -12 -9 -15 5 -15
12 0 16 -6 12 -19 -3 -11 1 -28 8 -38 7 -10 16 -33 20 -51 4 -18 16 -41 27
-52 11 -10 18 -25 15 -33 -3 -9 1 -14 10 -13 9 0 18 -5 20 -12 3 -7 -1 -10
-11 -6 -9 3 -16 2 -16 -4 0 -5 7 -12 15 -16 10 -4 13 -14 9 -36 -5 -20 -3 -30
6 -30 7 0 10 -7 6 -15 -3 -8 -1 -15 4 -15 6 0 10 -8 10 -18 0 -10 6 -24 13
-31 9 -11 9 -14 0 -18 -9 -3 -10 -10 -3 -24 7 -13 7 -19 0 -19 -5 0 -10 -5
-10 -10 0 -6 3 -9 8 -8 4 2 8 -1 9 -6 1 -5 7 -12 15 -17 10 -6 9 -11 -7 -23
-11 -9 -26 -16 -32 -16 -14 0 -18 -20 -5 -20 5 0 7 -13 4 -30 -3 -18 0 -30 7
-30 7 0 9 -11 7 -27 -3 -15 0 -33 6 -40 5 -7 8 -22 5 -34 -4 -15 2 -28 20 -45
13 -12 22 -28 18 -34 -4 -6 0 -17 9 -23 17 -13 34 -107 20 -107 -5 0 -18 12
-31 28 l-22 27 -1 -27 c0 -14 -6 -29 -12 -31 -7 -3 1 -3 17 -1 18 3 38 -1 50
-10 19 -14 19 -16 3 -32 -11 -11 -22 -14 -35 -9 -16 8 -16 9 5 12 12 3 22 8
22 13 0 11 -69 10 -76 -1 -3 -5 2 -9 10 -9 10 0 16 -9 16 -22 1 -26 22 -58 39
-58 13 0 15 -17 3 -22 -5 -1 -12 -25 -15 -52 -6 -38 -4 -47 6 -43 8 3 14 -1
14 -9 0 -8 -6 -13 -14 -10 -19 8 -43 -4 -43 -20 0 -8 -7 -14 -15 -14 -18 0
-20 17 -2 23 6 2 -3 6 -22 9 -30 4 -32 3 -17 -8 10 -7 15 -17 11 -23 -3 -7 2
-11 14 -11 17 0 18 -4 12 -27 -4 -16 -6 -33 -4 -39 5 -15 -23 -37 -37 -29 -6
3 -8 11 -5 16 6 9 -7 13 -32 10 -6 -1 -14 3 -18 9 -3 5 -11 10 -17 10 -7 0 -7
-4 1 -13 15 -18 4 -27 -32 -27 -41 0 -30 -9 19 -14 21 -2 33 -2 26 1 -15 6 -6
23 13 23 9 0 12 -8 10 -21 -3 -16 0 -19 15 -14 15 5 20 2 20 -12 0 -11 5 -24
12 -31 6 -6 9 -14 6 -18 -4 -3 -13 7 -22 23 -8 15 -15 22 -16 14 0 -11 -3 -11
-15 -1 -12 10 -15 9 -15 -4 0 -14 -4 -15 -20 -6 -11 6 -20 7 -20 3 0 -4 -7 1
-15 11 -20 26 -19 13 1 -25 11 -21 21 -29 33 -26 20 5 47 -28 31 -38 -6 -3
-10 1 -10 10 0 9 -6 15 -12 12 -7 -2 -12 -10 -10 -17 1 -7 -2 -18 -8 -25 -6
-8 -8 -30 -4 -56 7 -40 6 -43 -9 -30 -10 7 -17 26 -17 42 0 35 -16 46 -24 16
-9 -36 -7 -65 7 -71 6 -3 2 -3 -10 0 -17 4 -20 1 -17 -13 3 -10 1 -29 -5 -43
l-10 -25 0 23 c-1 15 -6 22 -13 19 -7 -2 -11 -11 -9 -18 2 -8 4 -20 4 -28 0
-8 9 -16 19 -19 10 -2 18 -12 17 -21 0 -10 -2 -11 -6 -3 -7 17 -23 15 -23 -3
0 -8 -4 -15 -10 -15 -5 0 -10 -9 -10 -21 0 -11 5 -17 10 -14 6 3 10 2 10 -4 0
-19 -19 -21 -30 -4 -10 16 -11 16 -6 1 3 -10 0 -23 -7 -30 -18 -19 -18 -68 -1
-85 13 -14 17 -13 29 3 12 16 14 16 15 3 0 -8 -7 -24 -15 -35 -20 -26 -19 -34
5 -34 13 0 18 -5 14 -15 -4 -8 -12 -15 -20 -15 -16 0 -19 -36 -4 -45 5 -3 10
3 10 14 0 29 17 26 24 -4 8 -32 1 -45 -27 -46 -12 0 2 -9 32 -19 47 -16 56
-16 68 -4 17 16 27 19 18 4 -7 -11 144 -6 280 10 44 5 101 12 126 15 25 3 83
12 129 20 47 8 88 11 93 6 5 -5 -10 -24 -34 -44 -39 -34 -41 -39 -36 -78 4
-32 16 -52 49 -86 24 -24 53 -46 66 -50 27 -7 29 -29 2 -38 -26 -8 -26 -25 0
-25 20 0 30 -23 30 -65 0 -11 4 -65 9 -120 19 -207 33 -484 29 -585 l-3 -105
-77 -3 c-89 -3 -81 -11 -128 123 -32 93 -32 115 -3 115 13 0 9 6 -13 20 -23
15 -35 33 -43 65 -6 25 -19 53 -29 63 -13 13 -15 23 -8 43 6 19 4 39 -10 74
l-18 48 -8 -29 c-4 -16 -13 -81 -18 -144 -12 -129 -35 -299 -48 -345 -10 -36
-67 -71 -131 -81 -39 -6 -47 -4 -63 16 -15 19 -18 41 -18 149 0 91 4 134 15
154 13 25 13 33 0 64 -16 38 -21 293 -9 387 6 42 11 49 49 72 23 13 66 31 94
40 39 11 57 23 71 47 11 17 17 33 14 36 -2 3 -50 -19 -105 -48 l-101 -52 3 38
c1 21 -2 61 -6 89 l-7 50 -112 18 c-129 20 -377 20 -478 0 -61 -12 -59 -12 98
-13 128 -1 164 -4 180 -16 17 -15 2 -15 -161 -9 -99 3 -183 11 -186 16 -4 6
-43 4 -106 -6 -55 -9 -138 -16 -184 -16 -72 0 -90 -4 -124 -25 -22 -13 -47
-25 -56 -25 -9 0 -37 -11 -63 -25 -43 -23 -56 -25 -184 -24 -75 1 -182 -2
-237 -6 -87 -6 -111 -4 -180 16 -44 12 -109 28 -145 34 -36 7 -83 20 -105 29
-22 8 -57 15 -78 16 -46 0 -208 61 -307 116 -41 22 -114 58 -163 78 -94 41
-316 152 -332 167 -5 5 -15 9 -23 9 -8 0 -27 11 -44 25 -31 27 -252 100 -271
91 -7 -3 -41 -26 -77 -52 -35 -25 -66 -41 -68 -35 -2 6 -9 11 -16 11 -7 0 -11
14 -10 37 2 39 -14 63 -43 64 -10 0 -13 3 -5 6 17 7 15 33 -3 33 -8 0 -15 5
-15 10 0 6 -7 10 -15 10 -8 0 -15 5 -15 11 0 6 -9 9 -19 6 -14 -3 -20 2 -23
18 -4 18 -1 22 11 18 9 -2 6 2 -6 9 -21 12 -19 14 37 31 48 14 60 21 60 38 0
11 -4 17 -10 14 -5 -3 -10 1 -10 10 0 9 -13 21 -30 26 -31 11 -41 29 -15 29 8
0 15 4 15 10 0 5 -7 7 -15 4 -8 -4 -15 -1 -15 5 0 6 6 11 13 11 7 0 4 7 -7 15
-11 8 -16 15 -10 15 5 0 1 5 -9 11 -9 5 -17 15 -17 22 0 8 -26 12 -90 12 -49
-1 -90 2 -90 5 0 3 6 12 12 19 11 11 9 11 -11 1 -18 -9 -25 -9 -31 0 -7 11
-35 9 -108 -5 -13 -2 -20 0 -16 6 3 6 -9 8 -34 5 -23 -3 -42 -1 -44 5 -2 5
-16 2 -32 -6 -31 -16 -70 -20 -62 -6 3 5 -1 11 -9 15 -8 3 -17 1 -20 -4 -3 -5
-12 -7 -20 -3 -13 4 -15 -166 -15 -1378 l1 -1384 34 -25 c19 -14 35 -28 35
-31 0 -4 -16 -10 -35 -13 -35 -7 -35 -7 -35 -61 l0 -55 307 0 306 0 -21 23
c-12 13 -22 26 -22 30 0 4 47 7 104 7 94 0 145 7 316 41 30 6 101 33 159 60
l105 50 47 -17 c64 -23 94 -13 154 51 78 83 88 84 164 14 70 -64 147 -107 200
-111 32 -3 37 1 59 40 13 23 62 144 109 270 47 125 114 292 149 371 35 79 62
147 59 149 -3 3 -21 0 -41 -6 -30 -9 -35 -8 -30 4 5 12 0 15 -22 11 -15 -2
-21 -2 -14 0 6 3 12 9 12 14 0 13 -34 11 -48 -3 -9 -9 -12 -8 -12 7 0 14 -8
10 -34 -20 -19 -21 -33 -42 -31 -46 6 -9 -38 -26 -106 -39 -48 -9 -66 -20
-137 -83 -130 -116 -181 -151 -292 -207 -100 -51 -109 -53 -200 -58 -78 -3
-122 1 -245 26 -166 33 -191 36 -485 57 -172 12 -212 18 -248 36 -42 21 -92
74 -92 97 0 20 82 256 98 280 14 21 19 22 154 20 l139 -2 16 -27 c23 -38 51
-49 88 -33 17 7 57 13 91 14 67 0 94 17 94 61 0 21 19 66 20 46 0 -4 12 -1 28
6 15 8 37 18 50 21 20 7 22 4 22 -31 0 -35 11 -116 25 -179 7 -31 39 -64 73
-73 17 -5 68 -12 114 -16 79 -6 86 -5 153 25 49 23 83 32 113 31 24 -1 68 3
98 9 44 9 60 19 85 50 31 38 31 38 90 33 41 -4 59 -2 59 6 0 7 30 11 91 11 77
0 96 3 121 21 28 20 29 25 23 68 -3 25 -8 54 -11 63 -3 9 5 25 17 36 30 29 49
69 49 106 0 39 21 88 35 81 97 -44 191 -76 218 -73 30 3 35 10 92 123 54 109
128 223 155 240 12 7 90 111 90 120 0 3 -3 4 -7 4 -5 -1 -30 -1 -57 0 l-50 1
35 25 c19 14 42 24 51 21 10 -2 21 0 24 6 3 5 14 2 26 -9 22 -19 7 -23 173 42
86 33 130 44 172 45 21 0 38 8 50 23 47 59 69 67 175 67 101 0 132 -8 156 -41
10 -15 21 -17 62 -12 43 5 50 4 44 -10 -7 -18 -69 -62 -103 -72 -22 -7 -23 -5
-17 28 6 33 5 35 -16 30 -55 -13 -195 -55 -215 -65 -13 -6 -25 -9 -28 -6 -3 3
-42 -31 -87 -75 -80 -78 -81 -80 -70 -110 7 -17 8 -33 3 -36 -12 -9 -41 -68
-41 -85 0 -20 32 -86 41 -86 4 0 17 13 29 30 12 16 28 30 35 30 19 0 31 25 39
80 4 25 10 58 13 74 4 22 2 27 -8 20 -19 -11 -69 -14 -69 -4 0 12 65 59 103
74 17 8 83 17 146 20 109 7 171 24 171 46 0 6 5 10 10 10 6 0 28 13 50 29 21
15 54 34 72 41 18 7 45 24 60 38 26 24 26 24 83 7 42 -12 68 -28 100 -61 37
-38 49 -44 85 -44 23 0 64 10 91 21 27 12 51 20 54 18 2 -3 5 -30 6 -62 2 -40
-2 -62 -13 -74 -13 -14 -16 -44 -16 -143 0 -69 -5 -137 -11 -152 -11 -29 -28
-34 -96 -29 -138 10 -201 6 -245 -18 -25 -13 -47 -26 -50 -30 -3 -3 -25 -22
-50 -41 -53 -41 -148 -141 -191 -200 -32 -44 -71 -65 -137 -76 -109 -17 -164
-86 -197 -249 l-6 -30 22 30 c31 41 168 175 179 175 5 0 15 6 22 12 45 43 142
121 193 155 34 23 67 48 74 57 19 22 34 20 26 -4 -8 -25 7 -26 28 -2 22 24 23
66 2 58 -18 -6 -18 -4 -4 27 25 55 105 75 232 57 66 -9 98 -9 142 0 47 10 59
10 66 -2 12 -18 11 -165 -1 -187 -13 -25 -97 -59 -165 -67 -42 -5 -66 -14 -89
-34 -51 -44 -70 -50 -182 -55 -122 -5 -134 -11 -194 -86 -57 -73 -55 -82 12
-48 28 15 73 24 147 30 135 11 168 21 222 64 24 19 53 35 63 35 10 0 50 9 88
20 37 12 72 19 77 16 5 -3 11 -23 15 -44 6 -39 25 -63 60 -76 18 -6 17 -9 -12
-26 -18 -11 -37 -20 -42 -20 -19 0 -180 -86 -270 -145 -52 -34 -125 -79 -161
-100 -75 -43 -99 -75 -99 -134 l0 -41 -52 0 c-35 -1 -68 -9 -98 -24 l-45 -24
-37 19 c-21 11 -38 26 -38 34 0 8 18 63 41 122 50 131 69 192 68 218 0 18 -1
18 -17 -4 -9 -14 -37 -75 -62 -136 -32 -78 -61 -130 -98 -175 -29 -36 -60 -81
-69 -102 -15 -34 -41 -49 -92 -52 -19 -1 -29 -34 -23 -76 2 -19 5 -64 6 -100
1 -36 2 -91 4 -122 l2 -58 38 0 39 0 48 148 c26 81 54 153 61 161 11 12 32 6
143 -47 71 -34 134 -62 140 -62 19 0 12 -26 -19 -68 -37 -52 -37 -65 -2 -88
15 -10 33 -24 40 -31 8 -7 36 -13 65 -13 l52 0 -39 23 c-22 12 -44 29 -49 38
-13 22 0 89 18 89 8 0 72 -33 142 -73 l128 -72 535 -2 535 -3 -54 30 c-30 17
-56 30 -58 30 -8 0 -178 144 -218 184 -27 28 -172 106 -197 106 -18 0 -212 91
-231 108 -13 11 -17 25 -13 43 5 27 4 27 -27 18 -50 -14 -177 -12 -232 5 -28
9 -81 20 -119 25 -37 5 -71 12 -74 15 -6 7 31 37 107 88 31 21 61 42 67 47 13
10 161 81 242 115 32 14 135 46 228 72 l169 48 230 2 c127 1 266 5 310 9 152
13 745 17 855 5 248 -27 451 -80 709 -187 111 -46 174 -88 247 -166 297 -317
303 -324 474 -521 56 -65 70 -75 98 -76 19 0 40 8 52 20 11 11 27 20 35 20 8
0 23 -9 32 -20 15 -17 30 -20 95 -20 43 0 78 2 78 5 0 3 -13 24 -30 47 -16 22
-30 47 -30 55 0 26 120 141 154 148 17 3 53 11 79 18 47 11 49 10 73 -18 14
-17 37 -49 51 -73 14 -24 27 -41 30 -39 2 3 -1 42 -6 87 -6 45 -8 87 -4 93 3
5 2 7 -4 4 -5 -3 -20 11 -34 33 -25 40 -55 60 -89 60 -24 0 -25 15 -4 86 10
34 14 77 11 112 -6 81 -29 209 -35 194 -3 -10 -8 -8 -18 5 -12 17 -13 16 -14
-8 0 -23 -44 -165 -120 -383 -9 -28 -23 -52 -31 -54 -8 -3 -16 -8 -19 -11 -3
-3 -24 -19 -48 -34 -23 -15 -76 -60 -118 -99 -41 -39 -76 -69 -78 -67 -51 66
-86 128 -86 153 0 61 42 154 102 226 16 19 45 60 65 90 34 53 35 56 23 102 -9
36 -9 52 1 69 15 29 26 199 12 199 -6 0 -13 -20 -17 -45 -3 -25 -11 -56 -18
-68 -7 -12 -13 -35 -13 -51 0 -24 -7 -33 -45 -53 -58 -31 -136 -107 -162 -158
-23 -45 -66 -95 -82 -95 -6 0 -38 21 -71 46 -33 25 -77 57 -97 70 -21 13 -38
32 -38 42 1 17 89 143 230 328 98 127 93 118 75 154 -16 31 -16 31 36 96 l52
65 22 -23 c12 -13 21 -25 19 -27 -5 -6 37 -46 44 -41 9 7 2 134 -8 140 -4 3
-11 21 -15 40 -7 31 -38 97 -73 154 -20 32 -9 162 17 211 27 51 27 55 -6 55
-35 0 -86 31 -155 95 -60 55 -78 95 -52 115 13 12 10 15 -23 27 -91 34 -101
35 -159 16 -36 -11 -65 -28 -81 -48 l-26 -30 33 -3 c33 -4 64 -24 53 -36 -17
-16 -90 -5 -127 20 -27 18 -37 22 -34 11 1 -8 32 -35 67 -59 36 -23 66 -47 68
-53 3 -11 -74 -10 -164 0 -46 6 -53 5 -63 -15 -19 -35 1 -46 52 -30 76 24 183
4 210 -40 7 -11 23 -20 35 -20 43 0 137 -43 170 -78 18 -19 33 -39 33 -43 0
-5 5 -9 10 -9 6 0 10 -6 10 -14 0 -7 11 -33 23 -57 43 -80 50 -114 32 -148
-19 -38 -34 -39 -111 -2 -57 27 -65 35 -113 115 -65 108 -111 148 -161 141
-75 -11 -131 -12 -182 -2 -29 5 -82 11 -118 12 -36 2 -80 5 -98 7 -25 3 -39
-1 -55 -19 -12 -12 -36 -25 -54 -29 -17 -3 -34 -13 -37 -21 -11 -28 53 -61 95
-50 15 4 34 -4 58 -23 36 -29 94 -55 199 -89 227 -73 229 -73 266 -61 20 6 39
16 42 21 3 6 17 -6 30 -25 15 -21 47 -47 77 -62 113 -57 126 -77 82 -128 -13
-16 -27 -37 -30 -47 -4 -11 -10 -19 -15 -19 -10 0 -185 37 -230 48 -19 5 -62
15 -95 22 -33 7 -71 16 -85 20 -14 5 -79 25 -145 45 -66 20 -127 41 -135 46
-8 5 -26 15 -40 22 -14 6 -39 26 -56 44 -17 17 -49 37 -72 44 -23 7 -42 16
-42 22 0 5 -7 7 -15 3 -8 -3 -18 1 -22 8 -13 22 -268 57 -488 66 -173 8 -224
14 -380 47 -157 33 -196 38 -305 37 -69 -1 -136 -3 -150 -5 -24 -4 -26 0 -36
61 -22 120 -20 125 34 145 26 10 62 27 81 37 31 18 34 18 46 2 9 -13 35 -19
107 -24 52 -4 104 -12 116 -19 11 -6 54 -11 95 -11 64 0 82 4 133 31 l58 31
22 -25 c40 -47 79 -59 209 -65 127 -5 207 10 235 44 18 21 28 17 45 -16 16
-31 16 -31 91 -28 41 2 74 7 74 13 0 6 -3 10 -7 10 -12 0 -53 31 -49 36 3 2 7
30 10 62 l6 57 -88 0 c-98 0 -132 -7 -132 -25 0 -21 -28 -37 -67 -37 -119 -2
-385 4 -381 8 3 2 28 5 57 5 45 1 50 4 39 17 -10 12 -10 16 0 19 6 3 12 11 12
18 0 17 -50 29 -63 16 -15 -15 -27 -14 -27 4 0 20 -10 19 -35 -5 -14 -13 -39
-21 -84 -24 -35 -3 -65 -7 -68 -9 -2 -3 -18 -1 -34 3 -20 6 -29 5 -29 -3 0 -7
-7 -4 -14 6 -7 9 -19 17 -27 17 -8 0 -1 7 15 15 35 18 39 19 30 3 -5 -9 -2 -9
9 1 9 7 17 21 18 30 0 11 2 12 6 3 6 -15 73 45 73 65 0 7 7 10 15 7 9 -4 15 0
15 10 0 9 8 16 18 16 9 0 28 9 42 20 17 13 28 15 36 9 9 -7 14 -4 19 10 3 12
13 21 21 21 8 0 14 9 14 20 0 11 6 20 13 20 6 0 25 21 41 47 28 43 118 144
120 134 2 -11 100 46 113 66 8 11 26 24 40 28 34 8 153 106 152 125 0 10 -2
11 -6 2 -2 -6 -9 -9 -14 -6 -6 3 -16 1 -23 -5 -7 -6 -29 -10 -49 -9 -30 1 -37
5 -38 22 -2 33 2 50 14 59 7 5 1 5 -13 0 -14 -4 -61 -8 -105 -8 -83 1 -100 7
-187 74 -18 15 -41 21 -77 21 -39 0 -53 4 -61 19 -7 14 -16 18 -32 14 -23 -6
-23 -6 -4 15 11 12 15 22 11 22 -4 0 -1 8 8 18 10 10 14 22 11 25 -4 4 2 10
12 13 10 4 26 13 34 19 18 15 122 51 173 60 20 3 37 8 37 10 0 15 -25 55 -34
55 -7 0 -29 9 -50 20 -22 10 -66 22 -98 26 -37 4 -62 12 -65 21 -9 22 5 28 55
26 30 -1 62 5 89 18 42 20 65 21 168 5 66 -11 118 -29 159 -54 35 -22 46 -24
85 -16 l46 9 1 58 c0 52 -3 61 -38 103 -21 25 -38 50 -38 55 0 5 -17 26 -38
45 -28 28 -47 37 -80 40 -49 5 -83 20 -152 70 -44 32 -53 34 -125 34 -74 0
-77 1 -72 21 6 21 -2 31 -64 84 -79 68 -90 119 -69 321 12 119 35 186 69 199
24 9 84 -62 136 -162 27 -53 57 -100 65 -104 8 -3 57 -26 108 -50 l94 -44 -39
-9 c-46 -10 -39 -5 -47 -41 -7 -39 16 -74 38 -56 8 7 17 8 20 3 6 -11 55 -4
73 10 7 6 19 8 27 5 8 -3 19 0 25 7 7 8 25 16 41 20 17 3 33 13 36 21 9 21 -5
33 -16 15 -7 -11 -10 -12 -10 -2 0 7 -4 10 -10 7 -5 -3 -10 -1 -10 5 0 6 6 10
13 9 26 -5 135 15 187 34 126 45 204 142 224 277 31 207 42 241 79 237 12 -1
30 -9 40 -18 26 -23 47 -161 49 -319 0 -74 5 -143 10 -152 6 -12 5 -18 -3 -18
-6 0 -9 -6 -6 -13 3 -8 -1 -40 -8 -73 -7 -32 -16 -85 -19 -116 -6 -53 -5 -58
14 -58 22 0 26 23 11 63 -8 20 -6 29 9 42 10 9 16 23 13 31 -3 8 1 14 11 14
13 0 16 9 15 38 -3 85 4 157 17 177 17 27 12 119 -9 166 -18 39 -24 60 -32
108 -3 19 -9 39 -12 44 -4 6 0 8 10 4 10 -4 21 2 30 16 8 12 35 32 61 45 40
21 47 28 52 63 5 27 17 48 40 69 19 16 34 32 34 35 0 3 -15 5 -33 5 -45 0 -51
9 -24 36 12 12 32 36 45 53 13 17 31 32 40 32 9 1 4 4 -13 8 -24 5 -30 11 -29
31 0 14 7 37 14 52 10 20 10 39 1 85 -23 119 -28 139 -49 173 -12 19 -22 43
-22 54 0 15 -5 17 -30 13 -27 -6 -30 -4 -30 19 0 29 82 114 110 114 10 0 22 5
25 11 5 7 -4 9 -26 7 -31 -3 -34 0 -33 22 1 21 -4 25 -28 27 -15 1 -28 -2 -28
-6 0 -5 -15 -5 -32 -2 -30 6 -33 11 -39 51 -4 25 -17 62 -29 82 -12 21 -20 49
-18 65 3 25 7 28 42 28 26 0 40 -5 43 -15 3 -8 14 -36 25 -61 12 -28 19 -61
17 -84 -2 -22 1 -40 7 -42 15 -5 18 125 5 160 -6 15 -17 27 -26 27 -21 0 -19
18 5 32 29 19 24 31 -10 23 -40 -9 -67 1 -73 28 -2 12 -8 30 -12 40 -5 12 -3
17 9 17 11 0 4 12 -21 38 -35 34 -40 37 -63 26 -62 -31 -93 -41 -109 -37 -21
5 -41 66 -29 87 7 12 4 16 -11 16 -11 0 -24 -7 -29 -16 -8 -15 -11 -14 -25 5
-9 14 -16 18 -19 10 -3 -9 -9 -9 -26 0 -12 6 -22 16 -22 21 0 6 -8 10 -17 10
-15 0 -16 2 -3 10 28 18 68 11 89 -16 15 -19 21 -22 21 -10 0 20 -77 69 -96
62 -8 -3 -14 0 -14 6 0 6 -3 8 -7 4 -4 -4 -8 -15 -8 -23 0 -24 -26 -28 -31 -5
-3 10 -20 26 -37 35 -29 14 -30 16 -9 16 21 1 23 4 17 31 -4 19 -3 30 4 30 6
0 11 4 11 9 0 5 -22 11 -48 15 -27 3 -57 12 -67 20 -18 13 -17 14 11 29 44 22
69 53 52 64 -19 12 -157 10 -155 -2 1 -5 -4 -9 -10 -7 -16 3 -17 -10 -1 -26 9
-9 8 -12 -4 -12 -9 0 -35 16 -58 35 -47 39 -49 39 -229 36 -135 -3 -153 4
-125 46 12 19 12 26 2 43 -7 11 -17 20 -22 20 -6 0 -5 -5 1 -11z m243 -138 c0
-13 -8 -17 -45 -24 -16 -4 -24 -4 -17 -1 6 3 12 12 12 20 0 8 10 14 25 14 14
0 25 -4 25 -9z m-10 -561 c0 -5 9 -10 21 -10 12 0 18 -4 13 -11 -5 -8 8 -9 44
-4 32 4 52 3 57 -4 3 -6 16 -11 28 -11 12 0 43 -11 69 -25 26 -14 56 -25 68
-25 11 0 20 -4 20 -10 0 -5 5 -10 12 -10 7 0 28 -11 47 -24 20 -13 76 -49 124
-81 49 -32 91 -65 95 -74 3 -9 8 -18 11 -21 12 -10 40 -80 47 -116 4 -21 18
-62 31 -91 12 -30 23 -61 23 -70 0 -22 17 -77 41 -131 27 -61 24 -173 -4 -155
-6 3 -22 8 -36 9 -14 1 -55 5 -91 9 -36 3 -81 9 -100 12 -19 4 -39 6 -43 5 -4
-1 -21 5 -37 13 -34 18 -64 20 -54 4 4 -8 -1 -9 -17 -4 -33 11 -32 11 -135 2
-98 -8 -226 -32 -255 -47 -10 -6 -29 -10 -42 -10 -13 0 -45 -9 -71 -21 -50
-22 -118 -32 -206 -31 -78 1 -89 2 -95 13 -4 5 -15 9 -26 9 -10 0 -19 4 -19 9
0 6 -18 20 -39 32 -22 12 -40 25 -39 28 2 18 -3 31 -11 28 -5 -1 -20 11 -34
27 -21 25 -27 27 -47 16 -15 -8 -20 -8 -16 -1 4 6 0 11 -8 11 -21 0 -20 16 0
24 12 5 13 10 6 19 -13 15 -6 27 32 51 16 10 24 21 19 25 -16 10 -24 41 -10
41 19 0 40 37 24 43 -18 6 -4 17 26 19 24 2 25 4 10 20 -11 12 -13 26 -8 45 9
37 8 38 -17 38 -16 0 -21 7 -24 33 -4 34 4 40 24 20 9 -9 12 -3 12 30 0 27 -5
45 -14 48 -12 4 -12 10 1 35 14 28 14 31 -3 44 -21 15 -25 44 -7 63 15 16 24
15 17 -2 -3 -8 -1 -17 5 -21 6 -3 11 0 11 8 0 9 13 14 40 15 32 2 40 -2 41
-16 0 -13 3 -12 11 6 9 17 19 22 53 22 22 0 46 5 53 12 9 9 12 9 12 -1 0 -8 7
-10 20 -6 12 4 20 2 20 -5 0 -6 11 1 25 16 19 20 22 30 14 40 -21 26 2 37 96
48 37 4 60 12 105 37 38 20 80 25 80 9z m-600 -342 c0 -16 -3 -19 -11 -11 -6
6 -8 16 -5 22 11 17 16 13 16 -11z m0 -148 c0 -5 -5 -10 -11 -10 -5 0 -7 5 -4
10 3 6 8 10 11 10 2 0 4 -4 4 -10z m-1000 -49 c0 -17 -3 -32 -7 -34 -16 -9
-53 13 -53 31 0 25 8 32 37 32 19 0 23 -5 23 -29z m-76 3 c5 -14 4 -15 -9 -4
-17 14 -19 20 -6 20 5 0 12 -7 15 -16z m1021 -84 c-5 -15 -2 -20 11 -20 28 0
7 -13 -26 -15 -36 -3 -37 1 -8 32 26 28 31 29 23 3z m1607 -232 c-7 -7 -12 -8
-12 -2 0 14 12 26 19 19 2 -3 -1 -11 -7 -17z m-272 -62 c0 -16 -18 -31 -27
-22 -8 8 5 36 17 36 5 0 10 -6 10 -14z m110 -28 c0 -16 -3 -19 -11 -11 -6 6
-8 16 -5 22 11 17 16 13 16 -11z m-301 -17 c44 -23 87 -83 101 -143 15 -65 12
-217 -5 -275 -32 -107 -103 -169 -225 -197 -91 -20 -206 -21 -253 -1 -20 8
-48 15 -62 15 -47 0 -143 114 -186 222 -29 73 -40 268 -15 268 9 0 16 5 16 10
0 6 8 5 19 -2 14 -8 20 -23 19 -49 0 -20 3 -42 6 -48 4 -6 1 -11 -6 -12 -10 0
-10 -2 0 -6 6 -2 12 -11 12 -19 0 -8 6 -11 17 -7 11 4 14 3 9 -5 -4 -7 -2 -12
4 -12 6 0 15 -10 21 -23 5 -12 26 -33 45 -46 18 -13 34 -30 34 -38 0 -11 8
-13 33 -8 17 4 35 9 40 12 13 8 7 23 -10 23 -11 0 -14 3 -8 8 6 4 16 18 22 32
10 22 12 23 13 5 1 -11 1 -30 0 -42 -2 -30 39 -33 47 -3 5 19 67 45 84 34 4
-2 20 -2 34 2 18 4 23 10 16 18 -6 7 -10 21 -9 31 0 11 -2 27 -6 36 -4 9 1 22
13 33 19 18 21 17 55 -3 38 -24 40 -39 10 -72 -15 -17 -7 -14 34 11 28 17 52
38 52 45 0 7 -24 21 -52 31 -29 9 -56 23 -60 30 -5 6 -18 10 -30 7 -19 -4 -20
-3 -8 6 8 6 25 11 36 11 15 0 23 8 26 25 4 20 -1 29 -23 42 -34 20 -41 58 -12
58 6 0 15 4 19 8 14 14 95 7 133 -12z m141 4 c0 -8 -7 -15 -15 -15 -8 0 -15 7
-15 15 0 8 7 15 15 15 8 0 15 -7 15 -15z m60 -14 c0 -5 -6 -14 -14 -20 -16
-13 -32 2 -21 19 8 12 35 13 35 1z m-2470 -62 c0 -6 -4 -7 -10 -4 -5 3 -10 11
-10 16 0 6 5 7 10 4 6 -3 10 -11 10 -16z m2075 -38 c3 -5 1 -12 -5 -16 -5 -3
-10 1 -10 9 0 18 6 21 15 7z m-905 -245 c0 -2 -7 -6 -15 -10 -8 -3 -15 -1 -15
4 0 6 7 10 15 10 8 0 15 -2 15 -4z m-299 -224 c11 -15 24 -26 27 -26 11 2 56
-19 70 -33 9 -9 7 -12 -10 -16 -23 -4 -23 -4 2 -14 24 -10 24 -11 -14 -18 -29
-6 -47 -3 -71 9 -17 9 -42 18 -55 20 -30 3 -80 47 -80 70 0 10 9 16 25 16 14
0 25 3 25 8 0 4 13 8 30 9 21 2 35 -5 51 -25z m1029 -102 c0 -5 -2 -10 -4 -10
-3 0 -8 5 -11 10 -3 6 -1 10 4 10 6 0 11 -4 11 -10z m80 -9 c0 -4 -11 -6 -25
-3 -14 2 -25 6 -25 8 0 2 11 4 25 4 14 0 25 -4 25 -9z m-1800 -11 c0 -5 -4
-10 -10 -10 -5 0 -10 5 -10 10 0 6 5 10 10 10 6 0 10 -4 10 -10z m3 -90 c-3
-12 -8 -19 -11 -16 -5 6 5 36 12 36 2 0 2 -9 -1 -20z m41 -16 c4 -9 4 -19 2
-21 -8 -8 -26 8 -26 23 0 19 16 18 24 -2z m876 -24 c0 -5 -4 -11 -9 -14 -5 -3
-12 -21 -15 -39 -6 -30 -10 -34 -37 -34 -30 0 -31 2 -26 35 4 18 11 39 16 46
12 15 71 19 71 6z m-914 -34 c-2 -14 1 -27 7 -30 9 -3 8 -5 -1 -5 -16 -1 -26
24 -18 44 9 24 17 17 12 -9z m32 -1 c-3 -3 -9 2 -12 12 -6 14 -5 15 5 6 7 -7
10 -15 7 -18z m1316 -243 c67 -10 70 -28 5 -31 -33 -1 -61 4 -75 14 -30 20
-31 37 -1 30 12 -3 44 -9 71 -13z m-1254 -46 c0 -3 -4 -8 -10 -11 -5 -3 -10
-1 -10 4 0 6 5 11 10 11 6 0 10 -2 10 -4z m-40 -31 c0 -8 -4 -15 -10 -15 -5 0
-7 7 -4 15 4 8 8 15 10 15 2 0 4 -7 4 -15z m23 -50 c4 -8 3 -16 -1 -19 -4 -3
-9 4 -9 15 -2 23 3 25 10 4z m-3893 -279 c0 -11 -19 -15 -25 -6 -3 5 1 10 9
10 9 0 16 -2 16 -4z m3606 -283 c-10 -10 -19 5 -10 18 6 11 8 11 12 0 2 -7 1
-15 -2 -18z m34 -3 c0 -5 -5 -10 -11 -10 -5 0 -7 5 -4 10 3 6 8 10 11 10 2 0
4 -4 4 -10z m-30 -82 c0 -19 -2 -20 -10 -8 -13 19 -13 30 0 30 6 0 10 -10 10
-22z m30 2 c0 -5 -5 -10 -11 -10 -5 0 -7 5 -4 10 3 6 8 10 11 10 2 0 4 -4 4
-10z m-48 -49 c-9 -2 -20 -8 -24 -14 -3 -5 -5 1 -5 14 2 22 5 24 24 14 19 -8
20 -11 5 -14z m-61 -44 c-10 -9 -11 -8 -5 6 3 10 9 15 12 12 3 -3 0 -11 -7
-18z m-1 -32 c-7 -8 -16 -12 -21 -9 -13 8 -1 24 18 24 13 0 13 -3 3 -15z m110
-125 c0 -5 -5 -10 -11 -10 -5 0 -7 5 -4 10 3 6 8 10 11 10 2 0 4 -4 4 -10z
m-40 -51 c0 -14 -17 -10 -23 5 -4 10 -1 13 9 9 7 -3 14 -9 14 -14z m18 -301
c3 -15 -4 -18 -37 -18 -35 0 -41 3 -41 21 0 17 5 20 37 17 27 -2 39 -8 41 -20z
m920 -20 c-3 -25 -34 -43 -90 -51 -37 -6 -38 -5 -38 27 0 18 2 35 5 38 3 2 32
6 66 7 58 2 60 1 57 -21z m247 -8 c3 -5 -3 -10 -14 -10 -12 0 -21 5 -21 10 0
6 6 10 14 10 8 0 18 -4 21 -10z m292 -26 c-3 -3 -12 -4 -19 -1 -8 3 -5 6 6 6
11 1 17 -2 13 -5z m1798 -142 c9 -6 36 -92 30 -92 -2 0 -15 23 -29 50 -25 47
-25 60 -1 42z m-554 -128 c49 -17 104 -28 162 -32 84 -5 87 -6 87 -29 0 -13
-5 -33 -10 -44 -19 -34 -117 -23 -225 26 -16 8 -47 21 -68 29 -42 17 -55 39
-37 61 15 18 3 20 91 -11z m-307 -19 c-5 -11 -9 -12 -19 -2 -9 8 -10 14 -2 19
16 9 27 0 21 -17z m-1059 -79 c328 -99 310 -95 750 -146 230 -26 254 -33 348
-97 152 -104 230 -133 382 -142 95 -6 119 -11 180 -39 135 -64 137 -82 22
-200 -94 -95 -87 -94 -164 -22 -76 72 -121 84 -202 56 -22 -8 -67 -18 -100
-22 -54 -6 -72 -2 -197 41 -75 26 -144 48 -153 50 -25 6 -201 80 -256 107 -27
14 -66 33 -85 43 -132 64 -145 73 -148 94 -3 21 -4 22 -17 4 -13 -17 -16 -17
-83 0 -131 34 -291 40 -460 17 -40 -6 -118 -10 -173 -10 l-100 0 -19 43 c-21
48 -35 145 -26 175 9 26 42 39 155 57 52 8 97 17 100 21 13 13 160 -5 246 -30z
m400 -377 c127 -26 228 -60 335 -114 84 -42 209 -115 198 -115 -3 0 -52 18
-109 39 -134 50 -194 67 -303 86 -103 18 -382 21 -516 5 -47 -5 -163 -13 -258
-17 l-173 -6 3 66 3 67 254 5 c140 3 257 8 260 11 11 11 204 -7 306 -27z
m-1235 -124 c0 -8 -9 -15 -20 -15 -13 0 -18 5 -14 15 4 8 12 15 20 15 8 0 14
-7 14 -15z m1940 -151 c63 -14 87 -15 155 -5 111 17 164 2 225 -61 42 -45 56
-75 59 -127 2 -52 2 -52 -94 42 -83 81 -120 98 -235 107 -62 5 -112 15 -143
29 -27 11 -55 21 -62 21 -8 0 -17 5 -21 12 -5 8 0 9 17 4 13 -3 58 -14 99 -22z
m-4486 -92 c7 -12 -48 -42 -62 -33 -22 13 -2 41 28 41 16 0 31 -4 34 -8z
m-1340 -295 c11 -8 19 -27 20 -45 1 -36 1 -36 26 -22 16 8 18 8 14 -5 -4 -8
-10 -15 -14 -15 -5 0 -24 -25 -43 -56 -34 -54 -36 -55 -39 -27 -2 15 5 52 14
80 19 56 12 87 -22 97 -10 2 -8 4 6 5 11 0 28 -5 38 -12z m6631 -134 c-4 -27
-10 -52 -15 -57 -5 -4 -21 10 -36 33 -15 23 -25 43 -23 44 7 5 63 25 73 26 4
1 5 -20 1 -46z m-4147 -115 c-3 -22 -15 -38 -29 -38 -12 0 -16 49 -5 54 26 11
37 5 34 -16z m-2288 3 c0 -14 -18 -23 -31 -15 -8 4 -7 9 2 15 18 11 29 11 29
0z m-70 -51 c0 -13 -30 -13 -50 0 -11 7 -7 10 18 10 17 0 32 -4 32 -10z m170
-11 c-65 -11 -112 -11 -105 1 3 6 39 9 78 9 69 -1 70 -2 27 -10z m-488 -66
c41 -37 13 -66 -75 -78 -49 -7 -77 7 -77 38 0 45 113 76 152 40z"/>
<path d="M5170 5206 c0 -2 9 -6 20 -9 11 -3 18 -1 14 4 -5 9 -34 13 -34 5z"/>
<path d="M5211 5164 c0 -11 3 -14 6 -6 3 7 2 16 -1 19 -3 4 -6 -2 -5 -13z"/>
<path d="M5105 4660 c-3 -5 -1 -10 4 -10 6 0 11 5 11 10 0 6 -2 10 -4 10 -3 0
-8 -4 -11 -10z"/>
<path d="M7995 6110 c-3 -5 -1 -10 4 -10 6 0 11 5 11 10 0 6 -2 10 -4 10 -3 0
-8 -4 -11 -10z"/>
<path d="M6064 6101 c11 -17 68 -41 99 -41 36 0 31 9 -9 16 -16 3 -31 10 -35
15 -3 5 -18 12 -33 15 -16 3 -25 1 -22 -5z"/>
<path d="M6420 6075 c0 -8 9 -15 20 -15 11 0 20 7 20 15 0 8 -9 15 -20 15 -11
0 -20 -7 -20 -15z"/>
<path d="M7559 6077 c-1 -7 -1 -16 0 -20 3 -20 -32 -18 -54 3 -14 13 -27 21
-31 18 -6 -7 49 -48 65 -48 6 0 11 -4 11 -9 0 -14 64 -20 80 -7 8 7 28 18 43
26 16 8 26 20 25 29 -3 12 -19 16 -71 18 -45 1 -67 -2 -68 -10z"/>
<path d="M6510 6076 c0 -2 7 -7 16 -10 8 -3 12 -2 9 4 -6 10 -25 14 -25 6z"/>
<path d="M5280 5940 c0 -5 5 -10 10 -10 6 0 10 5 10 10 0 6 -4 10 -10 10 -5 0
-10 -4 -10 -10z"/>
<path d="M6490 5760 c11 -21 50 -46 50 -32 0 10 -43 52 -53 52 -4 0 -3 -9 3
-20z"/>
<path d="M4557 5680 c-9 -11 -17 -25 -17 -32 0 -6 -7 -20 -16 -29 -16 -17 -15
-19 10 -29 36 -13 39 -13 33 4 -3 8 3 26 14 40 18 23 18 26 4 26 -12 0 -15 6
-10 20 8 25 4 25 -18 0z"/>
<path d="M6770 5040 c-8 -5 -12 -12 -9 -15 4 -3 12 1 19 10 14 17 11 19 -10 5z"/>
<path d="M4070 5014 c0 -8 5 -12 10 -9 6 3 10 10 10 16 0 5 -4 9 -10 9 -5 0
-10 -7 -10 -16z"/>
<path d="M6661 4266 c-9 -11 -6 -21 15 -46 15 -17 28 -44 29 -58 5 -71 4 -69
17 -48 13 22 3 132 -13 152 -15 18 -33 18 -48 0z"/>
<path d="M3970 4259 c0 -5 5 -7 10 -4 6 3 10 8 10 11 0 2 -4 4 -10 4 -5 0 -10
-5 -10 -11z"/>
<path d="M6723 4035 c0 -22 2 -30 4 -17 2 12 2 30 0 40 -3 9 -5 -1 -4 -23z"/>
<path d="M4058 4013 c6 -2 18 -2 25 0 6 3 1 5 -13 5 -14 0 -19 -2 -12 -5z"/>
<path d="M4060 3889 c0 -4 7 -9 15 -13 9 -3 15 0 15 8 0 7 -7 13 -15 13 -8 0
-15 -4 -15 -8z"/>
<path d="M4085 3811 c-3 -5 -1 -12 5 -16 5 -3 10 1 10 9 0 18 -6 21 -15 7z"/>
<path d="M5600 3590 c0 -17 48 -42 69 -35 17 5 19 9 8 26 -12 20 -77 28 -77 9z"/>
<path d="M3978 3533 c7 -3 16 -2 19 1 4 3 -2 6 -13 5 -11 0 -14 -3 -6 -6z"/>
<path d="M4090 3512 c0 -5 7 -9 15 -9 8 0 15 4 15 9 0 4 -7 8 -15 8 -8 0 -15
-4 -15 -8z"/>
<path d="M4095 3470 c3 -5 10 -10 16 -10 5 0 9 5 9 10 0 6 -7 10 -16 10 -8 0
-12 -4 -9 -10z"/>
<path d="M4150 3462 c0 -11 8 -18 20 -19 11 -1 20 -1 20 0 0 2 -9 10 -20 20
-19 16 -20 16 -20 -1z"/>
<path d="M4127 3446 c-4 -10 -5 -21 -2 -24 9 -9 17 6 13 25 -3 17 -4 17 -11
-1z"/>
<path d="M4060 3410 c0 -5 5 -10 11 -10 5 0 7 5 4 10 -3 6 -8 10 -11 10 -2 0
-4 -4 -4 -10z"/>
<path d="M4000 3330 c0 -6 7 -10 15 -10 8 0 15 2 15 4 0 2 -7 6 -15 10 -8 3
-15 1 -15 -4z"/>
<path d="M4090 3291 c0 -5 10 -17 22 -25 12 -9 18 -16 13 -17 -6 -1 1 -5 15
-9 22 -7 20 -8 -15 -9 -27 -1 -35 -4 -26 -10 7 -5 22 -6 33 -3 10 2 18 1 17
-4 -1 -5 -1 -19 0 -32 2 -35 21 -15 21 21 0 25 -9 39 -40 65 -22 18 -40 29
-40 23z"/>
<path d="M4050 3221 c0 -5 7 -11 14 -14 10 -4 13 -1 9 9 -6 15 -23 19 -23 5z"/>
<path d="M4071 3174 c0 -11 3 -14 6 -6 3 7 2 16 -1 19 -3 4 -6 -2 -5 -13z"/>
<path d="M4150 3139 c0 -8 -13 -10 -37 -6 -35 6 -35 6 -15 -9 17 -11 26 -12
42 -4 18 10 28 30 15 30 -3 0 -5 -5 -5 -11z"/>
<path d="M4030 3090 c-6 -11 -8 -25 -4 -31 4 -6 0 -15 -7 -20 -11 -7 -9 -9 6
-7 39 3 54 -2 49 -15 -3 -8 2 -20 11 -27 13 -10 15 -9 15 8 0 11 3 27 6 36 5
13 -1 16 -31 16 -36 0 -37 1 -33 30 5 35 3 37 -12 10z"/>
<path d="M3938 3083 c6 -2 18 -2 25 0 6 3 1 5 -13 5 -14 0 -19 -2 -12 -5z"/>
<path d="M4060 3070 c0 -5 5 -10 10 -10 6 0 10 5 10 10 0 6 -4 10 -10 10 -5 0
-10 -4 -10 -10z"/>
<path d="M430 2930 c0 -5 7 -10 15 -10 8 0 15 5 15 10 0 6 -7 10 -15 10 -8 0
-15 -4 -15 -10z"/>
<path d="M3954 2873 c2 -9 8 -19 14 -21 6 -2 8 -10 5 -18 -3 -8 0 -14 6 -14
15 0 13 31 -3 53 -17 22 -25 22 -22 0z"/>
<path d="M3916 2856 c6 -17 34 -30 34 -16 0 5 -9 14 -20 20 -16 8 -18 8 -14
-4z"/>
<path d="M3866 2723 c-6 -14 -5 -15 5 -6 7 7 10 15 7 18 -3 3 -9 -2 -12 -12z"/>
<path d="M7945 2485 c-55 -7 -120 -18 -145 -25 -25 -6 -63 -15 -85 -20 -22 -5
-73 -17 -112 -27 -83 -20 -85 -25 -57 -107 9 -26 13 -51 8 -55 -5 -4 -44 -23
-87 -42 -81 -35 -122 -73 -115 -107 2 -10 12 -17 25 -16 12 0 20 -2 18 -6 -4
-6 96 -46 365 -143 171 -63 245 -94 387 -166 68 -33 124 -61 126 -61 2 0 4 20
6 45 1 32 -10 79 -36 153 -24 68 -40 136 -44 187 -12 129 -37 337 -44 373 -7
31 -9 32 -59 31 -28 -1 -96 -7 -151 -14z"/>
<path d="M7350 2350 c-12 -8 -11 -10 5 -9 11 1 31 5 45 9 24 8 24 8 -5 9 -16
0 -37 -4 -45 -9z"/>
<path d="M7308 2333 c7 -3 16 -2 19 1 4 3 -2 6 -13 5 -11 0 -14 -3 -6 -6z"/>
<path d="M7158 2285 c-26 -14 -61 -25 -77 -25 -38 0 -80 -19 -77 -34 2 -6 1
-8 -1 -3 -3 4 -18 7 -34 7 -20 0 -29 -5 -29 -16 0 -8 -4 -12 -10 -9 -5 3 -10
2 -10 -3 0 -4 30 -18 68 -29 198 -62 202 -63 202 -35 0 16 21 104 36 155 7 24
-12 22 -68 -8z"/>
<path d="M6513 2231 c7 -14 17 -32 24 -39 7 -8 13 -38 13 -69 0 -31 3 -54 6
-51 7 8 7 112 -1 147 -4 20 -14 30 -30 33 -22 5 -22 3 -12 -21z"/>
<path d="M6677 2163 c-9 -2 -15 -8 -12 -13 3 -5 -8 -3 -25 3 -38 14 -52 0 -20
-22 14 -9 46 -35 71 -58 25 -24 49 -43 53 -43 11 0 6 41 -9 71 -12 22 -13 34
-5 49 9 17 8 20 -12 19 -13 -1 -31 -3 -41 -6z"/>
<path d="M6766 2154 c-5 -14 -4 -15 9 -4 17 14 19 20 6 20 -5 0 -12 -7 -15
-16z"/>
<path d="M5547 2049 c14 -28 16 -29 32 -15 10 9 21 13 25 9 4 -4 4 0 1 9 -4 9
-14 14 -25 11 -10 -3 -21 0 -24 6 -16 25 -23 9 -9 -20z"/>
<path d="M6536 2045 c-3 -8 -1 -15 4 -15 6 0 10 7 10 15 0 8 -2 15 -4 15 -2 0
-6 -7 -10 -15z"/>
<path d="M5500 2025 c7 -8 16 -12 21 -9 16 9 10 20 -12 21 -17 2 -18 -1 -9
-12z"/>
<path d="M6470 1985 c0 -10 61 -35 72 -29 7 5 8 3 3 -6 -6 -10 -4 -12 8 -7 11
4 28 -5 51 -29 31 -32 34 -33 47 -17 12 15 12 16 -3 10 -12 -4 -18 -2 -18 8 0
15 -51 42 -119 64 -38 12 -41 13 -41 6z"/>
<path d="M6190 1965 c92 -26 136 -47 166 -76 l31 -30 -3 28 c-1 16 -16 40 -33
55 -16 14 -27 29 -24 32 4 3 -36 6 -88 5 l-94 -1 45 -13z"/>
<path d="M6400 1866 c0 -2 7 -7 16 -10 8 -3 12 -2 9 4 -6 10 -25 14 -25 6z"/>
<path d="M6429 1831 c7 -5 11 -13 7 -19 -4 -6 2 -8 15 -5 21 6 21 7 4 20 -11
7 -24 13 -29 13 -6 0 -5 -4 3 -9z"/>
<path d="M2901 1821 c-8 -5 -9 -11 -3 -15 5 -3 12 1 16 9 6 17 6 18 -13 6z"/>
<path d="M3900 1750 c-93 -33 -195 -50 -293 -50 -56 0 -97 -4 -104 -11 -9 -9
-20 -5 -43 15 -31 26 -64 33 -86 18 -6 -4 -19 -23 -29 -42 -34 -69 -64 -89
-156 -104 -44 -8 -86 -44 -95 -83 -3 -15 -13 -33 -21 -40 -23 -18 -29 -96 -9
-115 22 -23 20 -37 -8 -59 -24 -19 -39 -65 -52 -161 l-6 -47 53 52 c30 29 65
61 79 72 26 21 61 86 90 170 15 43 15 52 3 64 -22 20 -11 46 20 49 24 3 28 0
23 -15 -5 -17 1 -19 80 -21 74 -1 90 2 122 22 27 16 47 22 74 18 57 -6 203 44
250 86 21 19 37 37 34 39 -2 2 -38 -7 -80 -21 -95 -32 -141 -34 -156 -5 -15
28 -6 49 22 49 13 1 81 16 151 33 109 28 129 31 136 19 7 -12 18 -6 55 28 25
23 46 46 46 51 0 14 -40 9 -100 -11z m-487 -139 c5 -24 5 -47 0 -51 -9 -8
-113 -23 -113 -17 0 20 34 95 48 105 32 24 56 11 65 -37z"/>
<path d="M8118 1743 c-9 -2 -20 -13 -23 -24 -5 -13 -15 -19 -37 -19 -23 0 -29
-4 -24 -15 4 -11 -1 -15 -19 -15 -14 0 -25 4 -25 10 0 5 -7 7 -15 3 -12 -4 -9
-9 12 -20 21 -11 54 -14 130 -11 120 4 139 14 98 52 -15 14 -36 26 -46 26 -11
0 -19 5 -19 10 0 10 -3 11 -32 3z m2 -39 c0 -8 -4 -12 -10 -9 -5 3 -10 10 -10
16 0 5 5 9 10 9 6 0 10 -7 10 -16z"/>
<path d="M2900 1706 c0 -21 28 -46 51 -46 22 0 24 17 5 43 -16 21 -56 23 -56
3z"/>
<path d="M7720 1215 l-44 -45 18 -55 c9 -30 22 -55 28 -55 7 0 25 12 40 27 19
18 31 24 36 17 4 -6 26 -23 48 -37 23 -14 59 -46 79 -72 51 -62 134 -130 145
-119 5 5 15 31 22 57 l13 49 -49 45 c-27 24 -54 42 -60 40 -6 -2 -29 18 -51
46 -81 99 -131 147 -156 147 -16 0 -41 -16 -69 -45z"/>
<path d="M2243 1138 c3 -10 1 -20 -5 -24 -7 -4 -8 -3 -4 4 5 8 -2 12 -19 12
-15 0 -28 -7 -32 -17 -4 -10 -12 -22 -20 -26 -7 -4 -13 -13 -13 -18 0 -6 -7
-17 -15 -25 -17 -18 -20 -34 -4 -34 5 0 7 5 4 10 -3 6 4 10 17 10 18 0 20 -2
8 -10 -11 -7 -11 -10 -2 -10 28 0 50 21 56 55 4 19 12 34 17 32 6 -1 16 6 22
15 9 13 8 20 -2 30 -12 11 -13 10 -8 -4z"/>
<path d="M2050 1029 c0 -5 5 -7 10 -4 6 3 10 8 10 11 0 2 -4 4 -10 4 -5 0 -10
-5 -10 -11z"/>
<path d="M4835 722 l-50 -7 95 -25 c103 -27 277 -34 315 -12 18 10 17 12 -20
28 -44 18 -246 28 -340 16z"/>
<path d="M5663 706 c-40 -7 -75 -15 -79 -18 -19 -20 224 -52 345 -46 140 6
143 31 9 63 -74 17 -174 18 -275 1z"/>
<path d="M5277 492 c-43 -8 -74 -19 -69 -24 12 -12 162 -28 257 -27 82 1 155
16 158 34 3 14 -113 33 -198 33 -38 0 -105 -7 -148 -16z"/>
<path d="M1781 98 c-15 -24 -26 -98 -14 -98 7 0 63 101 63 115 0 12 -39 -2
-49 -17z"/>
<path d="M4995 14 l-30 -13 27 -1 c15 0 30 5 33 11 11 16 2 17 -30 3z"/>
</g>
</svg>
